<svg width="68" height="67" viewBox="0 0 68 67" fill="none" xmlns="http://www.w3.org/2000/svg">
<path fill-rule="evenodd" clipRule="evenodd" d="M15.1885 24.7849C19.5302 19.9849 22.3116 14.6084 25.4982 9.0839C26.1204 8.00491 25.7503 6.62981 24.6753 6.0081C23.5997 5.38603 22.2211 5.75943 21.5983 6.83806C18.5768 12.0767 15.9733 17.2082 11.8504 21.7683C11.0162 22.6905 11.0868 24.1172 12.0098 24.9466C12.9286 25.7824 14.355 25.7075 15.1885 24.7849Z" fill="#F7E62D"/>
<path fill-rule="evenodd" clipRule="evenodd" d="M20.9727 41.7361C34.7507 38.2712 49.2971 32.1023 61.2817 24.417C62.3277 23.7452 62.6334 22.3508 61.9618 21.3075C61.2903 20.2643 59.8984 19.9574 58.8524 20.6292C47.2641 28.0595 33.1957 34.0259 19.8757 37.3712C18.6704 37.676 17.9384 38.9003 18.242 40.1032C18.5456 41.306 19.7675 42.0409 20.9727 41.7361Z" fill="#F7E62D"/>
<path fill-rule="evenodd" clipRule="evenodd" d="M18.3452 52.2134C26.0384 58.1554 36.022 60.467 45.5104 61.2423C46.7503 61.3396 47.8368 60.417 47.9362 59.1842C48.0384 57.9444 47.1145 56.8588 45.8781 56.755C37.2352 56.0517 28.1034 54.0628 21.0961 48.6521C20.1132 47.8926 18.6983 48.0759 17.9408 49.0565C17.1828 50.0367 17.363 51.4542 18.3452 52.2134Z" fill="#F7E62D"/>
</svg>
