<svg width="209" height="196" viewBox="0 0 209 196" fill="none" xmlns="http://www.w3.org/2000/svg">
<path d="M144.069 1.17339C143.613 0.482057 142.682 0.291645 141.991 0.748091C141.299 1.20454 141.109 2.13501 141.566 2.82634L144.069 1.17339ZM162.895 77.4459L163.954 78.5082L163.954 78.5081L162.895 77.4459ZM98.6431 76.2493L99.5477 77.4459L99.5482 77.4455L98.6431 76.2493ZM87.8243 170.266L88.7375 171.456L88.7379 171.456L87.8243 170.266ZM51.7149 169.29C50.9483 168.976 50.0723 169.343 49.7582 170.11C49.4442 170.876 49.8111 171.752 50.5777 172.066L51.7149 169.29ZM72.5938 156.23C73.2808 155.768 73.4626 154.835 72.9998 154.148C72.5369 153.461 71.6047 153.279 70.9177 153.742L72.5938 156.23ZM48.7076 170.513L47.8695 169.269C47.4981 169.519 47.2579 169.922 47.2146 170.368C47.1713 170.813 47.3294 171.255 47.6457 171.572L48.7076 170.513ZM68.9912 192.967C69.5763 193.553 70.5261 193.554 71.1125 192.969C71.699 192.384 71.7001 191.435 71.115 190.848L68.9912 192.967ZM142.817 1.99987C141.566 2.82634 141.566 2.82634 141.566 2.82656C141.566 2.82692 141.566 2.82736 141.567 2.82809C141.568 2.82955 141.569 2.83187 141.571 2.83507C141.575 2.84145 141.582 2.85129 141.591 2.86456C141.608 2.89109 141.634 2.93128 141.669 2.98476C141.739 3.09173 141.843 3.25186 141.978 3.46218C142.249 3.88285 142.645 4.50423 143.143 5.30261C144.14 6.89953 145.546 9.20358 147.177 12.0251C150.444 17.6721 154.605 25.3741 158.206 33.6187C161.813 41.8802 164.82 50.6032 165.835 58.3108C166.857 66.0689 165.816 72.4151 161.836 76.3837L163.954 78.5081C168.939 73.5374 169.871 65.9832 168.81 57.9191C167.741 49.8044 164.608 40.7833 160.955 32.4181C157.294 24.036 153.074 16.2287 149.774 10.5231C148.123 7.66839 146.7 5.33531 145.688 3.71417C145.182 2.90352 144.779 2.27064 144.501 1.8393C144.363 1.62363 144.255 1.45832 144.182 1.34635C144.146 1.29036 144.118 1.24771 144.099 1.21876C144.089 1.20429 144.082 1.19324 144.077 1.18566C144.075 1.18187 144.073 1.17895 144.071 1.17691C144.071 1.17588 144.07 1.175 144.07 1.1745C144.069 1.17383 144.069 1.17339 142.817 1.99987ZM161.836 76.3836C157.716 80.4909 153.181 81.5973 148.256 81.1629C143.222 80.7188 137.847 78.6713 132.156 76.4336C126.557 74.2323 120.66 71.8499 114.882 71.0261C109.028 70.1915 103.179 70.936 97.7379 75.0532L99.5482 77.4455C104.194 73.9298 109.177 73.2431 114.459 73.9961C119.816 74.7599 125.357 76.984 131.058 79.2255C136.666 81.4307 142.45 83.6624 147.993 84.1513C153.645 84.6499 159.104 83.343 163.954 78.5082L161.836 76.3836ZM97.7385 75.0528C90.1598 80.782 87.0277 88.8594 86.1983 97.768C85.3734 106.628 86.8103 116.459 88.4815 125.906C90.1688 135.444 92.0812 144.539 92.3638 152.244C92.6474 159.974 91.2594 165.737 86.9107 169.076L88.7379 171.456C94.3026 167.182 95.6536 160.086 95.3618 152.134C95.0692 144.157 93.092 134.747 91.4356 125.384C89.7631 115.928 88.4021 106.459 89.1854 98.0461C89.9641 89.6814 92.8461 82.5121 99.5477 77.4459L97.7385 75.0528ZM86.9111 169.076C80.8628 173.718 72.2304 173.904 64.7947 172.764C61.1221 172.2 57.8413 171.329 55.4767 170.596C54.2961 170.231 53.3479 169.901 52.6982 169.664C52.3735 169.546 52.1236 169.451 51.9569 169.386C51.8736 169.354 51.8111 169.329 51.7704 169.313C51.75 169.305 51.7351 169.299 51.7258 169.295C51.7212 169.293 51.7179 169.292 51.7161 169.291C51.7152 169.29 51.7146 169.29 51.7144 169.29C51.7143 169.29 51.7144 169.29 51.7144 169.29C51.7146 169.29 51.7149 169.29 51.1463 170.678C50.5777 172.066 50.5782 172.067 50.5787 172.067C50.579 172.067 50.5797 172.067 50.5803 172.068C50.5815 172.068 50.5831 172.069 50.5851 172.069C50.589 172.071 50.5943 172.073 50.601 172.076C50.6145 172.081 50.6336 172.089 50.6582 172.099C50.7075 172.119 50.7789 172.147 50.8713 172.183C51.0562 172.254 51.3254 172.357 51.6706 172.483C52.3608 172.734 53.3559 173.08 54.5892 173.462C57.0526 174.225 60.4823 175.137 64.3399 175.729C71.9645 176.898 81.6711 176.879 88.7375 171.456L86.9111 169.076ZM70.9177 153.742L47.8695 169.269L49.5456 171.757L72.5938 156.23L70.9177 153.742ZM47.6457 171.572L68.9912 192.967L71.115 190.848L49.7694 169.453L47.6457 171.572Z" fill="#2CF7A4"/>
</svg>
