<svg width="65" height="66" viewBox="0 0 65 66" fill="none" xmlns="http://www.w3.org/2000/svg">
<path d="M58.2709 27.1944L61.7992 45.0731C62.7391 49.8361 59.65 54.5336 54.8179 55.4872L20.1651 62.3258C15.4021 63.2658 10.7046 60.1766 9.75097 55.3446L6.2227 37.4659C3.38919 23.1078 12.7666 9.20863 27.0557 6.38874C41.3448 3.56885 55.313 12.9326 58.1329 27.2217L58.2709 27.1944Z" fill="#F38744"/>
<path d="M55.0788 56.4405L20.426 63.279C15.1108 64.328 9.90367 60.8374 8.85473 55.5221L5.32646 37.6435C2.38396 22.7331 12.0801 8.269 26.9905 5.3265C41.9008 2.38401 56.365 12.0802 59.3075 26.9905L62.8357 44.8692C63.8847 50.1844 60.394 55.3915 55.0788 56.4405ZM27.3992 7.39738C13.5933 10.1219 4.61741 23.5115 7.34194 37.3174L10.8702 55.1961C11.7012 59.4069 15.8338 62.1772 20.0446 61.3462L54.6973 54.5076C58.9081 53.6767 61.6785 49.5441 60.8475 45.3333L57.3192 27.4546C54.6083 13.7178 41.205 4.67285 27.3992 7.39738Z" fill="#161616"/>
<path d="M46.0409 40.4356C48.4427 39.9616 50.0055 37.6303 49.5315 35.2285C49.0575 32.8267 46.7262 31.2639 44.3244 31.7379C41.9226 32.2119 40.3598 34.5431 40.8338 36.945C41.3078 39.3468 43.6391 40.9096 46.0409 40.4356Z" fill="#303036"/>
<path d="M42.5895 36.3827C43.0309 36.4391 43.3198 36.8124 43.2635 37.2538C43.2625 37.6125 42.9446 37.8187 42.6685 37.8732C42.5994 37.8868 42.5304 37.9005 42.4614 37.9141C42.02 37.8578 41.7311 37.4845 41.7875 37.043C41.8438 36.6016 42.2171 36.3128 42.6585 36.3691L42.5895 36.3827Z" fill="#303036"/>
<path d="M43.8365 33.2704C44.3878 33.5202 44.5512 34.3486 44.2043 35.1342C43.9545 35.6855 43.5258 36.057 43.1116 36.1387C42.9735 36.166 42.7664 36.2068 42.6011 36.096C42.0498 35.8462 41.8863 35.0179 42.2333 34.2322C42.5803 33.4466 43.2851 33.0206 43.8365 33.2704Z" fill="#303036"/>
<path d="M22.6393 45.0538C25.0411 44.5798 26.6039 42.2485 26.1299 39.8467C25.6559 37.4449 23.3246 35.8821 20.9228 36.3561C18.521 36.8301 16.9582 39.1614 17.4322 41.5632C17.9062 43.965 20.2375 45.5278 22.6393 45.0538Z" fill="#303036"/>
<path d="M24.3611 39.98C23.9742 40.1998 23.8488 40.6549 24.0686 41.0418C24.2058 41.3733 24.5782 41.4433 24.8543 41.3888C24.9233 41.3751 24.9924 41.3615 25.0614 41.3479C25.4483 41.1281 25.5737 40.6731 25.3539 40.2861C25.1341 39.8992 24.679 39.7738 24.2921 39.9936L24.3611 39.98Z" fill="#303036"/>
<path d="M21.9545 37.5887C21.5394 38.0292 21.7029 38.8576 22.3223 39.4525C22.7628 39.8676 23.3005 40.0483 23.7147 39.9666C23.8527 39.9394 24.0598 39.8985 24.1706 39.7332C24.5857 39.2927 24.4222 38.4643 23.8028 37.8694C23.1834 37.2745 22.3696 37.1482 21.9545 37.5887Z" fill="#303036"/>
<path d="M33.8882 43.9111C31.3214 43.9874 29.2851 41.664 28.8773 39.2343C28.8637 39.1653 28.8501 39.0962 28.8365 39.0272C28.9064 38.6548 29.7075 38.3533 29.9564 38.1607C31.9737 37.1172 35.2735 36.3943 37.6041 36.9384C37.6041 36.9384 37.6732 36.9247 37.7558 36.9802C37.7558 36.9802 37.8248 36.9665 37.9075 37.0219C37.9075 37.0219 37.9075 37.0219 37.9211 37.091C37.9211 37.091 37.9347 37.16 37.9483 37.229C37.9483 37.229 37.9483 37.229 37.962 37.2981C37.962 37.2981 37.9892 37.4361 38.0028 37.5052L38.0301 37.6432C38.0573 37.7813 38.0846 37.9193 38.0982 37.9884C38.1391 38.1954 38.1799 38.4025 38.2072 38.5406C38.4496 40.8594 36.9527 43.4498 34.6057 43.913C34.3986 43.9538 34.1225 44.0083 33.9154 44.0492L33.8882 43.9111Z" fill="#FF767A"/>
<path d="M28.8926 39.303C28.8926 39.303 28.8517 39.0959 28.8381 39.0269C28.9081 38.6545 29.7092 38.353 29.958 38.1604C31.9753 37.1169 35.2751 36.3939 37.6058 36.9381C37.6058 36.9381 37.6748 36.9244 37.7438 36.9108C37.7438 36.9108 37.8129 36.8972 37.8955 36.9526C37.8955 36.9526 37.8955 36.9526 37.9091 37.0216C37.9091 37.0216 37.9228 37.0907 37.9364 37.1597C37.9364 37.1597 37.9364 37.1597 37.95 37.2287C37.95 37.2287 37.9772 37.3668 37.9909 37.4358L38.0181 37.5739C38.0454 37.7119 38.059 37.781 38.0862 37.919C38.1407 38.1951 38.1816 38.4022 38.1952 38.4712C38.2624 39.1752 38.1915 39.9063 37.9136 40.6783C37.721 40.4295 37.4595 40.1942 37.2669 39.9454C37.0053 39.7101 36.6747 39.4885 36.3577 39.3359C35.9581 39.1279 35.5585 38.9199 35.1171 38.8635C34.6757 38.8072 34.2342 38.7509 33.751 38.8463C33.5439 38.8871 33.3368 38.928 33.1297 38.9689C32.9226 39.0097 32.7292 39.1196 32.5357 39.2295C32.1488 39.4493 31.7755 39.7381 31.4848 40.0824C31.305 40.2613 31.1942 40.4266 31.0834 40.5919C30.9726 40.7572 30.8753 40.9916 30.7645 41.1569C30.7645 41.1569 30.5702 41.6255 30.473 41.8599C30.5002 41.9979 30.3758 42.0942 30.334 42.2459C29.591 41.3884 29.0969 40.3385 28.879 39.234L28.8926 39.303Z" fill="#303036"/>
<path d="M17.0398 34.1127C16.5302 33.7113 16.5185 32.9247 16.9336 32.4842C18.1652 31.0936 19.5758 29.883 21.2062 29.0592C22.049 28.606 23.04 29.6296 22.7066 30.4843C22.4151 31.1873 21.504 31.2954 20.9509 31.7631C20.1352 32.3544 19.4023 33.0011 18.6965 33.7858C18.3087 34.3644 17.563 34.5832 16.9708 34.1264L17.0398 34.1127Z" fill="#303036"/>
<path d="M47.1371 28.1732C47.4559 27.6083 47.168 26.8762 46.6167 26.6264C44.9491 25.808 43.1844 25.2239 41.3633 25.0813C40.4114 24.9823 39.8836 26.3056 40.5167 26.9696C41.0534 27.5091 41.9372 27.263 42.6266 27.4855C43.6057 27.7226 44.5294 28.0424 45.4804 28.5002C46.0589 28.888 46.8319 28.8072 47.2061 28.1596L47.1371 28.1732Z" fill="#303036"/>
</svg>
