<svg width="56" height="40" viewBox="0 0 56 40" fill="none" xmlns="http://www.w3.org/2000/svg">
<path d="M54.0379 27.5104V30.1138C54.0379 34.9687 50.0977 38.9089 45.1724 38.9089H9.85129C4.99639 38.9089 0.98584 34.9687 0.98584 30.1138V27.5104C0.98584 12.8754 12.8768 1.05478 27.4415 1.05478C42.0062 1.05478 53.8972 12.9458 53.8972 27.5104H54.0379Z" fill="#2ED3B7"/>
<path d="M45.1716 39.9649H9.85049C4.43271 39.9649 0 35.5322 0 30.1144V27.5111C0 12.3131 12.3131 0 27.5111 0C42.709 0 55.0221 12.3131 55.0221 27.5111V30.1144C55.0221 35.5322 50.5894 39.9649 45.1716 39.9649ZM27.5111 2.04046C13.5093 2.04046 2.04044 13.4389 2.04044 27.5111V30.1144C2.04044 34.4064 5.55849 37.9245 9.85049 37.9245H45.1716C49.4636 37.9245 52.9817 34.4064 52.9817 30.1144V27.5111C52.9817 13.4389 41.5832 2.04046 27.5111 2.04046Z" fill="#161616"/>
<path d="M27.5124 25.5406C25.3312 25.5406 24.2055 23.0779 24.4869 21.1078C24.4869 20.756 25.0498 20.756 25.0498 21.1078C25.0498 21.3893 25.0498 21.6004 25.0498 21.8818C25.3312 25.822 29.6936 25.9627 30.1158 22.0225C30.1158 21.6707 30.1158 21.3893 30.1158 21.0375C30.1158 20.8968 30.1861 20.756 30.3972 20.6857C30.5379 20.6857 30.6787 20.756 30.749 20.9671C31.1008 22.9372 29.8343 25.4702 27.6532 25.4702L27.5124 25.5406Z" fill="#303036"/>
<path d="M11.961 21.6704C11.3278 21.3186 12.8054 20.8964 13.0165 20.8261C14.5644 20.3335 16.1827 20.2632 17.801 20.2632C15.9716 18.6449 13.5793 17.308 11.1167 17.3784C10.5538 17.3784 10.0613 16.6748 10.5538 16.1823C11.2575 15.549 14.3533 16.6748 15.1977 17.0266C16.1827 17.3784 20.6858 19.9114 19.4193 21.1779C19.1378 21.389 18.7861 21.3186 18.575 21.2482C17.8714 21.1779 17.1678 21.0372 16.4642 21.1075C15.6902 21.1075 14.9866 21.1779 14.2126 21.3186C13.4386 21.3186 12.735 21.7408 11.961 21.6704Z" fill="#303036"/>
<path d="M40.3175 25.3288C42.7656 25.3288 44.7502 23.3442 44.7502 20.8961C44.7502 18.448 42.7656 16.4634 40.3175 16.4634C37.8694 16.4634 35.8848 18.448 35.8848 20.8961C35.8848 23.3442 37.8694 25.3288 40.3175 25.3288Z" fill="#303036"/>
<path d="M37.6432 20.7566C38.0653 20.8973 38.2764 21.3194 38.1357 21.7416C38.0653 22.0934 37.7135 22.2341 37.4321 22.2341C37.3617 22.2341 37.2914 22.2341 37.221 22.2341C36.7988 22.0934 36.5878 21.6712 36.7285 21.2491C36.8692 20.8269 37.2914 20.6158 37.7135 20.7566H37.6432Z" fill="#303036"/>
<path d="M39.4731 17.9409C39.9657 18.2927 39.9657 19.137 39.4731 19.8406C39.1213 20.3332 38.6288 20.6146 38.2067 20.6146C38.0659 20.6146 37.8548 20.6146 37.7141 20.4739C37.2216 20.1221 37.2216 19.2777 37.7141 18.5741C38.2066 17.8705 38.9806 17.5891 39.4731 17.9409Z" fill="#303036"/>
<path d="M12.0303 13.3692C10.412 11.3991 16.252 9.35865 17.7295 9.42902C19.2071 9.35865 19.3479 11.4695 17.9406 11.6102C16.4631 11.6102 15.1262 12.3138 13.9301 13.0878C13.4375 13.6507 12.5932 13.9321 12.0303 13.2989V13.3692Z" fill="#303036"/>
<path d="M41.4404 13.2287C40.596 12.3844 39.5406 11.7512 38.4148 11.329C37.7112 11.0476 36.6558 11.1179 36.5854 10.1329C36.5854 8.51457 38.4148 8.86638 39.3999 9.3589C40.7367 9.92179 42.0032 10.7661 43.0587 11.7512C44.0437 12.8066 42.4958 14.2842 41.4404 13.2991V13.2287Z" fill="#303036"/>
</svg>
