<svg width="69" height="77" viewBox="0 0 69 77" fill="none" xmlns="http://www.w3.org/2000/svg">
<path d="M61.4107 39.2838L54.7812 67.0703C53.6545 71.7927 48.9075 74.7109 44.1851 73.5842L9.82836 65.3872C5.10601 64.2605 2.11935 59.4971 3.24604 54.7748L9.87552 26.9882C13.2719 12.7527 27.5815 4.0144 41.8169 7.41078C56.0524 10.8072 64.7908 25.1167 61.4107 39.2838Z" fill="#FAC515"/>
<path d="M43.9391 74.6112L9.5823 66.4142C4.31243 65.1568 1.02943 59.8164 2.28675 54.5465L8.91623 26.76C12.4432 11.977 27.2777 2.85753 42.0607 6.38455C56.8438 9.91156 65.9632 24.7461 62.4362 39.5291L55.8067 67.3156C54.5494 72.5855 49.209 75.8685 43.9391 74.6112ZM41.5872 8.3693C27.8992 5.10355 14.1667 13.5455 10.901 27.2335L4.2715 55.0201C3.27545 59.1949 5.881 63.4333 10.0558 64.4294L44.4126 72.6264C48.5875 73.6225 52.8259 71.0169 53.8219 66.8421L60.4514 39.0555C63.7172 25.3676 55.2752 11.6351 41.5872 8.3693Z" fill="#161616"/>
<path d="M24.2752 28.7908C21.8798 28.2193 19.4215 29.7305 18.85 32.1259C18.2785 34.5213 19.7897 36.9796 22.1851 37.5511C24.5805 38.1226 27.0388 36.6114 27.6103 34.216C28.1818 31.8206 26.6706 29.3623 24.2752 28.7908Z" fill="#303036"/>
<path d="M25.8807 33.5852C25.4374 33.6241 25.1341 33.9857 25.173 34.429C25.2282 34.8039 25.453 35.0745 25.7268 35.1398C25.7952 35.1562 25.8637 35.1725 25.9321 35.1888C26.3754 35.1499 26.6787 34.7883 26.6398 34.345C26.6009 33.9017 26.2392 33.5984 25.7959 33.6373L25.8807 33.5852Z" fill="#303036"/>
<path d="M24.6837 30.4076C24.123 30.6355 23.9271 31.4567 24.2428 32.2554C24.4707 32.8162 24.8682 33.2727 25.3473 33.387C25.4841 33.4196 25.6895 33.4686 25.859 33.3644C26.4197 33.1365 26.6157 32.3152 26.2999 31.5165C25.9841 30.7178 25.3129 30.196 24.6837 30.4076Z" fill="#303036"/>
<path d="M45.6455 43.219C48.0646 43.7961 50.4936 42.303 51.0707 39.8839C51.6479 37.4648 50.1547 35.0358 47.7356 34.4587C45.3165 33.8815 42.8876 35.3747 42.3104 37.7938C41.7333 40.2129 43.2264 42.6418 45.6455 43.219Z" fill="#303036"/>
<path d="M44.1234 38.0826C44.5013 38.3175 44.6087 38.7771 44.3738 39.1551C44.1553 39.4646 43.8326 39.6046 43.5588 39.5393C43.4904 39.523 43.4219 39.5067 43.3535 39.4903C42.9755 39.2555 42.8682 38.7959 43.103 38.4179C43.3379 38.0399 43.7975 37.9326 44.1755 38.1674L44.1234 38.0826Z" fill="#303036"/>
<path d="M46.638 35.7161C47.0354 36.1726 46.8395 36.9939 46.1971 37.564C45.7406 37.9614 45.1799 38.1893 44.7008 38.075C44.5639 38.0423 44.3586 37.9934 44.2544 37.8238C43.8569 37.3673 44.0529 36.546 44.6952 35.9759C45.3376 35.4059 46.1721 35.2433 46.638 35.7161Z" fill="#303036"/>
<path d="M39.5805 36.4953C39.6195 36.9386 39.2866 37.7272 39.2213 38.001C38.4608 40.2789 36.0414 42.2335 33.5939 41.5772C30.7358 40.8229 29.828 37.3513 30.517 34.7669C30.5496 34.63 30.5823 34.4931 30.6149 34.3562C30.8334 34.0467 31.5342 34.1415 31.8243 34.1384C34.4351 34.1103 37.3585 34.5908 39.4927 36.2573C39.5611 36.2736 39.5969 36.4269 39.5805 36.4953Z" fill="#303036"/>
<path d="M32.3429 44.1011C28.4029 42.727 29.49 39.0803 31.8542 36.7509C31.9226 36.7672 32.0074 36.7151 32.0921 36.663C32.3138 36.6436 32.5518 36.5557 32.8419 36.5525C33.2851 36.5136 33.7969 36.4911 34.276 36.6054C34.8235 36.736 35.3026 36.8503 35.8501 36.9809C35.8501 36.9809 35.8501 36.9809 35.9185 36.9972C35.9185 36.9972 35.9185 36.9972 35.987 37.0136C36.0554 37.0299 36.1238 37.0462 36.1923 37.0626C36.466 37.1279 36.7071 37.3301 36.9482 37.5323C37.1372 37.6497 37.3783 37.8519 37.551 38.0378C37.9516 38.7843 38.1826 39.6352 38.192 40.5054C38.1416 43.7485 35.817 45.0023 33.1479 44.3655C32.8057 44.2838 32.5319 44.2185 32.206 44.0684L32.3429 44.1011Z" fill="#FF767A"/>
<path d="M33.1876 43.2898C33.1876 43.2898 33.1876 43.2898 33.1191 43.2735C33.1876 43.2898 33.3081 43.3909 33.3602 43.4757C33.3602 43.4757 33.4287 43.492 33.4971 43.5084C33.4287 43.492 33.3766 43.4073 33.3245 43.3225L33.1876 43.2898Z" fill="#FF5A5A"/>
<path d="M33.5114 41.6299L34.5074 37.4551C34.5074 37.4551 34.7096 37.214 34.8465 37.2466C34.9834 37.2793 35.0876 37.4488 35.055 37.5857L34.0589 41.7605C34.0589 41.7605 33.8567 42.0016 33.7198 41.969C33.5829 41.9363 33.4787 41.7668 33.5114 41.6299Z" fill="#FF5A5A"/>
<path d="M21.2118 24.9512C19.0061 22.9782 25.6173 20.4324 27.172 20.5864C28.6224 20.5707 28.6801 22.7546 27.2133 22.8386C25.6618 22.9748 24.1849 23.7075 22.9492 24.6423C22.5284 25.193 21.8308 25.3882 21.2118 24.9512Z" fill="#303036"/>
<path d="M52.216 32.3484C55.0748 31.5837 50.3251 26.3274 48.8684 25.7628C47.5812 25.094 46.5438 27.0166 47.8146 27.7538C49.1376 28.5758 50.1246 29.8963 50.8051 31.2884C50.9319 31.9697 51.4663 32.4588 52.216 32.3484Z" fill="#303036"/>
</svg>
