<svg width="458" height="36" viewBox="0 0 458 36" fill="none" xmlns="http://www.w3.org/2000/svg">
<path fill-rule="evenodd" clipRule="evenodd" d="M169.21 14.2796C166.412 14.8791 163.63 15.5156 160.864 16.1917C159.858 16.4375 159.243 17.453 159.487 18.4586L159.5 18.4982C144.523 18.7574 129.549 19.1596 114.582 19.7086C92.9611 20.5024 71.2031 21.8094 49.6562 23.8403C28.3628 25.8472 22.48 26.3634 4.16016 29.7202C3.63625 29.8162 2.62556 29.8102 2.08182 29.9623C1.56475 30.1067 1.19461 30.3585 0.956912 30.6049C0.652446 30.9174 0.477333 31.2771 0.403152 31.6709C0.324669 32.0999 0.348045 32.6242 0.716089 33.2098C1.75438 34.8536 3.43291 35.3049 5.48014 34.9583C7.24161 34.6597 9.37114 33.602 11.0397 33.4812C38.817 31.4718 66.5755 29.2436 94.3557 27.2745C136.884 24.2602 179.284 22.8384 221.689 21.9876C266.272 22.3768 310.832 23.9882 355.316 26.7276C384.287 28.5105 413.197 31.1585 442.131 33.4747C442.109 33.6021 442.105 33.7351 442.111 33.8707C442.174 34.9039 443.067 35.6911 444.1 35.6282C445.146 35.5643 454.486 35.2977 456.208 34.8731C457.195 34.6297 457.58 34.0207 457.708 33.7599C458.055 33.0447 458.075 32.2676 457.302 31.5264C457.149 31.3841 456.863 31.1492 456.339 30.9992C455.891 30.8676 454.78 30.7013 452.762 30.5482C420.356 28.0627 387.99 24.9825 355.547 22.9827C341.064 22.0928 326.571 21.3192 312.067 20.6723C331.753 20.4149 351.446 20.1229 371.171 19.696C372.02 19.6801 372.432 19.542 372.508 19.5094C373.591 19.0416 373.666 18.1858 373.646 17.7008C373.64 17.5277 373.495 16.0989 371.906 15.8985C370.975 15.7806 364.257 15.552 361.673 15.4152C349.252 14.7467 349.542 14.852 336.836 14.2751C308.895 13.0102 280.994 12.17 253.02 11.4916C241.866 11.2215 230.713 11.0045 219.557 10.8458C251.708 8.1046 284.524 8.21275 315.798 7.87213C331.931 7.6968 348.068 7.62188 364.2 7.82825C371.426 7.9209 378.65 8.13476 385.874 8.26353C388.119 8.30329 390.357 8.39556 392.599 8.44876C392.865 8.45478 396.344 8.48302 396.915 8.47051C398.409 8.43785 398.754 7.10679 398.767 7.05346C398.831 6.80298 399.078 5.01203 397.222 4.73592C370.397 0.745913 342.276 1.68463 315.181 1.03743C267.76 -0.0955089 220.212 0.154892 172.792 1.63352C151.818 2.28733 130.91 3.64874 109.965 5.00331C99.5048 5.67993 89.0165 6.39694 78.6554 8.04695C77.6159 8.21273 75.2602 8.38325 74.1175 8.57982C73.536 8.68018 73.122 8.83842 72.9323 8.94642C72.1014 9.41518 71.9359 10.1046 71.9225 10.5879C71.9141 10.9501 71.9908 12.2255 73.7023 12.615C98.1586 18.1872 125.3 14.5943 150.136 14.3805C156.494 14.3257 162.849 14.2924 169.21 14.2796ZM189.92 14.3103C182.553 15.437 175.258 16.7747 168.067 18.3663C185.947 18.122 203.828 18.0811 221.717 18.2378C251.227 17.6457 280.737 17.3293 310.283 16.9449C291.179 16.2447 272.069 15.7048 252.928 15.2409C231.933 14.7317 210.927 14.4124 189.92 14.3103ZM292.173 4.34649C252.425 3.76744 212.622 4.14312 172.911 5.3815C151.974 6.03436 131.111 7.39365 110.207 8.74569C101.981 9.27768 93.7331 9.83201 85.5493 10.8581C106.693 13.4595 129.223 10.8102 150.105 10.6306C163.293 10.5172 176.488 10.4951 189.678 10.5587C223.218 5.46647 258.254 4.69381 292.173 4.34649Z" fill="#F7E62D"/>
</svg>
