<svg width="24" height="24" viewBox="0 0 24 24" fill="none" xmlns="http://www.w3.org/2000/svg">
<path d="M11.9997 17.9556C8.09465 14.102 8.09465 7.85396 11.9997 4.0007C12 4.00037 12 4 12 4C15.9054 7.85396 15.9054 14.1023 12 17.9559M11.9997 17.9556L12 17.9559M11.9997 17.9556C9.82369 17.9556 7.72037 17.2559 5.99934 15.9819C4.53635 16.1872 3.12602 16.8454 2.00033 17.9563M11.9997 17.9556L11.9997 17.9563M11.9997 17.9556C14.176 17.9556 16.279 17.2559 18 15.9819C19.4633 16.1872 20.8737 16.8454 21.9993 17.9563C19.238 20.6812 14.761 20.6812 11.9997 17.9563M12 17.9559C14.652 17.9559 17.196 16.9164 19.0713 15.0658C20.9467 13.2151 22 10.7049 22 8.08785C19.348 8.08785 16.8044 9.12731 14.929 10.978C14.929 13.5954 13.8754 16.1052 12 17.9559ZM12 17.9559C9.34801 17.9559 6.80436 16.9164 4.929 15.0658C3.05369 13.2151 2 10.7049 2 8.08785L2.00033 8.08748C4.65232 8.08748 7.19603 9.12694 9.071 10.9776M12 17.9559C10.1247 16.1052 9.071 13.595 9.071 10.9776M9.071 10.9776C9.071 9.66909 9.33437 8.38718 9.83237 7.20133C8.91271 6.29377 7.8137 5.56318 6.58868 5.06251C6.58835 5.06251 6.58802 5.06222 6.58802 5.06222V5.06284C6.08071 6.27174 5.82702 7.55496 5.82669 8.83883C7.02868 9.32996 8.13337 10.0526 9.071 10.9776ZM11.9997 17.9563C9.23867 20.6812 4.76166 20.6812 2.00033 17.9563M2.00033 17.9563L2 17.9559M14.168 7.201C15.0874 6.29377 16.1867 5.56318 17.4117 5.06251L17.412 5.06222C17.412 5.06222 17.4123 5.06222 17.4123 5.06284C17.9197 6.27174 18.1737 7.55528 18.1737 8.83883C16.9713 9.32996 15.8667 10.0526 14.9294 10.9776C14.9294 9.66909 14.6657 8.38718 14.168 7.201Z" stroke="#FDFDFE" stroke-width="1.5" stroke-miterlimit="10" stroke-linecap="round" stroke-linejoin="round"/>
</svg>
