<svg width="24" height="24" viewBox="0 0 24 24" fill="none" xmlns="http://www.w3.org/2000/svg">
<path d="M13.6598 13.2863C13.6598 12.5988 14.2171 12.0415 14.9046 12.0415C15.592 12.0415 16.1494 12.5988 16.1494 13.2863M10.3402 13.2863C10.3402 12.5988 9.7829 12.0415 9.09544 12.0415C8.40797 12.0415 7.85062 12.5988 7.85062 13.2863M9.99812 17.0207C11.1046 18.1273 12.8953 18.1273 14.0019 17.0207M14.9046 4.48963C15.592 4.48963 16.1494 3.93228 16.1494 3.24481C16.1494 2.55734 15.592 2 14.9046 2C14.2171 2 13.6598 2.55734 13.6598 3.24481C13.6598 3.93228 14.2171 4.48963 14.9046 4.48963ZM14.9046 4.48963V7.06224M9.09544 4.48963C8.40797 4.48963 7.85062 3.93228 7.85062 3.24481C7.85062 2.55734 8.40797 2 9.09544 2C9.7829 2 10.3402 2.55734 10.3402 3.24481C10.3402 3.93228 9.7829 4.48963 9.09544 4.48963ZM9.09544 4.48963V7.06224M17.8506 20.3402H16.5643V22L13.6598 20.3402H6.14938C5.23274 20.3402 4.48963 19.5972 4.48963 18.6805V11.2116C4.48963 10.2949 5.23274 9.55187 6.14938 9.55187H17.8506C18.7673 9.55187 19.5104 10.2949 19.5104 11.2116V18.6805C19.5104 19.5972 18.7673 20.3402 17.8506 20.3402ZM21.1701 17.4357H19.5104V12.4564H21.1701C21.6285 12.4564 22 12.828 22 13.2863V16.6058C22 17.0641 21.6285 17.4357 21.1701 17.4357ZM4.48963 17.4357H2.82988C2.37154 17.4357 2 17.0641 2 16.6058V13.2863C2 12.828 2.37154 12.4564 2.82988 12.4564H4.48963V17.4357ZM15.7344 7.06224H8.26556C7.57809 7.06224 7.02075 7.61959 7.02075 8.30705V9.55187H16.9793V8.30705C16.9793 7.61959 16.4219 7.06224 15.7344 7.06224Z" stroke="#FDFDFE" strokeWidth="1.5" stroke-miterlimit="10" strokeLinecap="round" strokeLinejoin="round"/>
</svg>
