<svg width="24" height="24" viewBox="0 0 24 24" fill="none" xmlns="http://www.w3.org/2000/svg">
<path d="M15.3151 13.8912C16.2551 12.5273 16.7907 10.2696 16.4946 7.66799L13.989 8.46723C13.5252 8.6152 13.0186 8.53286 12.6255 8.24563C12.2324 7.95839 12 7.5008 12 7.01396V4.52542C12 3.68297 12.683 3 13.5254 3H16.1674C17.3974 3 18.507 3.73857 18.9818 4.87318C19.7972 6.8218 21 9.69459 21 12C21 14.4562 19.4746 18.1017 19.4746 18.1017C19.4746 18.1017 16.5763 21 10.4746 21C7.26653 21 3 18.1017 3 18.1017V12C4.70847 12 6.20339 12.9305 6.98136 14.3186C7.94237 12.9153 9.40678 12 11.2373 12C13.9266 12 16.1842 14.0043 16.5196 16.61" stroke="#FDFDFE" strokeWidth="2" stroke-miterlimit="10" strokeLinecap="round" strokeLinejoin="round"/>
</svg>
