<svg width="140" height="162" viewBox="0 0 140 162" fill="none" xmlns="http://www.w3.org/2000/svg">
<path d="M122.457 58.2507C122.64 59.2641 122.7 60.1415 121.967 60.8566C121.78 61.0364 121.85 61.1505 122.006 61.2909C122.397 61.6331 122.744 62.0191 123.069 62.4271C123.629 63.129 123.981 63.923 124.068 64.8267C124.116 65.3356 124.433 65.6997 124.741 66.0419C126.156 67.6037 127.419 69.3014 128.987 70.7271C129.946 71.6001 129.542 73.1794 128.301 73.583C128.092 73.6488 127.919 73.7059 127.845 73.9515C127.602 74.785 127.007 75.2281 126.199 75.4387C125.266 75.6844 124.311 75.6361 123.365 75.7019C122.384 75.7721 121.402 75.8511 120.443 76.0967C119.935 76.2283 119.601 76.7943 119.722 77.2944C119.831 77.7374 120.308 77.9612 120.864 77.8296C121.155 77.7594 121.424 77.6365 121.611 77.404C121.824 77.1408 122.032 77.1584 122.279 77.3207C122.535 77.4918 122.809 77.6365 123.043 77.8296C123.755 78.4174 123.847 78.9482 123.369 79.7467C123.161 80.0932 123.052 80.4573 123.061 80.8609C123.065 81.1198 123.074 81.383 123.082 81.6418C123.122 83.2474 122.466 83.8835 120.881 83.7782C120.786 83.7738 120.69 83.7651 120.591 83.7563C119.879 83.7095 119.458 83.3308 119.327 82.6201C119.297 82.4534 119.236 82.2998 119.093 82.2077C118.937 82.1024 118.772 81.9138 118.581 82.0015C118.368 82.098 118.411 82.3613 118.459 82.5323C118.828 83.9493 118.068 84.7828 117.005 85.4716C116.788 85.612 116.579 85.7655 116.384 85.9366C116.041 86.2349 115.794 86.5859 115.88 87.086C115.898 87.1825 115.924 87.2965 115.828 87.3536C115.724 87.415 115.655 87.3053 115.576 87.2527C115.003 86.8491 114.604 86.3095 114.331 85.6646C114.17 85.2917 113.992 84.9276 113.81 84.5635C113.688 84.3222 113.562 84.2257 113.397 84.5547C112.655 86.0682 111.379 87.1167 110.211 88.2617C109.981 88.4898 109.868 88.4108 109.777 88.1388C109.681 87.8581 109.651 87.5685 109.651 87.2746C109.651 87.0202 109.651 86.7701 109.586 86.4981C109.208 86.8798 108.947 87.3316 108.83 87.8142C108.479 89.2356 107.658 90.2972 106.499 91.1175C106.195 91.3325 106.1 91.5738 106.204 91.9511C106.482 92.9908 106.59 94.0656 106.686 95.136C106.786 96.259 107.176 97.2505 107.797 98.1717C108.153 98.6982 108.492 99.2334 108.822 99.7729C109.078 100.19 109.351 100.628 109.39 101.111C109.447 101.751 109.803 101.896 110.337 101.953C111.023 102.028 111.717 102.063 112.39 102.273C112.837 102.414 113.132 102.677 113.315 103.125C113.48 103.528 113.718 103.901 113.922 104.291C114.634 105.66 114.092 106.818 112.594 107.099C112.216 107.169 111.821 107.222 111.439 107.204C109.876 107.13 108.314 107.117 106.755 106.937C105.648 106.81 104.858 106.239 104.676 105.086C104.493 103.958 103.899 103.239 102.887 102.787C101.945 102.366 101.29 101.655 100.977 100.637C100.769 99.9616 100.321 99.4395 99.7788 99.014C97.8252 97.4742 96.6314 95.3729 95.5635 93.1838C95.1076 92.2494 94.1873 91.6308 93.1497 91.6615C91.3785 91.7142 89.9069 91.0605 88.7391 89.7181C88.2225 89.1259 87.797 89.0557 87.1328 89.4725C86.842 89.6567 86.5858 89.876 86.3818 90.1568C86.117 90.5253 85.8261 90.8807 85.6134 91.2843C84.3197 93.7322 82.8307 96.0528 81.2244 98.3033C80.469 99.3606 80.0002 100.558 79.896 101.879C79.8699 102.19 79.9221 102.339 80.2737 102.401C80.7208 102.48 81.0725 102.774 81.2374 103.212C81.346 103.497 81.5153 103.598 81.7975 103.655C82.3184 103.765 82.8133 103.971 83.2865 104.221C83.9333 104.559 84.1895 105.129 84.1721 105.836C84.1547 106.516 83.6815 106.853 83.1215 107.033C81.0334 107.696 78.9105 107.994 76.7356 107.52C75.9802 107.354 75.3073 107.003 74.7213 106.502C74.0484 105.928 73.9051 105.248 74.2698 104.441C74.3219 104.322 74.387 104.208 74.4478 104.094C74.7256 103.585 74.6373 103.152 74.183 102.796C73.5188 102.273 73.484 101.554 73.5882 100.799C73.6664 100.247 73.8487 99.7203 74.0788 99.2158C74.6605 97.9304 75.0425 96.6144 75.1467 95.1842C75.2943 93.1926 76.0236 91.315 76.4968 89.3891C76.5793 89.0557 76.6661 88.7267 76.7226 88.3889C76.8571 87.5422 76.6357 87.3053 75.7935 87.4062C75.1033 87.4896 74.4174 87.5729 73.7228 87.5817C71.2266 87.6212 68.7825 87.472 66.4426 86.3709C65.0621 85.7216 63.6425 85.1119 62.1491 84.7302C62.0579 84.7083 61.9668 84.66 61.893 84.603C60.6601 83.5984 59.4575 82.5631 58.5502 81.2294C58.4113 81.0232 58.3115 80.8171 58.3115 80.5538C58.3158 79.558 58.3115 78.5666 58.3115 77.5707C58.3115 77.483 58.2767 77.3777 58.4287 77.2768C58.7152 78.1849 58.9843 79.0798 59.2752 79.9704C59.6746 81.1856 59.349 81.0013 60.6601 81.0145C61.6802 81.0232 61.6846 81.0145 61.3764 80.0186C60.9639 78.6982 60.5515 77.3777 60.1217 76.0616C60.0176 75.737 60.0045 75.4431 60.1131 75.1141C60.5949 73.6444 61.0508 72.166 61.5326 70.6964C61.6629 70.306 61.6151 70.1174 61.155 70.1481C60.7686 70.1744 60.3822 70.17 59.9958 70.1481C59.6833 70.1305 59.5357 70.2665 59.4489 70.5648C59.1233 71.6396 58.776 72.7056 58.42 73.8243C58.268 73.6576 58.3158 73.5085 58.3115 73.3812C58.3071 72.4688 58.2984 71.5563 58.3115 70.6438C58.3158 70.2972 58.2073 70.1305 57.8426 70.1481C57.4562 70.17 57.0699 70.1612 56.6835 70.1481C56.3926 70.1393 56.206 70.2139 56.2581 70.5648C56.0106 70.5517 55.9759 70.2665 55.7632 70.249C55.6633 70.3543 55.7762 70.4244 55.8153 70.4903C56.1322 71.0211 56.2624 71.6001 56.2624 72.2143C56.2624 74.9517 56.2711 77.6936 56.2537 80.431C56.2537 80.8785 56.3796 81.0803 56.8224 81.0057C57.3824 80.9136 57.7211 81.1636 58.064 81.6111C58.8975 82.7078 59.9568 83.5633 61.1289 84.274C61.2678 84.3573 61.4024 84.445 61.537 84.5372C61.5587 84.5503 61.563 84.5898 61.563 84.5898C60.2997 85.2215 59.7397 86.4279 59.1971 87.6124C58.7586 88.5775 58.6457 89.6523 58.4504 90.692C58.1899 92.0914 57.7254 93.3944 56.8875 94.5481C56.792 94.6797 56.7139 94.8245 56.6357 94.9649C55.837 96.3687 55.9412 97.5225 57.0959 98.6323C58.051 99.5492 59.0885 100.392 60.1261 101.216C60.9466 101.874 61.9364 102.028 62.9609 101.988C63.3169 101.975 63.6685 101.944 64.0245 101.94C65.418 101.923 66.7291 103.322 66.6509 104.739C66.6205 105.305 66.3167 105.678 65.8261 105.906C65.4094 106.099 64.9622 106.195 64.5107 106.195C63.0347 106.195 61.5891 106.467 60.1348 106.66C59.4141 106.757 58.6891 106.748 57.9642 106.638C57.3564 106.546 56.8615 106.279 56.4968 105.783C55.9759 105.072 55.2856 104.585 54.5346 104.155C52.4812 102.984 50.7447 101.4 48.9995 99.8256C48.6045 99.4659 48.2442 99.0667 47.8578 98.6981C47.0156 97.891 46.7551 96.8907 46.8854 95.7545C46.9331 95.3158 46.9765 94.8771 47.0547 94.4472C47.3542 92.7583 47.1328 91.1 46.7291 89.4637C46.5685 88.8144 46.3384 88.1783 45.7393 87.7791C45.5613 87.6607 45.6177 87.5422 45.7046 87.4106C47.7579 84.3003 50.3627 81.927 54.0874 81.089C54.4304 81.0101 54.7907 81.0232 55.1467 80.9969C55.4202 80.975 55.6199 80.9223 55.468 80.5626C55.4159 80.4398 55.4506 80.2731 55.4506 80.1283C55.4506 77.3426 55.4506 74.5525 55.4506 71.7668C55.4506 70.5824 55.0165 70.1437 53.8443 70.1437C53.102 70.1437 52.3596 70.1349 51.6173 70.1437C50.7491 70.1568 50.2802 70.635 50.2802 71.5168C50.2802 74.4999 50.2845 77.483 50.2715 80.4661C50.2715 80.8653 50.38 81.0013 50.7881 81.0057C52.3336 81.0232 52.3336 81.0364 52.3336 79.4966C52.3336 79.0711 52.3466 78.6499 52.3336 78.2244C52.3206 77.8076 52.6071 77.8603 52.8632 77.8559C53.128 77.8515 53.3842 77.834 53.3711 78.2419C53.3538 78.9921 53.3581 79.7423 53.3711 80.4924C53.3711 80.7381 53.2626 80.839 53.0412 80.8829C49.3555 81.6637 47.0547 84.059 45.5352 87.4018C45.1879 88.1695 44.6106 88.7223 43.7727 88.9548C43.1649 89.1215 42.5441 89.2268 41.919 89.3058C40.6601 89.4593 39.8005 90.1744 39.1493 91.2228C38.3853 92.4512 37.3955 93.4031 35.9542 93.7365C34.1135 94.1621 33.0369 95.4036 32.4378 97.1101C31.9559 98.4788 31.6824 99.9046 31.5522 101.357C31.4784 102.19 31.5695 102.247 32.3553 101.958C34.552 101.146 37.1827 103.243 36.8441 105.542C36.7399 106.257 36.3926 106.836 35.6677 107.007C33.6316 107.49 31.5782 107.766 29.4901 107.406C28.2919 107.2 27.5062 106.529 27.2717 105.274C27.1632 104.682 27.0156 104.098 26.8897 103.506C26.7074 102.633 26.4078 101.822 25.8782 101.093C25.3225 100.33 25.2097 99.4439 25.2965 98.5314C25.3616 97.8164 25.4614 97.1057 25.5656 96.3994C25.7089 95.3992 25.6394 94.4297 25.3269 93.4602C24.8927 92.1046 25.2878 91.293 26.5858 90.7227C27.1024 90.4946 27.6364 90.3016 28.153 90.0822C28.344 89.9989 28.5307 89.898 28.509 89.6216C28.3527 87.5861 28.9995 85.7348 29.7896 83.9142C30.2759 82.7956 30.7273 81.6593 31.079 80.488C31.5478 78.9351 32.4031 77.6014 33.2756 76.2634C34.4912 74.399 35.7154 72.5389 36.4751 70.4157C36.6184 70.0208 36.8398 69.6523 37.0395 69.2795C37.2739 68.8364 37.2522 68.7925 36.7616 68.8013C35.5504 68.8232 34.3436 68.8452 33.1324 68.8627C30.1326 68.9066 27.1328 68.9066 24.133 69.0075C20.5385 69.1259 17.2261 70.1788 14.4347 72.5258C12.1078 74.4823 11.1181 77.0443 11.5652 80.102C11.7996 81.6944 12.8111 82.8263 13.9138 83.8791C14.4782 84.4187 15.0859 84.9013 15.8239 85.1864C16.0974 85.2917 16.3232 85.2786 16.5923 85.1031C17.3694 84.5898 18.1942 84.7126 19.006 85.0197C19.5096 85.2084 19.9568 85.4979 20.3909 85.8138C22.1968 87.1255 23.7553 88.7004 25.2227 90.3806C25.3963 90.5823 25.5179 90.7403 25.1315 90.8368C23.4905 91.2492 21.8582 91.7054 20.1391 91.6615C18.6457 91.622 17.2826 91.1702 16.0236 90.3937C15.2292 89.9024 14.7473 89.1654 14.6996 88.1871C14.6822 87.8844 14.6388 87.63 14.2915 87.494C10.0024 85.8006 8.21812 82.2691 8.48727 77.7725C8.71736 73.9208 10.6318 71.2404 13.7749 69.2488C16.8528 67.301 20.2216 66.3139 23.7814 65.8577C26.5033 65.5111 29.2426 65.397 31.9776 65.1909C35.3204 64.9364 38.6153 64.4188 41.7584 63.1904C46.0605 61.5058 50.5103 60.9311 55.099 61.2382C58.6544 61.4795 62.2142 61.6462 65.774 61.8305C69.5639 62.0279 73.3147 61.6857 77.0438 61.032C79.9524 60.5232 82.8697 60.102 85.7827 59.6238C87.8361 59.2861 89.629 58.4745 91.283 57.2593C91.4784 57.1189 91.6954 56.9741 91.8213 56.7767C93.1367 54.728 95.1597 54.1885 97.3868 54.1051C98.2854 54.07 99.1884 54.0832 100.078 54.3069C100.69 54.4604 101.255 54.2455 101.802 53.9779C102.687 53.5436 103.556 53.0786 104.472 52.7057C105.574 52.2538 106.707 52.1222 107.884 52.3152C108.791 52.4644 109.681 52.2626 110.575 52.1178C111.552 51.9599 112.525 51.8546 113.51 52.052C114.391 52.2275 115.064 52.6794 115.425 53.5304C115.616 53.9867 115.902 54.2806 116.41 54.3508C118.068 54.5877 118.828 55.7677 119.306 57.2154C119.479 57.7375 119.54 58.299 119.709 58.8254C119.983 59.6721 120.66 59.8695 121.389 59.365C121.793 59.0843 122.045 58.6543 122.453 58.2288L122.457 58.2507ZM92.6418 66.4982C92.2685 67.3361 92.1599 68.2222 92.0601 69.1084C91.9516 70.091 91.9472 70.0998 90.9487 70.1481C90.6666 70.1612 90.5494 70.249 90.5494 70.5473C90.558 73.9033 90.5537 77.2637 90.5494 80.6197C90.5494 80.8873 90.6362 81.0101 90.9097 81.0057C92.1209 81.0013 93.3277 81.0232 94.5389 80.9925C95.1728 80.975 95.5982 80.5231 95.7111 79.887C95.7328 79.7554 95.6677 79.5931 95.8196 79.4703C96.2277 79.8081 96.7226 80.0537 96.6314 80.7337C96.5923 81.0145 96.8441 81.0013 97.0395 81.0145C97.3564 81.0364 97.682 80.9531 97.9728 81.168C99.0104 81.9401 100.078 82.6771 101.099 83.4755C102.683 84.7214 103.829 86.2832 104.281 88.3011C104.571 89.6084 104.506 90.8631 103.66 91.9774C103.517 92.166 103.356 92.3327 103.139 92.5828C104.116 92.6618 104.849 92.3108 105.548 91.8546C105.118 91.6528 104.758 92.0256 104.289 91.9467C104.784 91.1702 105.023 90.3674 105.014 89.5032C104.993 87.3624 104.168 85.5418 102.744 83.9976C101.672 82.835 100.378 81.9313 99.0842 81.0408C98.7847 80.8346 98.6674 80.6109 98.6674 80.2424C98.6805 77.9261 98.6718 75.6142 98.6718 73.2979C98.6718 73.1531 98.637 73.004 98.7543 72.8548C99.1971 73.1268 99.4836 73.4295 99.4662 74.0393C99.4185 75.8467 99.4489 77.6585 99.4489 79.4659C99.4489 81.0671 99.4489 81.0583 101.042 81.0232C101.437 81.0145 101.537 80.8522 101.528 80.4924C101.511 79.7774 101.541 79.0579 101.52 78.3428C101.507 77.9656 101.663 77.869 102.006 77.869C102.349 77.869 102.557 77.9349 102.548 78.3428C102.531 79.0755 102.557 79.8081 102.54 80.5451C102.531 80.8741 102.635 81.032 102.978 81.0189C103.382 81.0057 103.786 81.0057 104.189 81.0189C104.524 81.032 104.645 80.8872 104.637 80.5538C104.624 79.7072 104.628 78.8605 104.637 78.0094C104.637 77.8691 104.567 77.6804 104.706 77.6014C104.858 77.5137 104.962 77.6936 105.066 77.7813C106.13 78.685 107.124 79.6633 108.018 80.7381C109.056 81.984 109.772 83.3571 109.664 85.0504C109.655 85.1645 109.62 85.318 109.803 85.3751C109.981 85.1777 109.959 84.9232 109.972 84.6863C110.063 83.3615 109.659 82.1858 108.93 81.0978C107.862 79.5054 106.555 78.1367 105.092 76.9215C104.745 76.6319 104.615 76.3336 104.624 75.8818C104.65 74.4473 104.637 73.0127 104.632 71.5782C104.628 70.6526 104.146 70.17 103.221 70.1612C102.479 70.1525 101.737 70.1612 100.994 70.1612C99.9047 70.1612 99.4619 70.6087 99.4489 71.6967C99.4489 71.8853 99.5096 72.0871 99.3447 72.267C98.8932 72.0388 98.5893 71.7361 98.6718 71.1702C98.6978 71.0123 98.6588 70.8412 98.6761 70.6833C98.7239 70.2753 98.5415 70.091 98.1508 70.17C97.2913 70.3411 96.7877 69.92 96.4361 69.1917C96.2667 68.8408 96.0497 68.5117 95.8977 68.1564C95.0555 66.1955 95.0729 64.1555 95.4245 62.1068C95.698 60.5144 96.4057 59.1808 97.8383 58.3341C97.8904 58.3034 97.9207 58.2464 97.9642 58.2025C97.8469 58.1104 97.7601 58.1893 97.682 58.2244C96.9874 58.5403 96.4447 59.0404 95.9932 59.6502C95.2683 60.6328 94.9557 61.769 94.7734 62.9579C94.3566 65.6602 94.7126 68.1915 96.4013 70.4201C96.5836 70.6613 96.6097 70.9202 96.6097 71.1965C96.6097 73.6269 96.6097 76.0529 96.6097 78.4832C96.6097 78.549 96.614 78.6148 96.6097 78.6806C96.5967 78.7859 96.6488 78.9263 96.5098 78.9789C96.4057 79.0184 96.3405 78.9131 96.2624 78.8561C95.8847 78.5841 95.7024 78.2551 95.7111 77.7462C95.7415 75.6931 95.7284 73.6401 95.7197 71.5826C95.7197 70.6526 95.2292 70.1744 94.3045 70.1656C93.9008 70.1612 93.497 70.1656 93.0933 70.1656C92.4031 70.1656 92.4074 70.1656 92.3987 69.4637C92.3857 68.4723 92.5072 67.4896 92.6375 66.5069L92.6418 66.4982ZM84.5628 70.4025C84.5628 70.6262 84.5628 70.7886 84.5628 70.9509C84.5628 73.8506 84.5628 76.7548 84.5628 79.6545C84.5628 80.567 85.0215 81.0232 85.939 81.0232C86.3992 81.0232 86.6292 80.7922 86.6292 80.3301C86.6292 79.4352 86.6292 78.5359 86.6292 77.6409C86.9114 78.2902 87.0981 78.9438 87.2848 79.6019C87.7059 81.0803 87.7059 81.0715 89.2513 81.032C89.5899 81.0232 89.7419 80.9311 89.7419 80.5582C89.7332 77.2505 89.7332 73.9428 89.7419 70.6306C89.7419 70.3016 89.6377 70.1481 89.2991 70.1656C88.9431 70.1832 88.5871 70.1919 88.2355 70.1656C87.8014 70.1305 87.6364 70.2797 87.6538 70.7403C87.6885 71.6396 87.6624 72.5389 87.6624 73.5041C87.5843 73.4163 87.5539 73.3944 87.5452 73.3681C87.3542 72.7451 87.1675 72.1222 86.9809 71.4992C86.7204 70.6277 86.1343 70.1846 85.2227 70.17C85.1923 70.17 85.1576 70.17 85.1272 70.17C84.7799 70.1919 84.7321 70.0735 84.9275 69.784C85.4918 68.9329 85.8174 67.9809 86.0649 66.9983C86.5294 65.1558 86.69 63.2299 87.5583 61.5014C87.6147 61.3874 87.6451 61.2558 87.5583 61.1286C87.3629 61.111 87.2761 61.2646 87.1806 61.3874C86.5294 62.2735 86.0345 63.2387 85.8391 64.3354C85.6221 65.555 85.4267 66.7789 85.0621 67.9634C84.8407 68.6828 84.5541 69.3716 84.1287 69.9945C84.0462 70.1174 83.9898 70.3148 83.7727 70.249C83.2518 70.091 82.7178 70.2183 82.1882 70.17C81.8148 70.1349 81.715 70.3104 81.728 70.6613C81.7497 71.2229 81.728 71.7844 81.728 72.3459C81.728 74.7587 81.728 77.1715 81.728 79.5843C81.728 81.0496 81.728 81.032 83.1649 81.0496C83.6468 81.054 83.8074 80.9136 83.8031 80.4135C83.7814 77.5444 83.8161 74.6754 83.777 71.8063C83.7684 71.1658 84.0028 70.7666 84.5672 70.4201L84.5628 70.4025ZM45.8912 74.7412C45.6698 74.6271 45.6828 74.4429 45.6351 74.2981C45.3269 73.3549 45.0317 72.4073 44.7365 71.4598C44.4615 70.5853 43.8682 70.1495 42.9566 70.1525C42.3097 70.1525 42.3054 70.1525 42.3054 70.7973C42.3054 73.8287 42.2967 76.8601 42.3054 79.8914C42.3054 81.1856 42.1361 80.9969 43.3994 81.0101C44.3631 81.0189 44.3631 81.0101 44.3631 80.023C44.3631 79.036 44.3631 78.0489 44.3631 77.0662C44.6366 77.5137 44.5498 78.1761 44.9318 78.4218C45.3355 78.6806 45.939 78.4701 46.4512 78.5008C46.7334 78.5183 46.855 78.3911 46.9158 78.1279C47.0069 77.7374 47.1198 77.3514 47.224 76.961C47.2978 78.1542 47.3108 79.3387 47.2934 80.5231C47.2891 80.8741 47.3846 81.0364 47.7536 81.0145C48.1226 80.9925 48.496 80.9925 48.865 81.0145C49.2513 81.0364 49.3599 80.8697 49.3599 80.4968C49.3512 77.2198 49.3468 73.9428 49.3599 70.6657C49.3599 70.249 49.2036 70.1174 48.8215 70.1437C48.4829 70.1656 48.1443 70.1656 47.8057 70.1437C47.4627 70.1217 47.2804 70.2402 47.1849 70.5912C46.9809 71.3282 46.7378 72.052 46.5077 72.7846C46.3036 73.4295 46.0996 74.0744 45.8912 74.7324V74.7412ZM76.1539 73.3505C76.1235 73.3549 76.0888 73.3637 76.0584 73.3681C75.8717 72.7539 75.685 72.1397 75.4983 71.5256C75.0859 70.1437 75.0859 70.1612 73.6707 70.1437C73.1845 70.1393 73.0412 70.2841 73.0412 70.7798C73.0629 73.8287 73.0412 76.8776 73.0542 79.9221C73.0542 81.1417 72.8502 81.0057 74.1309 81.0101C75.3073 81.0101 75.1163 81.111 75.1293 79.9879C75.138 79.2071 75.1293 78.4218 75.1293 77.6409C75.4115 78.2726 75.5939 78.9131 75.7762 79.5536C76.2103 81.0671 76.2103 81.0583 77.7688 81.0189C78.1161 81.0101 78.2594 80.9004 78.2507 80.5363C78.2333 79.7379 78.2507 78.9395 78.2507 78.141C78.2507 75.6624 78.242 73.1838 78.255 70.7096C78.255 70.2885 78.1335 70.1086 77.7037 70.1481C77.3824 70.1788 77.0568 70.1744 76.7356 70.1481C76.3102 70.1174 76.1235 70.249 76.1408 70.7184C76.1756 71.5914 76.1495 72.4688 76.1495 73.3418L76.1539 73.3505ZM61.9234 75.5747C61.9234 77.2198 61.9234 78.8649 61.9234 80.51C61.9234 80.7995 61.9494 81.0189 62.3271 81.0189C63.7944 81.0101 65.2617 81.0101 66.7247 81.0189C67.0156 81.0189 67.1241 80.8872 67.1111 80.6021C67.0981 80.2292 67.0851 79.8519 67.1111 79.479C67.1458 79.0623 67.0113 78.8956 66.5728 78.9131C65.8652 78.9438 65.1532 78.9131 64.4456 78.9175C64.1808 78.9175 64.0071 78.8342 64.0115 78.5359C64.0115 78.0138 64.0115 77.4918 64.0115 76.9741C64.0115 76.7416 64.1243 76.6232 64.3718 76.6276C64.8233 76.6363 65.2748 76.6276 65.7263 76.6276C66.2269 76.6276 66.4773 76.3819 66.4773 75.8906C66.4773 75.5791 66.4643 75.272 66.4773 74.9605C66.4947 74.6403 66.3471 74.5306 66.0432 74.535C65.5135 74.5481 64.9796 74.5218 64.4499 74.5394C64.107 74.5525 63.9898 74.4034 63.9985 74.0744C64.0115 73.6181 64.0158 73.1619 63.9985 72.7056C63.9854 72.3371 64.1461 72.2275 64.4934 72.2362C65.2183 72.2538 65.9433 72.2362 66.6683 72.245C66.9722 72.2494 67.1111 72.1397 67.0981 71.8195C67.0807 71.4291 67.0764 71.0386 67.0981 70.6482C67.1241 70.249 66.9461 70.1481 66.5858 70.1525C65.201 70.1656 63.8118 70.17 62.4269 70.1525C62.0275 70.1481 61.8973 70.2928 61.9016 70.692C61.919 72.3196 61.9103 73.9471 61.9103 75.5791L61.9234 75.5747ZM72.2902 75.6449C72.2902 73.9866 72.2815 72.324 72.2989 70.6657C72.2989 70.2841 72.1817 70.1305 71.7996 70.1525C71.4133 70.1744 71.0269 70.1656 70.6405 70.1525C70.367 70.1481 70.2324 70.2358 70.2324 70.5429C70.2411 73.8945 70.2411 77.2461 70.2324 80.6021C70.2324 80.8916 70.3323 81.0189 70.6232 81.0145C71.0095 81.0057 71.3959 80.9925 71.7823 81.0189C72.1903 81.0452 72.3032 80.8653 72.2989 80.4749C72.2815 78.8649 72.2902 77.2505 72.2902 75.6405V75.6449ZM118.377 81.7953C118.416 81.6506 118.442 81.6067 118.437 81.5585C118.433 81.4444 118.416 81.3303 118.398 81.2207C118.216 79.8826 117.586 78.7991 116.566 77.9392C115.985 77.4523 115.372 76.9961 114.808 76.4872C113.788 75.5659 113.367 74.4078 113.514 73.0259C113.619 72.0564 113.992 71.1702 114.331 70.2753C114.678 69.3628 115.073 68.4679 115.229 67.494C115.312 66.9895 115.416 66.4762 115.207 65.9586C115.064 67.2264 114.574 68.367 114.031 69.4856C113.588 70.3893 113.141 71.2974 112.907 72.2889C112.468 74.1138 112.855 75.7063 114.265 76.996C114.843 77.5225 115.503 77.9349 116.119 78.4043C116.996 79.0667 117.656 79.8826 117.982 80.9531C118.064 81.2207 118.125 81.5102 118.377 81.7953ZM113.81 67.2132C113.046 66.2525 113.232 65.4102 113.827 64.5855C114.14 64.1511 114.552 63.8485 115.038 63.6467C115.533 63.4405 116.058 63.3352 116.579 63.2255C117.417 63.05 118.264 62.9053 119.028 62.4973C119.475 62.2604 119.892 61.9708 120.109 61.4576C119.214 62.0981 118.181 62.2648 117.148 62.4052C116.558 62.4841 115.963 62.5631 115.39 62.721C114.135 63.0632 113.232 63.8002 112.889 65.1163C112.655 66.0112 113.028 66.9456 113.814 67.2132H113.81ZM79.3924 81.6155C79.0364 81.6637 78.8498 81.8392 78.6805 82.0235C78.4374 82.2867 78.255 82.5938 78.1291 82.9359C77.7167 84.0678 77.708 85.2347 77.8383 86.4104C77.9381 87.3185 78.0206 88.2222 77.8947 89.1347C77.7992 89.8103 77.708 90.4902 77.6299 91.1658C77.6038 91.3895 77.6299 91.6177 77.6299 91.8458C77.8426 91.5211 77.9598 91.2009 78.077 90.8807C78.624 89.354 78.7977 87.8054 78.5936 86.1735C78.4026 84.6249 78.2029 83.0149 79.4011 81.6155H79.3924ZM93.0803 83.7475C92.9283 83.7914 92.898 83.9318 92.8415 84.0415C92.1426 85.3839 91.1398 86.4279 89.8721 87.2351C89.412 87.5291 88.9822 87.88 88.548 88.2134C88.4308 88.3055 88.2094 88.4108 88.318 88.5819C88.4178 88.7398 88.6175 88.5951 88.7564 88.5337C89.2296 88.3319 89.7115 88.1388 90.163 87.8976C91.6433 87.1079 92.6592 85.9278 93.0586 84.2564C93.0976 84.0897 93.1888 83.9274 93.0759 83.7475H93.0803Z" fill="#FDFDFE"/>
<path d="M52.3462 74.0178C52.3462 73.5615 52.3636 73.1053 52.3419 72.6534C52.3202 72.2235 52.5806 72.2455 52.8715 72.2367C53.1797 72.2323 53.3968 72.263 53.3838 72.671C53.3621 73.5615 53.3577 74.4565 53.3838 75.3514C53.3968 75.7594 53.1884 75.7945 52.8758 75.7945C52.5502 75.7945 52.3071 75.7725 52.3375 75.3338C52.3679 74.8995 52.3462 74.4565 52.3462 74.0178Z" fill="#FDFDFE"/>
<path d="M92.6202 74.583C92.9718 75.2674 93.3018 75.921 93.5535 76.601C93.7967 77.259 93.6577 77.9873 93.623 78.6804C93.6056 79.027 93.2497 78.8997 93.0283 78.9129C92.8069 78.9261 92.6158 78.8778 92.6202 78.5751C92.6289 77.2459 92.6202 75.9166 92.6202 74.5874V74.583Z" fill="#FDFDFE"/>
<path d="M102.544 73.5299C102.544 73.6615 102.561 73.7931 102.544 73.916C102.496 74.1792 102.709 74.5257 102.383 74.6924C102.218 74.7758 101.541 74.0519 101.537 73.8151C101.528 73.4115 101.541 73.0079 101.532 72.5999C101.524 72.227 101.771 72.2445 102.019 72.2445C102.275 72.2445 102.557 72.2007 102.548 72.6086C102.54 72.9157 102.548 73.2228 102.548 73.5299H102.544Z" fill="#FDFDFE"/>
<path d="M93.6442 74.9388C93.2014 74.2281 92.9713 73.4604 92.7976 72.6708C92.7586 72.4865 92.6631 72.2452 92.9887 72.254C93.2361 72.2628 93.6312 72.0742 93.6398 72.5655C93.6572 73.3551 93.6442 74.1448 93.6442 74.9344V74.9388Z" fill="#FDFDFE"/>
<path d="M10.8878 110.898L15.203 118.615L12.5809 120.124L9.89364 115.329L8.16584 116.303L10.5882 120.629L8.10072 122.072L5.67832 117.746L1.62796 120.063L0 117.145L10.8878 110.907V110.898Z" fill="#FDFDFE"/>
<path d="M10.5228 123.177C13.3793 120.76 17.0954 121.063 19.253 123.647C21.4453 126.231 21.111 130.021 18.2892 132.434C15.4674 134.851 11.7166 134.548 9.55901 131.964C7.40142 129.38 7.70097 125.59 10.5228 123.177ZM16.1663 129.92C17.6597 128.643 17.7943 126.902 16.8306 125.726C15.8668 124.585 14.1086 124.419 12.65 125.691C11.1566 126.968 11.022 128.709 11.9858 129.885C12.9495 131.025 14.7077 131.192 16.1663 129.92Z" fill="#FDFDFE"/>
<path d="M24.9321 130.289L29.6771 134.044C31.6349 135.588 31.9692 138.102 30.3413 140.217C28.913 142.064 27.055 142.296 25.4617 141.726L25.6267 146.758L22.475 144.275L22.31 139.379L22.1754 139.278L19.8833 142.23L17.2959 140.217L24.9321 130.289ZM26.0261 138.541C26.4906 138.909 27.2547 138.808 27.7539 138.172C28.2184 137.536 28.1533 136.795 27.654 136.396L25.631 134.821L23.9727 136.935L26.0304 138.545L26.0261 138.541Z" fill="#FDFDFE"/>
<path d="M41.3939 145.318L38.4072 143.941L39.7356 141.023L48.6655 145.116L47.3371 148.034L44.3807 146.656L40.5952 155.11L37.6084 153.767L41.3939 145.314V145.318Z" fill="#FDFDFE"/>
<path d="M50.7576 145.788L53.944 146.56L52.8804 150.956L56.8309 151.93L57.8598 147.503L61.0463 148.311L58.1246 160.388L54.9729 159.616L56.0365 155.119L52.1207 154.18L51.0267 158.677L47.875 157.905L50.7619 145.797L50.7576 145.788Z" fill="#FDFDFE"/>
<path d="M63.4378 148.336L72.0681 148.841L71.9031 151.894L66.5244 151.561L66.4245 153.338L71.4386 153.64L71.2737 156.492L66.2596 156.189L66.125 157.966L71.5341 158.299L71.3344 161.317L62.7041 160.813L63.4334 148.332L63.4378 148.336Z" fill="#FDFDFE"/>
<path d="M79.1059 148.705L82.5268 147.766L85.8131 153.737L86.143 153.671L85.9433 146.827L89.1949 145.924L92.4812 151.929L92.8111 151.828L92.6114 144.985L96.0627 144.046L96.3926 156.961L92.542 158.036L89.2904 152.065L88.9605 152.131L89.1254 158.975L85.2748 160.014L79.1016 148.709L79.1059 148.705Z" fill="#FDFDFE"/>
<path d="M100.717 148.841C98.9583 145.555 100.052 141.932 103.009 140.322C105.965 138.747 109.547 139.852 111.309 143.138C113.037 146.459 111.939 150.047 108.987 151.657C106.03 153.232 102.449 152.162 100.721 148.841H100.717ZM108.418 144.678C107.489 142.967 105.83 142.462 104.502 143.169C103.174 143.875 102.674 145.551 103.608 147.297C104.502 149.043 106.165 149.543 107.493 148.841C108.822 148.104 109.321 146.424 108.422 144.682L108.418 144.678Z" fill="#FDFDFE"/>
<path d="M109.747 136.426L114.327 132.5C116.219 130.89 118.707 131.092 120.4 133.136C121.893 134.913 121.728 136.79 120.864 138.234L125.744 139.107L122.722 141.691L117.943 140.853L117.808 140.954L120.231 143.84L117.708 145.955L109.742 136.426H109.747ZM117.912 137.067C118.377 136.663 118.442 135.891 117.912 135.29C117.413 134.685 116.649 134.619 116.185 135.022L114.227 136.698L115.954 138.712L117.912 137.067Z" fill="#FDFDFE"/>
<path d="M119.14 128.275L121.263 125.762L128.265 131.767L131.751 127.609L134.174 129.688L128.595 136.365L119.136 128.28L119.14 128.275Z" fill="#FDFDFE"/>
<path d="M125.943 119.892L128.266 115.733C129.994 112.662 133.645 111.64 136.766 113.416C139.887 115.193 140.881 118.883 139.158 121.971L136.835 126.13L125.948 119.892H125.943ZM136.401 120.26C137.165 118.953 136.701 117.207 135.138 116.334C133.58 115.43 131.852 115.899 131.122 117.237L130.358 118.58L135.668 121.598L136.397 120.256L136.401 120.26Z" fill="#FDFDFE"/>
<path d="M3.58594 37.6544L6.60743 33.7632L13.2148 36.2462L13.4492 35.9611L9.43356 30.0914L12.4203 26.2002L22.2141 33.8992L20.2215 36.5138L14.8775 32.3375L14.6778 32.6226L18.6934 38.4923L16.9352 40.756L10.3279 38.273L10.0934 38.5582L15.4027 42.7345L13.4101 45.3491L3.58594 37.6501V37.6544Z" fill="#FDFDFE"/>
<path d="M18.5547 20.3962L22.0407 17.3955L33.228 24.2391L30.5061 26.5379L28.6133 25.3622L25.2271 28.2487L26.0563 30.3457L23.3691 32.6444L18.5547 20.4005V20.3962ZM26.091 23.7478L22.8395 21.6333L22.5747 21.8702L24.1028 25.4938L26.0954 23.7478H26.091Z" fill="#FDFDFE"/>
<path d="M28.6826 12.6794L32.7981 10.4465C35.85 8.81893 39.4358 9.91128 41.0985 13.0611C42.7569 16.1977 41.6629 19.8213 38.611 21.462L34.4955 23.6774L28.687 12.675L28.6826 12.6794ZM37.2131 18.5842C38.5415 17.8779 39.0408 16.1846 38.2073 14.6097C37.3781 13.0479 35.7197 12.5303 34.3913 13.2497L33.0629 13.956L35.8847 19.3081L37.2131 18.5886V18.5842Z" fill="#FDFDFE"/>
<path d="M42.3227 5.49801L50.6882 2.66406L51.6824 5.59891L46.4382 7.35807L47.0025 9.08651L51.8821 7.44142L52.8111 10.2096L47.9316 11.8547L48.4959 13.5831L53.7097 11.8371L54.7039 14.772L46.3036 17.5884L42.3184 5.49363L42.3227 5.49801Z" fill="#FDFDFE"/>
<path d="M62.2402 0.953088L65.4918 0.650391L66.5858 13.1312L63.3342 13.4163L62.2402 0.953088Z" fill="#FDFDFE"/>
<path d="M70.6405 0.317383L74.426 0.536729L77.4128 7.16098L77.7427 7.17853L78.1421 0.769236L81.3937 0.953486L80.6643 13.4343L76.8788 13.1974L73.892 6.59068L73.5274 6.57313L73.1627 12.9824L69.9111 12.7982L70.6405 0.317383Z" fill="#FDFDFE"/>
<path d="M93.0147 3.43652L96.2011 4.41042L92.5502 16.5183L89.3984 15.5444L93.0147 3.43652Z" fill="#FDFDFE"/>
<path d="M100.651 5.91992L104.103 7.61327L104.367 14.9614L104.697 15.1105L107.484 9.25837L110.471 10.7192L105.027 22.0901L101.541 20.3968L101.307 13.0487L100.977 12.8995L98.1899 18.7517L95.2031 17.2908L100.647 5.91992H100.651Z" fill="#FDFDFE"/>
<path d="M115.255 13.8682L118.971 16.7855C121.693 18.9307 122.158 22.7078 120 25.5242C117.808 28.3582 114.057 28.8276 111.335 26.6824L107.619 23.7651L115.255 13.8682ZM113.363 24.1994C114.556 25.1206 116.319 24.9057 117.378 23.4931C118.472 22.0849 118.272 20.3213 117.079 19.3825L115.885 18.4437L112.169 23.2562L113.363 24.195V24.1994Z" fill="#FDFDFE"/>
<path d="M126.972 23.4629L129.264 25.8801L120.2 34.6846L117.877 32.2674L126.972 23.4629Z" fill="#FDFDFE"/>
<path d="M134.014 31.6973L136.701 35.5051L129 46.2882L126.907 43.3533L128.236 41.5064L125.648 37.8521L123.491 38.5233L121.398 35.5885L134.014 31.6973ZM130.029 39.1112L132.421 35.957L132.221 35.6543L128.505 36.8958L130.033 39.1112H130.029Z" fill="#FDFDFE"/>
</svg>
