<svg width="112" height="58" viewBox="0 0 112 58" fill="none" xmlns="http://www.w3.org/2000/svg">
<path d="M0.59375 28.99L29.3738 0.23999C13.4838 0.23999 0.59375 13.12 0.59375 28.99Z" fill="#D12229"/>
<path d="M29.3738 57.76L0.59375 28.99C0.59375 44.88 13.4738 57.76 29.3738 57.76Z" fill="#D12229"/>
<path d="M14.9834 28.99L29.3734 43.38L43.7534 28.99L40.1634 25.41L32.9634 32.6L25.7734 25.41L40.1634 11.02L58.1334 28.99C58.1334 13.12 45.2634 0.23999 29.3734 0.23999L36.5634 7.42999L14.9834 28.99Z" fill="#D12229"/>
<path d="M29.374 57.76C45.264 57.76 58.134 44.88 58.134 28.99L29.374 57.76Z" fill="#D12229"/>
<path d="M73.0034 7.81001H74.1934C74.1934 8.42001 74.1934 8.9 74.1634 9.11C74.0634 9.77 73.6534 10.02 73.0034 10.02C72.3534 10.02 71.9134 9.74 71.8134 9.11C71.7634 8.8 71.7634 7.88 71.7634 6.64C71.7634 5.4 71.7634 4.50001 71.8134 4.18001C71.9134 3.55001 72.3434 3.27 72.9734 3.27C73.6034 3.27 74.0034 3.57 74.0934 4.19C74.1134 4.33 74.1234 4.68001 74.1334 4.96001H75.8434C75.8434 4.62001 75.8234 4.14001 75.7834 3.90001C75.6134 2.83001 74.9234 1.63 72.9934 1.63C71.0634 1.63 70.2734 2.80001 70.0934 3.90001C70.0134 4.46001 70.0134 5.44001 70.0134 6.65001C70.0134 7.86001 70.0134 8.85 70.0934 9.39C70.2634 10.52 71.1134 11.68 72.8534 11.68C73.7034 11.68 74.3034 11.34 74.7234 10.72L74.9534 11.35H75.8734V7.81001V6.32001H73.0134V7.81001H73.0034ZM81.1234 1.63C79.1534 1.63 78.3534 2.80001 78.1834 3.90001C78.1034 4.46001 78.1034 5.44001 78.1034 6.65001C78.1034 7.86001 78.1034 8.85 78.1834 9.39C78.3534 10.51 79.1534 11.68 81.1234 11.68C83.0934 11.68 83.8934 10.51 84.0634 9.39C84.1434 8.85 84.1434 7.85001 84.1434 6.65001C84.1434 5.45001 84.1434 4.46001 84.0634 3.90001C83.8934 2.80001 83.0934 1.63 81.1234 1.63ZM82.3534 9.11C82.2534 9.74 81.7534 10.02 81.1234 10.02C80.4934 10.02 79.9934 9.74 79.8934 9.11C79.8434 8.8 79.8434 7.88 79.8434 6.64C79.8434 5.4 79.8434 4.50001 79.8934 4.18001C79.9934 3.55001 80.4934 3.27 81.1234 3.27C81.7534 3.27 82.2434 3.55001 82.3534 4.18001C82.4034 4.50001 82.4034 5.4 82.4034 6.64C82.4034 7.88 82.4034 8.79 82.3534 9.11ZM89.3334 1.63C87.3634 1.63 86.5634 2.79001 86.3934 3.90001C86.3134 4.45001 86.3134 5.44 86.3134 6.64C86.3134 7.84 86.3134 8.84 86.3934 9.38C86.5634 10.5 87.3634 11.67 89.3334 11.67C91.3034 11.67 92.1034 10.5 92.2834 9.38C92.3634 8.85001 92.3634 7.84 92.3634 6.64C92.3634 5.44 92.3634 4.45001 92.2834 3.90001C92.1134 2.79001 91.3134 1.63 89.3334 1.63ZM90.5634 9.10001C90.4634 9.73001 89.9534 10.01 89.3334 10.01C88.7134 10.01 88.2134 9.73001 88.1034 9.10001C88.0534 8.79001 88.0534 7.87 88.0534 6.64C88.0534 5.41 88.0534 4.50001 88.1034 4.18001C88.2034 3.55001 88.7034 3.27 89.3334 3.27C89.9634 3.27 90.4634 3.55001 90.5634 4.18001C90.6134 4.50001 90.6134 5.4 90.6134 6.64C90.6134 7.88 90.6134 8.80001 90.5634 9.10001ZM97.1634 1.93001H94.6534V11.34H97.1634C98.6434 11.34 99.5734 10.85 100.023 9.89C100.383 9.1 100.473 8.5 100.473 6.64C100.473 4.78 100.383 4.18 100.023 3.39C99.5834 2.43 98.6434 1.94 97.1634 1.94V1.93001ZM98.6034 8.87001C98.4534 9.29001 98.1334 9.76001 97.0934 9.76001H96.3734V3.53001H97.0934C98.1434 3.53001 98.4534 3.99001 98.6034 4.43001C98.7634 4.86001 98.7634 5.37001 98.7634 6.65001C98.7634 7.93001 98.7634 8.44 98.6034 8.88V8.87001ZM71.8734 31.8L69.5234 41.22H71.2734L71.6934 39.45H74.3134L74.7334 41.22H76.4834L74.1334 31.8H71.8734ZM72.0434 37.92L73.0034 33.84L73.9534 37.92H72.0434ZM90.0334 31.8L87.6834 41.22H89.4334L89.8534 39.45H92.4734L92.8834 41.22H94.6334L92.2834 31.8H90.0234H90.0334ZM90.2034 37.92L91.1534 33.84L92.1034 37.92H90.1934H90.2034ZM102.453 34.72C102.453 32.85 101.423 31.81 99.4734 31.81H97.7834H96.4834V41.23H98.2334V37.64H99.4034L100.793 41.23H102.683L101.103 37.31C101.993 36.87 102.463 35.98 102.463 34.72H102.453ZM99.4034 36.08H98.2334V33.35H99.4034C100.343 33.35 100.703 33.83 100.703 34.71C100.703 35.59 100.343 36.08 99.4034 36.08ZM107.193 31.8H104.683V41.22H107.193C108.663 41.22 109.603 40.72 110.043 39.76C110.403 38.96 110.493 38.37 110.493 36.51C110.493 34.65 110.403 34.04 110.043 33.25C109.603 32.3 108.673 31.79 107.193 31.79V31.8ZM108.633 38.74C108.473 39.16 108.163 39.64 107.113 39.64H106.383V33.4H107.113C108.163 33.39 108.473 33.87 108.633 34.28C108.793 34.71 108.793 35.24 108.793 36.52C108.793 37.8 108.793 38.3 108.633 38.74ZM84.0034 38.22L82.9934 31.8H81.1634L80.1534 38.22L79.0234 31.8H77.3534L79.1434 41.22H81.0534L82.0734 34.66L83.0034 41.22H84.9234L86.8134 31.8H85.1234L84.0134 38.22H84.0034ZM79.9834 22.33H82.8334V20.74H79.9834V18.45H83.2134V16.86H78.2834V26.29H83.3134V24.7H79.9834V22.33ZM93.2234 26.29H94.9734V16.86H93.2234V26.29ZM109.903 16.86V22.83L107.563 16.86H105.563V26.29H107.213V19.82L109.793 26.29H111.543V16.86H109.903ZM72.7534 16.86H70.2534V26.29H72.7534C74.2334 26.29 75.1734 25.77 75.6034 24.83C75.9734 24.03 76.0534 23.44 76.0534 21.56C76.0534 19.68 75.9634 19.11 75.6034 18.31C75.1734 17.36 74.2334 16.86 72.7534 16.86ZM74.1934 23.8C74.0434 24.22 73.7334 24.71 72.6834 24.71H71.9634V18.46H72.6834C73.7434 18.46 74.0434 18.94 74.1934 19.35C74.3534 19.78 74.3634 20.31 74.3634 21.57C74.3634 22.83 74.3634 23.38 74.1934 23.8ZM86.9834 19.15C86.9834 18.47 87.4934 18.13 88.1234 18.13C88.7534 18.13 89.3134 18.5 89.3234 19.43H90.9634C90.9434 17.34 89.5034 16.56 88.1234 16.56C86.7434 16.56 85.2634 17.46 85.2634 19.16C85.2634 21.89 89.3434 21.98 89.3434 23.89C89.3434 24.59 88.8034 25 88.0934 25C87.3834 25 86.7534 24.49 86.6834 23.54H85.0134C85.0734 25.69 86.6334 26.61 88.1034 26.61C89.5734 26.61 91.0834 25.83 91.0834 23.89C91.0834 20.97 87.0034 20.79 87.0034 19.16L86.9834 19.15ZM100.323 21.25H103.183V22.74V26.3H102.273L102.033 25.65C101.613 26.29 101.013 26.61 100.173 26.61C98.4334 26.61 97.5834 25.45 97.4134 24.32C97.3334 23.78 97.3334 22.78 97.3334 21.59C97.3334 20.4 97.3334 19.4 97.4134 18.86C97.5934 17.75 98.3434 16.57 100.313 16.57C102.283 16.57 102.933 17.78 103.103 18.86C103.143 19.1 103.163 19.56 103.163 19.9H101.463C101.463 19.61 101.443 19.28 101.423 19.14C101.323 18.52 100.903 18.21 100.293 18.21C99.6834 18.21 99.2434 18.49 99.1434 19.14C99.0934 19.45 99.0934 20.37 99.0934 21.59C99.0934 22.81 99.0934 23.74 99.1434 24.05C99.2434 24.7 99.7034 24.98 100.333 24.98C100.963 24.98 101.393 24.74 101.503 24.05C101.533 23.84 101.533 23.38 101.533 22.75H100.343V21.26L100.323 21.25ZM81.2834 53.81C81.1834 54.45 80.7934 54.73 80.1934 54.73C79.5934 54.73 79.1934 54.45 79.1034 53.81C79.0534 53.5 79.0534 52.69 79.0534 51.45C79.0534 50.21 79.0534 49.4 79.1034 49.09C79.2034 48.45 79.5934 48.17 80.1934 48.17C80.7934 48.17 81.1934 48.45 81.2834 49.09C81.3234 49.4 81.3334 50.21 81.3334 51.45C81.3334 52.69 81.3334 53.5 81.2834 53.81ZM80.1934 46.54C78.2834 46.54 77.6034 47.71 77.4334 48.82C77.3534 49.36 77.3534 50.26 77.3534 51.45C77.3534 52.64 77.3534 53.54 77.4334 54.08C77.6034 55.19 78.2834 56.36 80.1934 56.36C82.1034 56.36 82.7834 55.19 82.9534 54.08C83.0334 53.54 83.0334 52.65 83.0334 51.45C83.0334 50.25 83.0334 49.36 82.9534 48.82C82.7834 47.71 82.1034 46.54 80.1934 46.54ZM75.5234 49.12C75.5234 49.69 75.3534 50.26 74.9734 50.86C74.3634 51.82 73.3934 53.04 72.1834 54.59H75.3834V56.18H70.0934V54.64C72.8634 51.12 73.8434 50.07 73.8434 49.18C73.8434 48.49 73.3934 48.1 72.7534 48.12C72.1134 48.15 71.6834 48.56 71.6834 49.55H70.0234C70.0234 47.29 71.4734 46.56 72.7334 46.54C73.9934 46.51 75.5234 47.21 75.5234 49.11M84.9034 48.05C85.7734 47.95 86.2834 47.57 86.4234 46.76H87.7834V56.18H86.0934V49.33H84.9134V48.05M90.3534 50.69C90.5334 51.9 91.3534 52.73 92.9234 52.69C93.4434 52.68 93.9034 52.51 94.2534 52.2C94.2534 53.01 94.2434 53.56 94.2034 53.8C94.1034 54.44 93.7134 54.78 93.1134 54.78C92.5134 54.78 92.1434 54.44 92.0434 53.8C92.0434 53.74 92.0234 53.66 92.0234 53.55H90.3334C90.3334 53.71 90.3534 53.92 90.3734 54.07C90.5434 55.18 91.1934 56.35 93.1134 56.35C95.0334 56.35 95.7034 55.18 95.8834 54.07C95.9834 53.4 95.9634 52.11 95.9634 51.38C95.9634 50.76 95.9634 49.35 95.8834 48.81C95.7134 47.7 95.0334 46.53 93.1134 46.53C91.1934 46.53 90.5134 47.7 90.3434 48.81C90.2534 49.42 90.2534 50.07 90.3434 50.68L90.3534 50.69ZM92.0234 49.1C92.1234 48.46 92.5134 48.18 93.1134 48.18C93.7134 48.18 94.1134 48.46 94.2034 49.1C94.2534 49.46 94.2534 50.06 94.2034 50.42C94.1034 51.06 93.7134 51.34 93.1134 51.34C92.5134 51.34 92.1134 51.06 92.0234 50.42C91.9734 50.06 91.9734 49.46 92.0234 49.1Z" fill="#231F20"/>
</svg>
