<svg width="115" height="70" viewBox="0 0 115 70" fill="none" xmlns="http://www.w3.org/2000/svg">
<path d="M14.6035 8.90167C14.9735 9.08167 15.3535 9.25168 15.7135 9.45168C17.9835 10.7117 20.2735 11.9317 22.5135 13.2417C23.3235 13.7117 24.0835 14.3217 24.7335 14.9917C25.8135 16.1117 25.7035 17.3017 24.5435 18.3417C23.7735 19.0317 22.8735 19.4717 21.8735 19.7017C19.8835 20.1517 17.8635 20.5317 15.8735 20.9917C14.9835 21.1917 14.0835 21.4317 13.2535 21.8017C11.5635 22.5517 11.3235 23.8017 12.5235 25.2417C12.7335 25.4917 12.9535 25.7217 13.0935 26.0817C12.6935 25.9017 12.2835 25.7317 11.8835 25.5417C9.25353 24.3117 6.62351 23.0817 4.26351 21.3617C3.96351 21.1417 3.67353 20.9217 3.41353 20.6717C2.05353 19.3417 2.11352 17.7917 3.68352 16.7317C4.39352 16.2417 5.25352 15.9117 6.09352 15.6717C7.79352 15.1717 9.53351 14.8117 11.2335 14.3417C12.1135 14.1017 12.9735 13.7717 13.8235 13.4217C14.2735 13.2417 14.7035 12.9817 15.0935 12.7017C16.3635 11.7717 16.4135 10.7417 15.2535 9.66168C15.0235 9.44168 14.7735 9.24168 14.5335 9.03168C14.5635 8.99168 14.5835 8.95168 14.6135 8.91168L14.6035 8.90167Z" fill="#231F20"/>
<path d="M14.5232 22.2217C17.5932 23.6317 20.5932 25.0817 23.3232 26.9917C23.9432 27.4217 24.5232 27.9517 24.9932 28.5417C25.6932 29.4217 25.6032 30.3617 24.8632 31.2117C24.0932 32.1017 23.0832 32.6217 21.9732 32.8817C19.9832 33.3517 17.9732 33.7217 15.9732 34.1817C14.9932 34.4117 14.0032 34.6617 13.1032 35.0817C11.5832 35.7817 11.3632 36.9416 12.3832 38.2816C12.6232 38.5916 12.8932 38.8717 13.1032 39.2717C12.8332 39.1617 12.5632 39.0617 12.3132 38.9417C9.48324 37.6317 6.65324 36.3317 4.13324 34.4617C3.72324 34.1517 3.32324 33.8017 3.00324 33.4017C2.19324 32.3817 2.25323 31.2917 3.15323 30.3417C3.94323 29.5117 4.96325 29.1117 6.04325 28.8417C7.79325 28.4017 9.54324 28.0017 11.2832 27.5117C12.2532 27.2417 13.1932 26.8617 14.1132 26.4617C14.5832 26.2617 15.0232 25.9517 15.4132 25.6117C16.2532 24.8717 16.3032 24.0717 15.5732 23.2017C15.2632 22.8417 14.8832 22.5317 14.5332 22.2017L14.5232 22.2217Z" fill="#231F20"/>
<path d="M47.7231 50.4216C48.7631 47.7216 49.813 45.0216 50.873 42.2916H55.613V57.3516C54.473 57.4716 53.3031 57.3816 52.0431 57.3916V48.4816C51.9731 48.4616 51.9031 48.4516 51.8231 48.4316C50.9631 50.6216 50.103 52.8116 49.233 55.0116H45.833C44.893 52.6416 43.9431 50.2816 43.0031 47.9116L42.8531 47.9416V57.3116H39.373V42.2916H44.1331C45.2631 44.9916 46.393 47.7116 47.523 50.4316C47.583 50.4316 47.653 50.4316 47.713 50.4216H47.7231Z" fill="#EB1C24"/>
<path d="M50.383 5.75168C50.473 8.92168 50.5529 12.0917 50.6429 15.3317H46.793V0.281677H51.4229C52.9129 3.30168 54.4429 6.38168 55.8629 9.25168C55.8029 6.47168 55.743 3.43168 55.683 0.301682H59.4829V15.3317H55.0529C54.8529 14.9517 54.6229 14.5517 54.4229 14.1517C53.0729 11.3617 51.733 8.56168 50.383 5.77168H50.3929L50.383 5.75168Z" fill="black"/>
<path d="M113.853 36.3517H109.423C107.893 33.1917 105.993 30.1317 104.843 26.7517V36.3317H101.243V21.2217H105.793C107.293 24.2417 108.823 27.3117 110.263 30.2117V21.2217H113.863V36.3517H113.853Z" fill="black"/>
<path d="M39.2227 36.3916V21.3116C39.3827 21.2616 39.5527 21.1716 39.7227 21.1716C41.7727 21.2016 43.8227 21.1516 45.8527 21.3116C49.1727 21.5716 51.1027 23.5616 51.5327 26.8516C51.7227 28.3316 51.6427 29.7816 51.2927 31.2116C50.5727 34.1716 48.5826 35.9516 45.5526 36.3416C45.1326 36.3916 44.7026 36.3916 44.2726 36.3916C42.6226 36.3916 40.9827 36.3916 39.2227 36.3916ZM43.2326 33.0616C45.3526 33.4516 46.9226 32.5416 47.3626 30.6616C47.6526 29.4316 47.6626 28.1716 47.3626 26.9416C46.9026 25.0016 45.1627 24.0216 43.2227 24.5916V33.0616H43.2326Z" fill="black"/>
<path d="M62.833 15.3117V0.281655C63.113 0.261655 63.343 0.221657 63.583 0.221657C65.203 0.221657 66.823 0.201657 68.443 0.221657C69.113 0.231657 69.783 0.301659 70.443 0.441659C73.133 1.03166 74.683 2.76166 75.103 5.75166C75.353 7.52166 75.243 9.28165 74.633 10.9916C73.683 13.6116 71.793 15.0816 69.033 15.2916C67.153 15.4317 65.253 15.3717 63.353 15.3917C63.203 15.3917 63.053 15.3417 62.843 15.3017L62.833 15.3117ZM66.753 12.1016C67.083 12.1216 67.323 12.1417 67.563 12.1417C69.533 12.1417 70.693 11.2617 70.973 9.31165C71.133 8.19165 71.103 6.99165 70.883 5.88165C70.503 3.94165 68.743 3.01165 66.753 3.54165V12.1016Z" fill="black"/>
<path d="M73.9932 42.1616C76.4132 42.2416 78.7432 42.1816 81.0432 42.4216C83.2832 42.6516 84.4032 43.9316 84.6032 46.1616C84.6732 46.9316 84.5532 47.7516 84.3632 48.5016C84.0132 49.8516 83.0132 50.6216 81.6432 51.0116C83.7232 52.6716 84.3232 55.1516 85.7832 57.3216H81.2032C80.9232 56.7616 80.6032 56.1416 80.3032 55.5216C79.8432 54.5916 79.3932 53.6516 78.9332 52.7316C78.6732 52.2116 78.6532 52.2116 77.8332 52.0216C77.7532 53.7916 77.8332 55.5416 77.7832 57.3416H74.0132V42.1616H73.9932ZM77.8432 48.8416C79.1632 49.0816 80.0632 48.8716 80.4432 48.2716C80.7732 47.7416 80.7832 46.5516 80.4032 46.0816C79.7232 45.2416 78.8132 45.3916 77.8432 45.4716V48.8416Z" fill="#EB1C24"/>
<path d="M91.233 50.2516V57.3217H87.373V42.2917H91.2231V49.0717C91.2731 49.0817 91.3331 49.1017 91.3831 49.1117C92.6931 46.8217 94.0131 44.5417 95.3231 42.2617H99.7831C98.2731 44.7317 96.813 47.1016 95.333 49.5316C96.943 52.0916 98.5631 54.6617 100.253 57.3417H95.393C94.053 54.9717 92.713 52.5916 91.373 50.2216C91.323 50.2316 91.273 50.2416 91.233 50.2516Z" fill="#EB1C24"/>
<path d="M88.2735 0.261658H93.6735C95.1535 5.21166 96.6335 10.1917 98.1735 15.3417C96.7935 15.4817 95.4735 15.3817 94.0635 15.4017C93.7835 14.3517 93.5035 13.3417 93.2135 12.2817H88.6435C88.3535 13.3017 88.0735 14.3117 87.7835 15.3317H83.8135C85.3235 10.2517 86.7935 5.26166 88.2835 0.261658H88.2735ZM89.5235 8.98166H92.3835C91.9035 7.06166 91.4435 5.19166 90.9435 3.14166C90.4535 5.17166 90.0035 7.02166 89.5335 8.98166H89.5235Z" fill="black"/>
<path d="M71.9933 57.4016C70.8033 57.4016 69.7934 57.4016 68.7934 57.4016C68.5234 57.4016 68.2534 57.3716 67.9134 57.3416C67.6434 56.3316 67.3733 55.3416 67.0833 54.2916H62.4434C62.1634 55.2916 61.8934 56.2816 61.6034 57.3316H57.6934C59.1834 52.2816 60.6533 47.3216 62.1433 42.3016H67.4833C68.9533 47.2516 70.4433 52.2316 71.9833 57.4016H71.9933ZM66.2633 50.9916C65.7633 48.9816 65.2934 47.0816 64.7834 45.0216C64.2834 47.0916 63.8334 49.0016 63.3534 50.9916H66.2633Z" fill="#EB1C24"/>
<path d="M94.3231 33.2616V28.5217H98.2131V35.2616C97.4331 35.9016 96.4531 36.2517 95.4231 36.3717C94.1831 36.5217 92.9231 36.6116 91.6831 36.5616C89.0131 36.4616 87.1231 34.9616 86.3731 32.4216C85.7831 30.4216 85.7331 28.3816 86.2231 26.3616C87.0131 23.0916 89.4131 21.1716 92.8831 20.9816C94.0831 20.9116 95.2631 21.0616 96.3931 21.5016C97.1631 21.8016 97.8731 22.2117 98.4031 22.9117C98.3231 23.0217 98.2731 23.1316 98.1931 23.2116C97.4731 23.9916 96.7431 24.7716 95.9731 25.5916C95.8131 25.4716 95.6531 25.3917 95.5331 25.2717C94.5431 24.3117 93.3631 24.2216 92.1131 24.5516C91.1531 24.8016 90.5331 25.5016 90.2831 26.4316C89.8131 28.1516 89.8531 29.8916 90.4631 31.5616C91.0231 33.0916 92.4431 33.6916 94.3231 33.2516V33.2616Z" fill="black"/>
<path d="M54.1135 21.2317H63.4135V24.4117H58.0635V27.0417H62.5935V30.2917H58.0535V33.1717H63.6335V36.3517H54.1035V21.2417L54.1135 21.2317Z" fill="black"/>
<path d="M65.3733 34.5716C66.1033 33.5116 66.8133 32.4617 67.5633 31.3717C68.0333 31.7517 68.4333 32.1117 68.8733 32.4317C69.6933 33.0217 70.5933 33.3316 71.6233 33.2617C72.2633 33.2217 72.7433 32.9816 72.8733 32.2816C72.7933 31.6616 72.3333 31.3516 71.8333 31.1016C71.1233 30.7516 70.3733 30.4817 69.6733 30.1117C68.9233 29.7217 68.1333 29.3317 67.4833 28.8017C65.6133 27.2717 65.4333 24.7017 66.9933 22.8617C69.1833 20.2917 74.2433 20.3317 76.4833 23.0217C75.7133 23.9217 74.9333 24.8417 74.1033 25.8117C73.3933 25.0217 72.6333 24.4317 71.5833 24.4117C71.4033 24.4117 71.2133 24.4017 71.0333 24.4117C70.5633 24.4417 70.1233 24.6417 70.0933 25.1117C70.0733 25.4417 70.2833 25.9117 70.5433 26.1117C71.0433 26.4917 71.6533 26.7317 72.2233 27.0217C73.0433 27.4317 73.8933 27.7817 74.6733 28.2517C76.1733 29.1517 77.0133 30.4717 76.8733 32.2717C76.7333 34.1017 75.6933 35.3516 74.0433 36.0016C71.3533 37.0616 68.7233 36.8117 66.2233 35.3317C66.0433 35.2217 65.8733 35.0816 65.7133 34.9416C65.6033 34.8416 65.5033 34.7216 65.3633 34.5716H65.3733Z" fill="black"/>
<path d="M79.4229 36.3317V21.2317H83.3129V36.3317H79.4229Z" fill="black"/>
<path d="M77.8828 0.271667H81.7228V15.3417C80.4728 15.4717 79.2128 15.3917 77.8828 15.3817V0.261658V0.271667Z" fill="black"/>
<path d="M39.4531 0.281677H43.2431V15.2717H39.4531V0.281677Z" fill="#EB1C24"/>
<path d="M14.2129 0.401672C16.2829 0.401672 17.9329 2.02167 17.9529 4.09167C17.9729 6.16167 16.3429 7.84167 14.2929 7.87167C12.2029 7.90167 10.5029 6.22167 10.5029 4.12167C10.5029 2.05167 12.1429 0.411672 14.2129 0.401672Z" fill="#EB1C24"/>
<path d="M21.8027 49.7516V42.7417C23.0527 42.7517 24.2527 42.5717 25.4427 42.9217C26.4527 43.2217 27.0527 43.9517 27.2027 44.9517C27.3127 45.7217 27.3227 46.5516 27.1827 47.3116C26.9027 48.8316 25.8227 49.6817 24.2827 49.7417C23.4927 49.7717 22.7027 49.7417 21.8027 49.7417V49.7516ZM23.4627 48.3417C24.9227 48.4817 25.5227 47.9917 25.6227 46.6317C25.6427 46.3317 25.6427 46.0216 25.6127 45.7216C25.4927 44.4416 24.8127 43.9516 23.4627 44.1916V48.3417Z" fill="black"/>
<path d="M7.35278 46.1617C7.35278 45.6417 7.45276 45.1617 7.61276 44.6117C8.01276 43.2617 9.12278 42.5217 10.5328 42.5917C11.9728 42.6717 12.9328 43.4717 13.1228 44.9517C13.2328 45.8117 13.2328 46.7317 13.0828 47.5817C12.8228 49.0517 11.6628 49.8817 10.1828 49.8517C8.66277 49.8217 7.78278 49.0717 7.47278 47.5117C7.39278 47.1217 7.34277 46.7917 7.34277 46.1617H7.35278ZM8.99277 46.2117C9.04277 46.8017 9.13276 47.3517 9.36276 47.8617C9.72276 48.6817 10.9028 48.7217 11.2628 47.9317C11.7728 46.8317 11.7328 45.6817 11.2628 44.5717C11.0728 44.1317 10.6428 43.9017 10.2128 44.0117C9.87277 44.0917 9.47276 44.3617 9.33276 44.6617C9.12276 45.1117 9.00278 45.5217 9.00278 46.2117H8.99277Z" fill="black"/>
<path d="M20.3429 46.1817C20.3429 46.6817 20.2529 47.0917 20.1529 47.5317C19.6329 49.8817 17.6429 50.1017 16.2129 49.6917C15.3829 49.4517 14.893 48.8317 14.663 48.0217C14.333 46.8817 14.3129 45.7317 14.6729 44.5917C15.1029 43.2717 16.1429 42.5517 17.5229 42.6017C18.9529 42.6517 19.8129 43.3617 20.1529 44.8217C20.2529 45.2617 20.3429 45.6617 20.3429 46.1917V46.1817ZM18.6829 46.3617C18.6529 45.7017 18.5329 45.2517 18.3729 44.7017C18.2329 44.2217 17.8129 43.9717 17.3129 43.9717C16.8429 43.9717 16.473 44.2217 16.323 44.6617C15.973 45.7017 15.9629 46.7617 16.3629 47.7917C16.5429 48.2717 16.9329 48.4717 17.4529 48.4517C17.9429 48.4317 18.2729 48.1817 18.4029 47.7417C18.5329 47.3117 18.6429 46.9117 18.6829 46.3517V46.3617Z" fill="black"/>
<path d="M6.18312 43.4816C5.83312 43.8616 5.52312 44.1917 5.27312 44.4617C4.78312 44.3017 4.39311 44.1016 3.98311 44.0616C3.06311 43.9716 2.43314 44.4616 2.32314 45.3816C2.25314 45.9516 2.25312 46.5417 2.33312 47.1117C2.49312 48.2517 3.19311 48.6417 4.48311 48.3317V46.1417H6.07314V49.1517C5.07314 49.9417 3.01312 50.1416 1.96312 49.4416C1.53312 49.1516 1.12311 48.6916 0.923114 48.2216C0.423114 47.0316 0.423136 45.7616 0.883136 44.5616C1.67314 42.5216 4.36311 41.9417 6.17311 43.4917L6.18312 43.4816Z" fill="black"/>
<path d="M23.3136 52.8316V57.4816C23.0936 57.5016 22.9236 57.4616 22.6836 57.4816V51.6216C22.9536 51.6016 23.2336 51.5716 23.6136 51.5316C24.4636 53.1116 25.3036 54.6916 26.2536 56.4616V51.6316H26.9436V57.4116C26.7736 57.4516 26.6636 57.4416 26.5436 57.4416C26.3636 57.4416 26.1836 57.4616 25.9536 57.4416C25.1236 55.8916 24.2936 54.3416 23.4736 52.7916C23.4236 52.7916 23.3736 52.8116 23.3336 52.8116L23.3136 52.8316Z" fill="black"/>
<path d="M0.983398 57.5016V51.5716C2.3234 51.6016 3.6934 51.1916 4.6434 52.4816C5.3034 53.3816 5.2934 55.5416 4.6434 56.5016C3.7334 57.8516 2.3434 57.4416 0.983398 57.5016ZM1.77341 56.7916C3.72341 56.9116 4.31343 56.3716 4.32343 54.5916C4.32343 54.4716 4.32343 54.3516 4.32343 54.2216C4.25343 52.6316 3.42342 52.0216 1.78342 52.4116V56.7916H1.77341Z" fill="black"/>
<path d="M21.2928 52.0217C21.1728 52.1817 21.0527 52.3416 20.9627 52.4716C20.8427 52.4716 20.7728 52.4916 20.7228 52.4716C19.0328 51.7916 17.9628 52.4716 17.9028 54.2816C17.8928 54.6116 17.8928 54.9516 17.9428 55.2816C18.1528 56.7216 19.1327 57.2416 20.6127 56.6316V54.5316H21.3228V57.0616C20.5128 57.6616 19.5828 57.7717 18.6028 57.4617C17.6728 57.1617 17.2527 56.3917 17.1827 55.5117C17.1227 54.7117 17.1227 53.8417 17.3627 53.0817C17.8727 51.4517 19.8528 50.9516 21.2928 52.0316V52.0217Z" fill="black"/>
<path d="M9.59348 56.8317C9.54348 57.1517 9.52347 57.2917 9.49347 57.4617H6.31348V51.6217H9.40347C9.42347 51.8017 9.43346 51.9417 9.45346 52.1817C8.66346 52.2217 7.91349 52.2617 7.10349 52.3117V54.0917C7.77349 54.1217 8.40347 54.1517 9.08347 54.1817V54.8117C8.43347 54.8417 7.80349 54.8817 7.10349 54.9117V56.8317H9.59348Z" fill="black"/>
<path d="M10.2734 56.9517C10.4534 56.7317 10.5735 56.5717 10.6935 56.4217C12.3435 57.1417 12.9335 57.0517 13.4135 56.0117C13.3835 55.4717 12.9934 55.2417 12.5834 55.0317C12.1734 54.8217 11.7534 54.6417 11.3634 54.4017C10.8034 54.0517 10.5034 53.5317 10.6234 52.8517C10.7334 52.1917 11.1735 51.7817 11.7935 51.5717C12.4935 51.3317 13.2234 51.4817 13.9634 51.9817C13.9434 52.0517 13.9335 52.1417 13.8835 52.2117C13.8135 52.3117 13.7234 52.3917 13.5934 52.5217C12.9334 52.2217 12.2434 51.9117 11.5834 52.5217C11.3434 53.3517 11.4034 53.5517 12.0834 53.9417C12.5034 54.1817 12.9635 54.3617 13.3835 54.6117C13.9535 54.9517 14.2834 55.4517 14.1834 56.1317C14.0834 56.7917 13.6834 57.2417 13.0534 57.4517C12.0834 57.7817 11.1934 57.6117 10.2734 56.9517Z" fill="black"/>
<path d="M15.2227 51.6117H15.8827V57.4217H15.2227V51.6117Z" fill="black"/>
<path d="M43.2334 33.0616V24.5916C45.1734 24.0116 46.9134 24.9916 47.3734 26.9416C47.6634 28.1816 47.6534 29.4316 47.3734 30.6616C46.9334 32.5416 45.3634 33.4516 43.2434 33.0616H43.2334Z" fill="white"/>
<path d="M66.7529 12.1016V3.54164C68.7429 3.01164 70.5029 3.94164 70.8829 5.88164C71.1029 6.99164 71.1329 8.19164 70.9729 9.31164C70.7029 11.2616 69.5329 12.1316 67.5629 12.1416C67.3229 12.1416 67.0829 12.1216 66.7529 12.1016Z" fill="white"/>
<path d="M77.8428 48.8416V45.4716C78.8028 45.3916 79.7228 45.2416 80.4028 46.0816C80.7828 46.5516 80.7828 47.7416 80.4428 48.2716C80.0628 48.8716 79.1628 49.0816 77.8428 48.8416Z" fill="white"/>
<path d="M89.5227 8.98166C89.9927 7.03166 90.4427 5.18166 90.9327 3.14166C91.4427 5.19166 91.9027 7.05166 92.3727 8.98166H89.5127H89.5227Z" fill="white"/>
<path d="M66.2635 50.9917H63.3535C63.8335 49.0017 64.2935 47.0917 64.7835 45.0217C65.2935 47.0817 65.7635 48.9817 66.2635 50.9917Z" fill="white"/>
<path d="M23.4629 48.3416V44.1916C24.8129 43.9516 25.4929 44.4416 25.6129 45.7216C25.6429 46.0216 25.6429 46.3316 25.6229 46.6316C25.5229 47.9916 24.9229 48.4816 23.4629 48.3416Z" fill="white"/>
<path d="M8.99341 46.2117C9.10341 45.6517 9.11343 45.1116 9.32343 44.6616C9.46343 44.3616 9.8734 44.0916 10.2034 44.0116C10.6334 43.9016 11.0634 44.1316 11.2534 44.5716C11.7334 45.6816 11.7734 46.8417 11.2534 47.9317C10.8834 48.7217 9.71342 48.6817 9.35342 47.8616C9.12342 47.3516 9.1034 46.7517 8.9834 46.2117H8.99341Z" fill="white"/>
<path d="M18.683 46.3617C18.583 46.8617 18.533 47.3217 18.403 47.7517C18.273 48.1917 17.943 48.4517 17.453 48.4617C16.933 48.4817 16.543 48.2717 16.363 47.8017C15.963 46.7717 15.983 45.7117 16.323 44.6717C16.473 44.2317 16.843 43.9817 17.313 43.9817C17.813 43.9817 18.223 44.2317 18.373 44.7117C18.533 45.2617 18.593 45.8417 18.683 46.3717V46.3617Z" fill="white"/>
<path d="M1.77271 56.7917V52.4116C3.41271 52.0216 4.24271 52.6316 4.31271 54.2216C4.31271 54.3416 4.31271 54.4617 4.31271 54.5917C4.31271 56.3717 3.7127 56.9117 1.7627 56.7917H1.77271Z" fill="white"/>
<path d="M49.8636 69.6217C49.5736 68.2817 49.2936 67.0116 49.0136 65.7416C48.9736 65.7416 48.9236 65.7216 48.8836 65.7116C48.5636 66.9916 48.2436 68.2616 47.9136 69.5616C47.4236 69.7116 46.9436 69.6017 46.4036 69.6517C46.1436 68.6817 45.8836 67.7516 45.6336 66.8216C45.3936 65.9216 45.1736 65.0117 44.9336 64.0917C45.3636 63.9817 45.7536 63.9717 46.2036 64.0917C46.5236 65.4317 46.8336 66.7916 47.1936 68.3016C47.5736 66.8416 47.9236 65.4816 48.2736 64.1116C48.7136 63.9316 49.1336 64.0216 49.6236 64.0216C49.9636 65.4216 50.3036 66.8116 50.6636 68.3316C51.0236 66.8416 51.3636 65.4716 51.7036 64.0816C52.0736 63.9716 52.4236 63.9916 52.8536 64.0816C52.3736 65.9316 51.8936 67.7416 51.4136 69.5816C50.9136 69.7116 50.4336 69.6516 49.8536 69.6316L49.8636 69.6217Z" fill="#010101"/>
<path d="M77.9339 64.0116V62.0816C78.3439 61.9716 78.7039 62.0216 79.1239 62.0416V69.6116C78.6839 69.6416 78.224 69.8216 77.974 69.2316C77.514 69.5416 77.0839 69.7816 76.5239 69.7716C75.5639 69.7516 74.8939 69.3016 74.6139 68.3816C74.3339 67.4516 74.3539 66.5116 74.6839 65.6016C75.0339 64.6216 75.7539 64.0716 76.8139 64.0216C77.1439 64.0016 77.4739 64.0216 77.9239 64.0216L77.9339 64.0116Z" fill="#010101"/>
<path d="M66.3638 64.0517V62.0717C66.7838 61.9817 67.1338 62.0017 67.5538 62.0617V69.5917C67.0838 69.7017 66.6538 69.7717 66.3938 69.2617C64.6938 70.4317 62.9038 69.5517 62.8838 67.3817C62.8838 66.9217 62.8838 66.4717 62.9938 66.0217C63.3538 64.6317 64.1838 63.9817 65.6238 64.0117C65.8338 64.0117 66.0438 64.0317 66.3738 64.0517H66.3638Z" fill="#010101"/>
<path d="M104.903 66.2816C104.913 66.9216 104.853 67.6817 104.533 68.3917C104.093 69.3817 103.363 69.8016 102.183 69.7516C101.163 69.7116 100.493 69.2116 100.203 68.1616C99.8432 66.8716 99.8332 65.5617 100.213 64.2717C100.573 63.0317 101.383 62.5117 102.683 62.5717C103.803 62.6217 104.423 63.1917 104.733 64.4217C104.883 64.9917 104.893 65.5717 104.893 66.2717L104.903 66.2816Z" fill="#010101"/>
<path d="M111.124 69.5416C112.054 68.8916 112.844 68.1816 113.344 67.1816C113.174 67.0416 113.064 67.1416 112.944 67.1416C111.794 67.2316 110.964 66.8516 110.604 66.0716C110.184 65.1616 110.414 63.8316 111.104 63.1716C111.774 62.5216 113.074 62.3516 113.934 62.7916C114.494 63.0716 114.844 63.5516 114.924 64.1416C115.204 66.1316 114.704 67.8816 113.184 69.2916C112.544 69.8816 111.824 69.5716 111.114 69.5416H111.124Z" fill="#010101"/>
<path d="M96.1737 68.6117H98.9138C99.1338 68.9017 99.0038 69.2417 99.0038 69.6217H94.8637C94.6537 69.3517 94.6337 68.9917 94.5938 68.6217C95.3537 67.7917 96.1237 66.9717 96.8737 66.1217C97.2137 65.7317 97.5237 65.3117 97.5837 64.7617C97.6237 64.3117 97.5837 63.8717 97.0837 63.7117C96.5737 63.5517 96.1937 63.7417 96.0137 64.2817C95.9737 64.3917 95.9037 64.4817 95.8438 64.5917C95.4538 64.5117 95.1038 64.4417 94.7538 64.3717C94.8938 63.0717 95.8338 62.4217 97.2838 62.5917C98.4738 62.7317 99.0937 63.6417 98.8937 64.8917C98.7737 65.6117 98.4137 66.2017 97.9337 66.7317C97.3937 67.3317 96.8237 67.9217 96.1737 68.6117Z" fill="#020202"/>
<path d="M72.8238 68.3016C73.0138 68.6016 73.1637 68.8617 73.3737 69.1817C72.3837 69.8817 71.3237 69.9216 70.2437 69.5716C69.2837 69.2516 68.9538 68.4316 68.8238 67.5116C68.7438 66.9616 68.7637 66.4217 68.8937 65.8717C69.2237 64.4617 70.2937 63.7217 71.7337 63.9017C72.9237 64.0517 73.5437 64.8916 73.5337 66.3516C73.5337 66.5916 73.5737 66.8417 73.4137 67.1517H70.1038C70.1838 68.7217 71.2637 69.1816 72.8437 68.3116L72.8238 68.3016Z" fill="#010101"/>
<path d="M43.9435 68.2017C44.0735 68.6617 44.3535 68.6217 44.4935 68.7817C44.5435 69.0517 44.5735 69.3117 44.4635 69.5917C43.8435 69.9117 43.3635 69.6517 42.9035 69.1617C42.4435 69.5917 41.9035 69.8117 41.2535 69.7717C40.4935 69.7217 39.9135 69.3117 39.7435 68.6717C39.5435 67.9117 39.8435 67.2217 40.5335 66.8117C41.1835 66.4217 41.9235 66.4517 42.6335 66.3917C42.8735 66.0417 42.6935 65.7217 42.6535 65.4117C41.8935 64.7917 41.5135 64.8217 40.6735 65.5617C40.3635 65.4317 40.1235 65.2217 39.8935 64.9817C40.6235 63.8817 42.3035 63.5617 43.3235 64.3317C43.7735 64.6717 43.9335 65.1417 43.9335 65.6917C43.9335 66.1517 43.9335 66.6017 43.9335 67.0617C43.9335 67.5117 43.9335 67.9717 43.9335 68.2117L43.9435 68.2017Z" fill="#020202"/>
<path d="M56.3837 66.3417C56.4537 65.7817 56.4537 65.2717 55.8937 65.0517C55.2837 64.8217 54.7537 65.0217 54.3437 65.5817C54.0537 65.3817 53.7837 65.1917 53.5237 65.0117C53.9737 63.7517 56.1137 63.7017 56.9537 64.3117C57.4137 64.6417 57.5737 65.1217 57.5637 65.6717C57.5637 66.5817 57.5637 67.4917 57.5637 68.2317C57.7237 68.6217 57.9237 68.6917 58.1137 68.7217C58.2437 69.0317 58.1637 69.2917 58.1737 69.5417C57.4937 69.9117 57.0137 69.6517 56.5337 69.1717C56.0937 69.5317 55.6037 69.7917 54.9937 69.7717C54.1437 69.7417 53.5337 69.3117 53.3537 68.5817C53.1737 67.8217 53.5537 67.0717 54.3237 66.7117C54.6537 66.5617 55.0137 66.4617 55.3837 66.4317C55.7137 66.4117 56.0437 66.3717 56.3737 66.3417H56.3837Z" fill="#010101"/>
<path d="M86.2933 69.6616C86.2933 67.9116 86.2933 66.2716 86.2933 64.6316C86.2933 64.4616 86.2332 64.2616 86.3932 64.0716C86.8232 63.9816 87.2632 63.9216 87.5032 64.4716C87.7832 64.3216 88.0432 64.1516 88.3132 64.0416C89.6232 63.5116 90.7832 64.2016 90.8432 65.6016C90.9032 66.9016 90.8432 68.3617 90.8432 69.6717C90.3932 69.6717 90.0832 69.6717 89.5832 69.6717C89.5832 68.3917 89.6032 67.1816 89.5832 65.9716C89.5632 65.3916 89.2932 64.9817 88.6232 64.9917C88.0432 65.0017 87.5832 65.4216 87.5132 66.0016C87.4932 66.1816 87.5132 66.3717 87.5132 66.5517C87.5132 67.5517 87.5132 68.6517 87.5132 69.6717C87.0732 69.6717 86.7832 69.6717 86.2832 69.6717L86.2933 69.6616Z" fill="#010101"/>
<path d="M108.903 69.6217C108.493 69.6517 108.163 69.6917 107.773 69.5817V64.0517C107.233 64.4117 106.783 64.7017 106.293 65.0317C105.943 64.8217 105.803 64.4517 105.493 64.0717C106.623 63.5417 107.403 62.3717 108.913 62.7417V69.6217H108.903Z" fill="#030303"/>
<path d="M59.2236 64.0217H59.9336C60.2936 64.1217 60.2036 64.4617 60.4336 64.6217C60.9236 64.0717 61.5036 63.7316 62.2936 63.9416C62.4936 64.3016 62.3636 64.7017 62.3636 65.1217C61.7036 65.1717 60.9936 65.0417 60.4136 65.7317C60.4136 66.2817 60.4136 66.9517 60.4136 67.6117C60.4136 68.2717 60.4136 68.8816 60.4136 69.5016C60.0136 69.7116 59.6436 69.6017 59.2236 69.6117V64.0117V64.0217Z" fill="#030303"/>
<path d="M83.4834 64.0416C83.8734 63.9516 84.2334 63.9516 84.6334 64.0516V69.5716C84.2634 69.7116 83.9034 69.6316 83.4834 69.6316V64.0416Z" fill="#040404"/>
<path d="M84.7832 62.4217C84.7532 62.8517 84.5532 63.1517 84.0632 63.1817C83.5932 63.2017 83.2831 62.9817 83.2431 62.5117C83.2031 62.0117 83.4731 61.6917 83.9931 61.6717C84.4731 61.6517 84.7031 61.9517 84.7731 62.4217H84.7832Z" fill="#070707"/>
<path d="M77.9236 65.2216V68.1217C77.6536 68.6217 77.2136 68.8217 76.6436 68.7117C76.0236 68.5917 75.8536 68.0917 75.7636 67.5717C75.7036 67.2517 75.7036 66.9017 75.7336 66.5717C75.8536 65.2517 76.5636 64.8016 77.9236 65.2216Z" fill="#FAFAFA"/>
<path d="M66.3434 65.2517V68.1417C66.0334 68.6317 65.5834 68.8317 65.0234 68.6917C64.4234 68.5417 64.2634 68.0317 64.1834 67.5217C64.1334 67.1917 64.1434 66.8517 64.1734 66.5217C64.2934 65.2217 65.0634 64.7717 66.3434 65.2517Z" fill="#FAFAFA"/>
<path d="M103.624 66.3617C103.614 66.9117 103.624 67.4617 103.424 67.9917C103.264 68.3917 103.004 68.6517 102.544 68.6817C102.064 68.7117 101.694 68.5117 101.534 68.0617C101.084 66.8117 101.114 65.5417 101.484 64.2817C101.604 63.8717 101.944 63.6617 102.404 63.6717C102.864 63.6717 103.154 63.9117 103.334 64.3017C103.644 64.9617 103.624 65.6717 103.614 66.3717L103.624 66.3617Z" fill="#FBFBFB"/>
<path d="M113.693 65.8716C112.813 66.2216 112.233 66.1616 111.883 65.6716C111.583 65.2416 111.583 64.3116 111.913 63.9516C112.263 63.5616 112.713 63.5416 113.163 63.7416C113.703 63.9916 113.893 64.8316 113.693 65.8716Z" fill="#FAFAFA"/>
<path d="M70.0332 66.2516C70.3132 65.1816 70.7332 64.7816 71.4132 64.8516C72.0232 64.9216 72.2532 65.2516 72.3332 66.2216C71.5832 66.3416 70.8332 66.2916 70.0332 66.2516Z" fill="#F4F4F4"/>
<path d="M42.6633 67.2717C42.8733 67.6217 42.7133 67.9517 42.7533 68.2117C42.4733 68.6317 42.1133 68.7817 41.7133 68.8017C41.3633 68.8217 41.0633 68.6716 40.9533 68.2916C40.8433 67.9016 41.0333 67.6416 41.3533 67.4816C41.7633 67.2816 42.2033 67.2217 42.6533 67.2717H42.6633Z" fill="#EEEEEE"/>
<path d="M56.3333 67.2917C56.4833 67.6117 56.4033 67.9117 56.4033 68.1917C56.1833 68.5817 55.8233 68.7416 55.4233 68.7816C55.0333 68.8216 54.6934 68.6816 54.5934 68.2516C54.5034 67.8716 54.6833 67.5917 55.0233 67.4517C55.4433 67.2817 55.8734 67.1816 56.3234 67.2816L56.3333 67.2917Z" fill="#F0F0F0"/>
</svg>
