<svg width="131" height="70" viewBox="0 0 131 70" fill="none" xmlns="http://www.w3.org/2000/svg">
<path d="M55.7425 69.7216L57.4925 61.9216H56.0625L54.8325 67.5716H54.8025L53.1025 61.9216H51.9925L50.2925 67.5716H50.2625L49.0325 61.9216H47.6025L49.4025 69.7216H50.9625L52.5325 64.3116H52.5625L54.1825 69.7216H55.7425ZM61.1525 60.0916V58.4216H59.3825V60.0916H61.1525ZM61.0025 69.7216V61.9216H59.5325V69.7216H61.0025ZM69.6925 69.7216V64.3116C69.6925 62.9516 69.1525 61.7416 67.5925 61.7416C66.3625 61.7416 65.5625 62.4816 65.1225 63.5916H65.0925V61.9216H63.6225V69.7216H65.0925V66.4116C65.0925 65.2616 65.7125 63.2116 67.1525 63.2116C67.9925 63.2116 68.1525 63.7716 68.2025 64.4916C68.2225 64.8216 68.2225 65.1516 68.2225 65.4616V69.7216H69.6925ZM78.1925 69.7216V64.3116C78.1925 62.9516 77.6525 61.7416 76.0925 61.7416C74.8625 61.7416 74.0625 62.4816 73.6225 63.5916H73.5925V61.9216H72.1225V69.7216H73.5925V66.4116C73.5925 65.2616 74.2125 63.2116 75.6525 63.2116C76.4925 63.2116 76.6525 63.7716 76.7025 64.4916C76.7225 64.8216 76.7225 65.1516 76.7225 65.4616V69.7216H78.1925ZM85.8725 68.4816C85.3925 68.6616 84.9225 68.7616 84.4025 68.7616C82.4325 68.7616 81.5325 67.0116 81.5325 65.2516H86.0525V64.8716C86.0525 63.0816 85.1325 61.7416 83.2325 61.7416C80.9925 61.7416 80.0525 63.3116 80.0525 65.4416C80.0525 68.0016 81.1325 69.9016 83.9225 69.9016C84.5925 69.9016 85.2125 69.7916 85.8725 69.6416V68.4816ZM81.6025 64.2716C81.6025 64.1216 81.6525 63.9416 81.7125 63.7916C81.9725 63.2016 82.5125 62.8916 83.1525 62.8916C83.9725 62.8916 84.5825 63.4316 84.5825 64.2716H81.6025ZM89.3625 69.7216V66.4116C89.3625 64.7116 89.9225 63.3516 91.8025 63.3516V61.7416C90.6425 61.7416 89.7725 62.4016 89.3925 63.4916H89.3625V61.9216H87.8925V69.7216H89.3625ZM104.543 69.7216V68.5716H99.8225C101.793 66.8716 104.463 64.8316 104.463 61.9816C104.463 60.1016 103.003 59.1516 101.253 59.1516C99.5025 59.1516 98.0925 59.8516 97.8725 61.7216H99.6725C99.6725 60.7916 100.363 60.2916 101.233 60.2916C102.233 60.2916 102.823 60.8616 102.823 61.8616C102.823 63.9916 99.4325 67.2016 97.8625 68.5116V69.7116H104.553L104.543 69.7216ZM110.173 69.9016C113.283 69.9016 113.993 67.1016 113.993 64.5316C113.993 61.9616 113.293 59.1616 110.173 59.1616C107.053 59.1616 106.383 61.9816 106.383 64.5316C106.383 67.0816 107.053 69.9016 110.173 69.9016ZM110.173 68.7616C108.123 68.7616 108.023 66.0116 108.023 64.5316C108.023 63.0516 108.123 60.3016 110.173 60.3016C112.223 60.3016 112.353 63.0416 112.353 64.5316C112.353 66.0216 112.253 68.7616 110.173 68.7616ZM121.823 69.7216V68.5716H117.103C119.073 66.8716 121.743 64.8316 121.743 61.9816C121.743 60.1016 120.283 59.1516 118.533 59.1516C116.783 59.1516 115.373 59.8516 115.153 61.7216H116.953C116.953 60.7916 117.643 60.2916 118.513 60.2916C119.513 60.2916 120.103 60.8616 120.103 61.8616C120.103 63.9916 116.713 67.2016 115.143 68.5116V69.7116H121.833L121.823 69.7216ZM128.723 64.2316C129.933 63.9416 130.393 62.9416 130.393 61.7716C130.393 60.0516 128.923 59.1516 127.333 59.1516C125.823 59.1516 124.053 59.7916 123.973 61.5416H125.773C125.853 60.6416 126.343 60.2916 127.243 60.2916C128.353 60.2916 128.753 60.9516 128.753 61.9916C128.753 63.0316 128.093 63.6916 127.033 63.6916H126.603V64.8416H127.033C128.323 64.8416 128.953 65.5616 128.953 66.8216C128.953 68.0816 128.443 68.7416 127.133 68.7416C126.333 68.7416 125.613 68.3116 125.613 67.4516H123.763C123.813 69.3016 125.683 69.8916 127.233 69.8916C129.293 69.8916 130.593 68.9716 130.593 66.7916C130.593 65.5016 130.003 64.5516 128.723 64.2516V64.2216V64.2316Z" fill="#231F20"/>
<path d="M26.9228 69.7216V58.4116H25.4528V63.0016H25.4228C25.1128 62.1616 24.1928 61.7416 23.3428 61.7416C21.1128 61.7416 20.5928 64.1816 20.5928 65.9516C20.5928 67.7216 21.1028 69.9016 23.2628 69.9016C24.1428 69.9016 25.1128 69.4116 25.4228 68.5216H25.4528V69.7216H26.9228ZM23.7628 68.7616C22.3328 68.7616 22.2228 66.8616 22.2228 65.8316C22.2228 64.8016 22.3528 62.9016 23.7428 62.9016C25.1328 62.9016 25.4428 64.7416 25.4428 65.8216C25.4428 66.8216 25.0828 68.7716 23.7528 68.7716L23.7628 68.7616ZM32.2328 69.9016C34.7228 69.9016 35.6728 68.1016 35.6728 65.8216C35.6728 63.5416 34.7228 61.7416 32.2328 61.7416C29.7428 61.7416 28.7728 63.5416 28.7728 65.8216C28.7728 68.1016 29.7228 69.9016 32.2328 69.9016ZM32.2328 68.7616C30.6128 68.7616 30.4128 67.0716 30.4128 65.8316C30.4128 64.5916 30.6128 62.9016 32.2328 62.9016C33.8528 62.9016 34.0328 64.6016 34.0328 65.8316C34.0328 67.0616 33.8328 68.7616 32.2328 68.7616ZM41.6728 68.6416C41.4228 68.7216 41.1528 68.7516 40.8828 68.7516C39.8528 68.7516 39.6328 68.0916 39.6328 67.2316V63.0716H41.7928V61.9216H39.6328V59.1716L38.1628 60.0916V61.9316H36.7728V63.0816H38.1628V68.0116C38.1628 69.5016 39.1328 69.9116 40.5028 69.9116C40.8928 69.9116 41.2928 69.8816 41.6628 69.8016V68.6516L41.6728 68.6416Z" fill="#EC1C24"/>
<path d="M1.69266 69.7216V66.4116C1.69266 64.7116 2.25266 63.3516 4.13266 63.3516V61.7416C2.97266 61.7416 2.10266 62.4016 1.72266 63.4916H1.69266V61.9216H0.222656V69.7216H1.69266ZM10.9327 68.4816C10.4527 68.6616 9.98266 68.7616 9.46266 68.7616C7.49266 68.7616 6.59266 67.0116 6.59266 65.2516H11.1127V64.8716C11.1127 63.0816 10.1927 61.7416 8.29266 61.7416C6.05266 61.7416 5.11266 63.3116 5.11266 65.4416C5.11266 68.0016 6.19266 69.9016 8.98266 69.9016C9.65266 69.9016 10.2727 69.7916 10.9327 69.6416V68.4816ZM6.65266 64.2716C6.65266 64.1216 6.70266 63.9416 6.76266 63.7916C7.02266 63.2016 7.56266 62.8916 8.20266 62.8916C9.02266 62.8916 9.63266 63.4316 9.63266 64.2716H6.65266ZM18.7327 69.7216V58.4116H17.2627V63.0016H17.2327C16.9227 62.1616 16.0027 61.7416 15.1527 61.7416C12.9227 61.7416 12.4027 64.1816 12.4027 65.9516C12.4027 67.7216 12.9127 69.9016 15.0727 69.9016C15.9527 69.9016 16.9227 69.4116 17.2327 68.5216H17.2627V69.7216H18.7327ZM15.5627 68.7616C14.1327 68.7616 14.0227 66.8616 14.0227 65.8316C14.0227 64.8016 14.1527 62.9016 15.5427 62.9016C16.9327 62.9016 17.2427 64.7416 17.2427 65.8216C17.2427 66.8216 16.8827 68.7716 15.5527 68.7716L15.5627 68.7616Z" fill="#231F20"/>
<path d="M38.8427 29.6716C38.9027 30.4416 38.6627 31.1816 38.1627 32.1916C37.7427 33.0316 37.0427 33.6916 36.3527 34.5516C35.6527 35.4116 34.8227 36.1916 33.8727 36.9216C32.9227 37.6516 32.0827 38.3516 30.9827 38.8416C29.8927 39.3316 28.8927 39.8716 27.9627 39.9816C27.0327 40.0916 26.2027 40.0216 25.5227 39.8016C24.8427 39.5716 24.3127 39.1916 23.9527 38.6716C23.5927 38.1516 23.4127 37.4916 23.4427 36.7116C23.4727 35.9416 23.7027 35.1216 24.0927 34.2916C24.4827 33.4716 25.0327 32.6516 25.7027 31.8616C26.3727 31.0816 27.1527 30.3316 28.0227 29.6616C28.8927 28.9916 29.8527 28.4016 30.8627 27.9316C31.8727 27.4616 32.8527 27.1516 33.7427 26.9916C34.6427 26.8316 35.4727 26.8416 36.1827 26.9916C36.8927 27.1516 37.5327 27.3916 37.9627 27.8516C38.4027 28.3116 38.7927 28.9216 38.8527 29.6716H38.8427ZM35.4327 32.7016C35.4127 32.3316 35.2927 32.0316 35.0927 31.8016C34.8927 31.5716 34.6127 31.4116 34.2727 31.3216C33.9327 31.2316 33.5327 31.2216 33.1027 31.2916C32.6627 31.3616 32.1927 31.5016 31.6927 31.7316C31.1927 31.9616 30.7327 32.2516 30.3027 32.5716C29.8727 32.9016 29.4927 33.2716 29.1727 33.6516C28.8527 34.0416 28.5927 34.4416 28.4027 34.8416C28.2227 35.2416 28.1227 35.6416 28.1127 36.0116C28.1127 36.3816 28.2127 36.7016 28.3927 36.9416C28.5727 37.1816 28.8427 37.3616 29.1727 37.4616C29.5027 37.5616 29.9027 37.5916 30.3427 37.5316C30.7927 37.4716 31.2727 37.3316 31.7927 37.1016C32.3027 36.8716 32.7927 36.5716 33.2427 36.2316C33.6827 35.8916 34.0827 35.5016 34.4127 35.1016C34.7427 34.7016 35.0027 34.2816 35.1727 33.8716C35.3427 33.4616 35.4327 33.0616 35.4127 32.6916L35.4327 32.7016Z" fill="url(#paint0_radial_15891_10862)"/>
<path d="M10.8827 3.06154C8.05269 4.82154 6.3627 5.75154 4.2827 8.30154C3.4527 9.32154 2.96269 9.90154 2.38269 11.0915C2.09269 11.6815 1.7527 12.6515 1.7527 12.6515L1.61269 13.7415L1.3927 15.2115L1.2827 16.5315L1.2627 16.9815C1.2627 16.8715 1.2727 16.7515 1.2827 16.6415C1.2927 16.5215 1.3127 16.4015 1.3227 16.2815C1.3427 16.1615 1.3627 16.0415 1.3927 15.9115C1.4227 15.7915 1.4527 15.6615 1.4827 15.5315C1.8227 14.2315 2.4027 12.8615 3.3227 11.3215C4.3327 9.63154 5.1127 8.77154 6.5127 7.40154C7.9027 6.04154 8.8327 5.05154 10.5127 3.82154C11.5327 3.07154 14.0327 1.50154 15.5027 1.30154C16.0927 1.22154 14.1627 1.36154 13.4127 1.72154C12.3927 2.20154 11.8427 2.48154 10.9027 3.07154L10.8827 3.06154Z" fill="url(#paint1_radial_15891_10862)"/>
<path d="M31.4631 4.21158L30.3831 3.09157L29.2431 2.08158L28.6631 1.63158L27.3531 1.11158C26.6431 0.891577 25.7731 0.561577 24.8331 0.431577C23.9331 0.301577 22.5231 0.121577 21.4231 0.351577C20.3331 0.581577 19.6031 0.841577 18.3531 1.37158C17.1231 1.89158 15.8331 2.56158 14.4931 3.38158C12.6431 4.52158 10.8731 5.84158 9.24307 7.26158C7.61307 8.69158 6.11307 10.2316 4.81307 11.8116C3.50307 13.4016 2.37307 15.0416 1.51307 16.6416C0.643074 18.2716 0.273074 19.8716 0.0330745 21.3416C-0.0169255 21.6316 0.0330757 21.9016 0.00307568 22.1716C-0.0169243 22.4416 0.233074 24.1516 0.533074 25.3916C0.663074 25.9216 0.723073 26.2216 0.903073 26.7416C1.11307 27.3416 1.55307 28.2416 1.55307 28.2416L1.77307 28.6216L2.26307 29.4116C2.08307 29.1316 1.93307 28.8316 1.81307 28.5016C1.69307 28.1716 1.60307 27.8316 1.54307 27.4516C1.48307 27.0816 1.45307 26.6916 1.46307 26.2816C1.46307 25.8716 1.50308 25.4416 1.57308 24.9816C1.81308 23.3916 2.42308 21.6716 3.32308 19.9416C4.20308 18.2416 5.37307 16.5016 6.74307 14.8216C8.09307 13.1616 9.66307 11.5316 11.3631 10.0416C13.0631 8.55158 14.9231 7.17158 16.8731 5.99158C18.4531 5.04158 19.9831 4.28158 21.4231 3.72158C22.8831 3.15158 24.2731 2.79158 25.5331 2.62158C26.8131 2.45158 27.9831 2.49158 28.9831 2.74158C30.0031 3.00158 30.8531 3.48157 31.4731 4.18157" fill="url(#paint2_radial_15891_10862)"/>
<path d="M38.4227 12.7616L36.6427 8.07156L36.1827 7.04155C35.5627 6.00155 34.5427 5.32155 33.3827 4.90155C32.2427 4.49155 30.2227 4.51156 28.7127 4.67156C27.2327 4.82156 25.5927 5.25155 23.8727 5.93155C22.1727 6.60155 20.3727 7.54156 18.5327 8.73156C16.4827 10.0616 14.5627 11.6016 12.8127 13.2516C11.0727 14.9016 9.49272 16.6816 8.15272 18.4916C6.80272 20.3216 5.68272 22.2016 4.87272 24.0316C4.05272 25.8916 3.54272 27.7216 3.44272 29.4016C3.40272 30.0416 3.43272 30.6316 3.50272 31.1816C3.58272 31.7316 3.72272 32.2416 3.91272 32.7116C4.10272 33.1816 4.35272 33.6016 4.65272 33.9816C4.95272 34.3616 5.31272 34.6916 5.71272 34.9716L7.11272 35.8616L8.44272 36.5716L9.91272 37.2216L11.2327 37.6916C10.5927 37.4916 10.0327 37.2116 9.54272 36.8516C9.06272 36.4916 8.65272 36.0616 8.32272 35.5516C8.00272 35.0516 7.75272 34.4716 7.60272 33.8216C7.45272 33.1816 7.38272 32.4816 7.40272 31.7116C7.45272 30.1216 7.88272 28.4116 8.61272 26.6616C9.33272 24.9416 10.3527 23.1716 11.5927 21.4616C12.8227 19.7616 14.2827 18.1016 15.9027 16.5616C17.5227 15.0216 19.3227 13.6016 21.2427 12.3816C23.1627 11.1616 25.0327 10.2516 26.7827 9.64156C28.5627 9.02156 30.9027 8.57155 32.3827 8.58155C33.8927 8.59156 35.2127 8.93155 36.2527 9.61155C37.3127 10.3116 37.5127 11.4816 37.8627 12.9116L38.4227 12.7916V12.7616Z" fill="url(#paint3_radial_15891_10862)"/>
<path d="M39.8133 22.4616C39.5633 21.3416 38.9933 20.5016 38.1933 19.9116C37.4033 19.3416 36.3833 19.0216 35.2033 18.9616C34.0433 18.9016 32.7333 19.0916 31.3333 19.5316C29.9433 19.9616 28.4733 20.6316 26.9633 21.5516C25.4633 22.4616 24.0733 23.5416 22.8133 24.7116C21.5633 25.8816 20.4533 27.1416 19.5333 28.4416C18.6133 29.7416 17.8733 31.0816 17.3833 32.3816C16.8833 33.6916 16.6333 34.9816 16.6933 36.1516C16.7433 37.2016 17.0333 38.0716 17.5233 38.7616C18.0233 39.4616 18.7333 39.9715 19.6133 40.2815C20.5033 40.6015 21.5633 40.7016 22.7533 40.5916C23.9533 40.4716 25.2933 40.1316 26.7033 39.5516L26.4433 39.6616L25.2133 40.1116L24.8433 40.2316L23.4933 40.6116L22.1033 40.9215L21.3433 41.0516L19.8233 41.2416L18.2633 41.3416H18.0433C16.9933 41.3016 16.1633 41.1616 15.3333 40.9816C14.5233 40.8016 13.8633 40.4016 13.3033 39.9116C12.7533 39.4216 12.3133 38.8215 12.0233 38.1015C11.7333 37.3916 11.5733 36.5816 11.5633 35.6616C11.5433 34.1916 11.9033 32.5916 12.5533 30.9616C13.2033 29.3516 14.1433 27.6916 15.3133 26.0816C16.4733 24.4816 17.8633 22.9116 19.4133 21.4616C20.9733 20.0116 22.7033 18.6616 24.5633 17.5116C26.4333 16.3516 28.2633 15.4916 29.9833 14.9216C31.7233 14.3416 33.3633 14.0716 34.8133 14.1016C36.2933 14.1316 38.2033 14.5716 39.2033 15.2416C40.0733 15.8316 40.6133 16.2116 41.1433 17.2116C41.2533 17.4216 41.2333 17.6116 41.3133 17.8216C41.2933 18.1816 41.0833 20.1216 41.0133 20.4716C40.9433 20.8216 40.8633 21.1716 40.7633 21.5216C40.6633 21.8716 39.9233 22.1216 39.8033 22.4716" fill="url(#paint4_radial_15891_10862)"/>
<path d="M22.6934 2.78157C22.4934 3.45157 22.0334 4.16157 21.3834 4.89157C20.7234 5.62157 19.8635 6.36157 18.8535 7.07157C17.8435 7.78157 16.6934 8.44157 15.4734 9.02157C14.2534 9.60157 12.9635 10.0916 11.6735 10.4516C10.3835 10.8116 9.23345 11.0016 8.23345 11.0416C7.25345 11.0816 6.43345 10.9716 5.81345 10.7316C5.20345 10.4916 4.79345 10.1316 4.62345 9.65157C4.44345 9.18157 4.49345 8.60157 4.80345 7.93157C4.89345 7.73157 5.00345 7.52157 5.14345 7.31157C5.27345 7.10157 5.42345 6.89157 5.59345 6.68157C5.76345 6.47157 5.94345 6.26157 6.14345 6.05157C6.34345 5.84157 6.55345 5.63157 6.78345 5.43157L7.39345 4.89157L7.99345 4.40157L8.56345 3.97157L9.13345 3.57157L9.69345 3.20157L10.2435 2.87157L10.7835 2.56157C10.7835 2.56157 9.68345 3.40157 9.15345 4.08157C8.85345 4.46157 8.60345 4.80157 8.46345 5.13157C8.32345 5.46157 8.31345 5.74157 8.41345 5.96157C8.51345 6.19157 8.72345 6.35157 9.04345 6.46157C9.35345 6.56157 9.76345 6.61157 10.2535 6.58157C10.7435 6.55157 11.3135 6.45157 11.9335 6.27157C12.5635 6.09157 13.1935 5.85157 13.7835 5.57157C14.3735 5.29157 14.9335 4.97157 15.4335 4.63157C15.9235 4.29157 16.3534 3.93157 16.6934 3.58157C17.0234 3.23157 17.2634 2.88157 17.3834 2.55157C17.4934 2.23157 17.4835 1.95157 17.3535 1.74157C17.2235 1.53157 16.9834 1.38157 16.6634 1.29157C16.3334 1.20157 15.9334 1.22157 15.4534 1.31157C14.9834 1.40157 14.4435 1.44157 13.8435 1.62157C13.4535 1.74157 13.2335 1.82157 12.8535 1.99157C13.9935 1.40157 14.6735 1.12157 15.9035 0.731572C16.6935 0.481572 17.2435 0.341571 17.9735 0.211571C18.8235 0.0615711 19.5335 0.0715729 20.1835 0.121573C20.8335 0.171573 21.3834 0.311572 21.8034 0.521572C22.2334 0.741572 22.5434 1.03157 22.7034 1.41157C22.8634 1.79157 22.8835 2.24157 22.7235 2.77157L22.6934 2.78157Z" fill="#EC1C24"/>
<path d="M38.6135 31.1516C38.6135 31.1516 38.3335 31.9216 38.0735 32.3716C37.8335 32.7916 37.3735 33.3916 37.3735 33.3916C37.3735 33.3916 37.2235 33.5916 37.1135 33.7216C36.8335 34.0816 36.3535 34.6316 36.3535 34.6316L35.7235 35.3216C35.0735 36.0016 34.3235 36.6516 33.5035 37.2616C32.6735 37.8816 31.7835 38.4516 30.8235 38.9716C29.8735 39.4916 28.8635 39.9616 27.8235 40.3516C26.7835 40.7416 25.7235 41.0616 24.6435 41.2816C24.4335 41.3316 24.2235 41.3716 24.0135 41.4016C23.8035 41.4316 23.6035 41.4716 23.4035 41.5016C23.2035 41.5316 23.0035 41.5516 22.8035 41.5816C22.6035 41.6016 22.4135 41.6216 22.2235 41.6316L21.0535 41.6816H20.7935L19.5335 41.6516L18.2535 41.5316C18.2535 41.5316 18.0335 41.5016 17.8935 41.4816C17.3635 41.4116 17.0635 41.3616 16.5435 41.2516C16.0135 41.1416 15.1835 40.9216 15.1835 40.9216L14.5035 40.6916L14.3135 40.6016C14.7935 40.7916 15.4235 40.9716 16.0535 41.0616C16.6835 41.1616 17.3535 41.2116 18.0635 41.2216C18.7735 41.2216 19.5335 41.1916 20.3135 41.1116C21.1035 41.0316 21.9235 40.9016 22.7835 40.7116C24.7335 40.2916 26.6735 39.6516 28.5135 38.8316C30.3535 38.0116 32.0835 37.0316 33.6335 35.9316C35.1735 34.8416 36.5235 33.6516 37.6135 32.4116C37.9935 31.9816 38.3035 31.5916 38.6235 31.1216C38.6335 31.1016 38.6235 31.1416 38.6235 31.1416L38.6135 31.1516Z" fill="#EC1C24"/>
<path d="M27.3935 1.12155L28.7635 1.64155L30.1135 2.26155L30.5935 2.51155C30.9735 2.71155 31.3035 2.94155 31.5835 3.21155C31.8635 3.48155 32.0935 3.78155 32.2535 4.11155C32.4235 4.45155 32.5335 4.81155 32.5735 5.21155C32.6135 5.61155 32.5935 6.05155 32.5035 6.52155C32.2535 7.75155 31.5335 9.09155 30.4335 10.4415C29.3135 11.8215 27.8035 13.2015 26.0035 14.5115C24.1935 15.8315 22.1135 17.0716 19.8835 18.1416C17.6535 19.2015 15.2835 20.0815 12.9235 20.6915C10.8135 21.2316 8.89354 21.5115 7.22354 21.5515C5.58354 21.5916 4.18354 21.3915 3.09354 20.9915C2.02354 20.6015 1.23354 20.0115 0.77354 19.2615C0.32354 18.5215 0.193541 17.6315 0.403541 16.6015L0.503543 16.1616L0.893543 14.7115L1.38354 13.3115L1.88354 12.1215L2.34354 11.1515L2.26354 11.3515L2.24354 11.3916C1.80354 12.3616 1.72354 13.2015 1.94354 13.9015C2.17354 14.6215 2.73354 15.1815 3.59354 15.5615C4.46354 15.9515 5.62354 16.1416 7.03354 16.1215C8.46354 16.0915 10.1435 15.8415 12.0135 15.3415C13.8935 14.8315 15.7735 14.1315 17.5535 13.2815C19.3335 12.4315 20.9935 11.4615 22.4535 10.4215C23.8935 9.39155 25.1235 8.30155 26.0535 7.22155C26.9735 6.16155 27.5835 5.11155 27.8235 4.14155C27.9435 3.64155 27.9635 3.18155 27.8835 2.78155C27.8035 2.38155 27.6335 2.02155 27.3835 1.71155C27.1335 1.40155 26.7935 1.15155 26.3835 0.941549C26.1035 0.801549 25.8035 0.681549 25.4635 0.591549L24.9635 0.461548C25.1835 0.491548 25.3035 0.511548 25.4635 0.561548C25.4635 0.561548 25.9535 0.681549 26.2635 0.771549C26.7135 0.901549 27.4035 1.14155 27.4035 1.14155L27.3935 1.12155Z" fill="#EC1C24"/>
<path d="M36.4935 7.23158L37.5135 8.51158L38.4435 9.88158L38.8535 10.5816C38.9735 10.8016 39.0835 11.0316 39.1635 11.2716C39.2535 11.5116 39.3135 11.7616 39.3635 12.0216C39.4135 12.2816 39.4335 12.5516 39.4435 12.8416C39.4435 13.1216 39.4335 13.4216 39.3935 13.7216C39.1935 15.2916 38.4135 16.9816 37.1535 18.6816C35.8735 20.4116 34.1135 22.1516 31.9835 23.7816C29.8335 25.4316 27.3435 26.9516 24.6535 28.2416C21.9635 29.5316 19.1035 30.5616 16.2335 31.2316C14.1935 31.7116 12.2935 31.9716 10.5735 32.0316C8.88351 32.0916 7.37351 31.9616 6.09351 31.6516C4.82351 31.3516 3.77351 30.8916 2.95351 30.2816C2.15351 29.6816 1.58351 28.9516 1.26351 28.0916L0.943508 27.1616L0.50351 25.5716L0.193508 23.9616L0.133507 23.5116L0.0435069 22.6016C0.153507 23.4616 0.513507 24.2116 1.11351 24.8416C1.78351 25.5416 2.74351 26.0916 3.96351 26.4416C5.20351 26.8016 6.71351 26.9716 8.44351 26.9216C10.2035 26.8716 12.1835 26.5916 14.3435 26.0616C17.0435 25.3916 19.7435 24.4116 22.2935 23.1916C24.8335 21.9816 27.2035 20.5516 29.2435 19.0116C31.2635 17.4916 32.9535 15.8816 34.2035 14.2816C35.4235 12.7116 36.1935 11.1616 36.4235 9.72158C36.4835 9.32158 36.5035 8.93158 36.4835 8.57158C36.4635 8.21158 36.3935 7.87158 36.2935 7.55158C36.1935 7.23158 36.0535 6.93158 35.8735 6.66158C35.7635 6.49158 35.6435 6.33158 35.5135 6.18158L36.3635 7.07158L36.4935 7.22158V7.23158Z" fill="#EC1C24"/>
<path d="M41.5235 19.1816C41.6435 20.4816 41.6835 21.2316 41.4835 22.5216C41.1635 24.5116 40.6435 25.6816 39.5335 27.3016C38.3935 28.9516 36.8235 30.5816 34.9235 32.0916C33.0035 33.6216 30.7635 35.0216 28.3435 36.1816C25.9135 37.3416 23.3335 38.2616 20.7135 38.8216C19.3635 39.1216 18.0735 39.3016 16.8635 39.3816C15.6635 39.4716 14.5435 39.4516 13.5235 39.3416C12.5035 39.2316 11.5835 39.0416 10.7635 38.7616C9.9535 38.4816 9.2435 38.1316 8.6435 37.7016L7.38349 36.7216L6.33349 35.7716C6.33349 35.7716 5.61349 35.0716 5.20349 34.5916C4.90349 34.2416 4.47349 33.6716 4.47349 33.6716C4.96349 34.2216 5.5535 34.7016 6.3035 35.1016C7.1835 35.5616 8.2235 35.9116 9.4335 36.1216C10.6535 36.3416 12.0235 36.4116 13.5335 36.3416C15.0535 36.2716 16.7135 36.0416 18.4835 35.6416C21.3235 35.0016 24.1335 34.0016 26.7835 32.7316C29.4235 31.4616 31.8735 29.9516 33.9735 28.3016C36.0535 26.6716 37.7735 24.9316 39.0135 23.1716C40.2335 21.4516 40.9735 19.7416 41.1535 18.1316C41.1735 17.9616 41.1835 17.7916 41.1935 17.6216C41.1935 17.4516 41.1735 17.2716 41.1535 17.1216C41.1335 16.9516 41.3635 17.8516 41.3635 17.8516C41.3635 17.8516 41.4935 18.6516 41.5435 19.1616L41.5235 19.1816Z" fill="#EC1C24"/>
<defs>
<radialGradient id="paint0_radial_15891_10862" cx="0" cy="0" r="1" gradientUnits="userSpaceOnUse" gradientTransform="translate(7.95947 19.2908) scale(13.6864 13.6864)">
<stop stop-color="white"/>
<stop offset="0.18" stop-color="#FCE1D8"/>
<stop offset="0.47" stop-color="#F8AD93"/>
<stop offset="0.49" stop-color="#F7A58D"/>
<stop offset="0.74" stop-color="#F15B54"/>
<stop offset="0.91" stop-color="#ED2D31"/>
<stop offset="1" stop-color="#EC1C24"/>
</radialGradient>
<radialGradient id="paint1_radial_15891_10862" cx="0" cy="0" r="1" gradientUnits="userSpaceOnUse" gradientTransform="translate(-22.7973 3.87474) scale(13.2352)">
<stop stop-color="#FEFEFE"/>
<stop offset="0.06" stop-color="#FCE5DD"/>
<stop offset="0.12" stop-color="#FBD1C2"/>
<stop offset="0.19" stop-color="#F9C1AD"/>
<stop offset="0.27" stop-color="#F8B59E"/>
<stop offset="0.36" stop-color="#F8AF95"/>
<stop offset="0.5" stop-color="#F8AD93"/>
<stop offset="0.52" stop-color="#F7A58D"/>
<stop offset="0.75" stop-color="#F15B54"/>
<stop offset="0.92" stop-color="#ED2D31"/>
<stop offset="1" stop-color="#EC1C24"/>
</radialGradient>
<radialGradient id="paint2_radial_15891_10862" cx="0" cy="0" r="1" gradientUnits="userSpaceOnUse" gradientTransform="translate(-3.32013 -7.93162) scale(32.1856 32.1856)">
<stop stop-color="white"/>
<stop offset="0.05" stop-color="#FDF0EC"/>
<stop offset="0.2" stop-color="#FACCBC"/>
<stop offset="0.31" stop-color="#F8B59E"/>
<stop offset="0.38" stop-color="#F8AD93"/>
<stop offset="0.46" stop-color="#F7A68E"/>
<stop offset="0.57" stop-color="#F69581"/>
<stop offset="0.7" stop-color="#F3796B"/>
<stop offset="0.84" stop-color="#F0524D"/>
<stop offset="0.99" stop-color="#EC2027"/>
<stop offset="1" stop-color="#EC1C24"/>
</radialGradient>
<radialGradient id="paint3_radial_15891_10862" cx="0" cy="0" r="1" gradientUnits="userSpaceOnUse" gradientTransform="translate(-0.0868785 -0.862846) scale(39.1792 39.1792)">
<stop stop-color="white"/>
<stop offset="0.02" stop-color="#FEF8F6"/>
<stop offset="0.15" stop-color="#FBD7CB"/>
<stop offset="0.26" stop-color="#F9C0AC"/>
<stop offset="0.35" stop-color="#F8B299"/>
<stop offset="0.42" stop-color="#F8AD93"/>
<stop offset="0.52" stop-color="#F6977B"/>
<stop offset="1" stop-color="#EC1C24"/>
</radialGradient>
<radialGradient id="paint4_radial_15891_10862" cx="0" cy="0" r="1" gradientUnits="userSpaceOnUse" gradientTransform="translate(6.23049 6.35635) scale(31.5088)">
<stop stop-color="white"/>
<stop offset="0.18" stop-color="#FCE1D8"/>
<stop offset="0.47" stop-color="#F8AD93"/>
<stop offset="0.49" stop-color="#F7A58D"/>
<stop offset="0.74" stop-color="#F15B54"/>
<stop offset="0.91" stop-color="#ED2D31"/>
<stop offset="1" stop-color="#EC1C24"/>
</radialGradient>
</defs>
</svg>
