<svg width="24" height="25" viewBox="0 0 24 25" fill="none" xmlns="http://www.w3.org/2000/svg">
<path d="M12 2.47832C15.2063 2.47832 15.5859 2.49238 16.8469 2.54863C18.0188 2.6002 18.6516 2.79707 19.0734 2.96113C19.6313 3.17676 20.0344 3.43926 20.4516 3.85645C20.8734 4.27832 21.1313 4.67676 21.3469 5.23457C21.5109 5.65645 21.7078 6.29395 21.7594 7.46113C21.8156 8.72676 21.8297 9.10645 21.8297 12.308C21.8297 15.5143 21.8156 15.8939 21.7594 17.1549C21.7078 18.3268 21.5109 18.9596 21.3469 19.3814C21.1313 19.9393 20.8687 20.3424 20.4516 20.7596C20.0297 21.1814 19.6313 21.4393 19.0734 21.6549C18.6516 21.8189 18.0141 22.0158 16.8469 22.0674C15.5813 22.1236 15.2016 22.1377 12 22.1377C8.79375 22.1377 8.41406 22.1236 7.15313 22.0674C5.98125 22.0158 5.34844 21.8189 4.92656 21.6549C4.36875 21.4393 3.96563 21.1768 3.54844 20.7596C3.12656 20.3377 2.86875 19.9393 2.65313 19.3814C2.48906 18.9596 2.29219 18.3221 2.24063 17.1549C2.18438 15.8893 2.17031 15.5096 2.17031 12.308C2.17031 9.10176 2.18438 8.72207 2.24063 7.46113C2.29219 6.28926 2.48906 5.65645 2.65313 5.23457C2.86875 4.67676 3.13125 4.27363 3.54844 3.85645C3.97031 3.43457 4.36875 3.17676 4.92656 2.96113C5.34844 2.79707 5.98594 2.6002 7.15313 2.54863C8.41406 2.49238 8.79375 2.47832 12 2.47832ZM12 0.317383C8.74219 0.317383 8.33438 0.331445 7.05469 0.387695C5.77969 0.443945 4.90313 0.650195 4.14375 0.945508C3.35156 1.25488 2.68125 1.6627 2.01563 2.33301C1.34531 2.99863 0.9375 3.66895 0.628125 4.45645C0.332812 5.22051 0.126563 6.09238 0.0703125 7.36738C0.0140625 8.65176 0 9.05957 0 12.3174C0 15.5752 0.0140625 15.983 0.0703125 17.2627C0.126563 18.5377 0.332812 19.4143 0.628125 20.1736C0.9375 20.9658 1.34531 21.6361 2.01563 22.3018C2.68125 22.9674 3.35156 23.3799 4.13906 23.6846C4.90313 23.9799 5.775 24.1861 7.05 24.2424C8.32969 24.2986 8.7375 24.3127 11.9953 24.3127C15.2531 24.3127 15.6609 24.2986 16.9406 24.2424C18.2156 24.1861 19.0922 23.9799 19.8516 23.6846C20.6391 23.3799 21.3094 22.9674 21.975 22.3018C22.6406 21.6361 23.0531 20.9658 23.3578 20.1783C23.6531 19.4143 23.8594 18.5424 23.9156 17.2674C23.9719 15.9877 23.9859 15.5799 23.9859 12.3221C23.9859 9.06426 23.9719 8.65645 23.9156 7.37676C23.8594 6.10176 23.6531 5.2252 23.3578 4.46582C23.0625 3.66895 22.6547 2.99863 21.9844 2.33301C21.3188 1.66738 20.6484 1.25488 19.8609 0.950195C19.0969 0.654883 18.225 0.448633 16.95 0.392383C15.6656 0.331445 15.2578 0.317383 12 0.317383Z" fill="#BBA5FE"/>
<path d="M12 6.15332C8.59688 6.15332 5.83594 8.91426 5.83594 12.3174C5.83594 15.7205 8.59688 18.4814 12 18.4814C15.4031 18.4814 18.1641 15.7205 18.1641 12.3174C18.1641 8.91426 15.4031 6.15332 12 6.15332ZM12 16.3158C9.79219 16.3158 8.00156 14.5252 8.00156 12.3174C8.00156 10.1096 9.79219 8.31895 12 8.31895C14.2078 8.31895 15.9984 10.1096 15.9984 12.3174C15.9984 14.5252 14.2078 16.3158 12 16.3158Z" fill="#BBA5FE"/>
<path d="M19.8469 5.90977C19.8469 6.70664 19.2 7.34883 18.4078 7.34883C17.6109 7.34883 16.9688 6.70196 16.9688 5.90977C16.9688 5.11289 17.6156 4.4707 18.4078 4.4707C19.2 4.4707 19.8469 5.11758 19.8469 5.90977Z" fill="#BBA5FE"/>
</svg>
