<svg width="24" height="25" viewBox="0 0 24 25" fill="none" xmlns="http://www.w3.org/2000/svg">
<path d="M22.2234 0.317383H1.77187C0.792187 0.317383 0 1.09082 0 2.04707V22.583C0 23.5393 0.792187 24.3174 1.77187 24.3174H22.2234C23.2031 24.3174 24 23.5393 24 22.5877V2.04707C24 1.09082 23.2031 0.317383 22.2234 0.317383ZM7.12031 20.7689H3.55781V9.31269H7.12031V20.7689ZM5.33906 7.75176C4.19531 7.75176 3.27188 6.82832 3.27188 5.68926C3.27188 4.5502 4.19531 3.62676 5.33906 3.62676C6.47813 3.62676 7.40156 4.5502 7.40156 5.68926C7.40156 6.82363 6.47813 7.75176 5.33906 7.75176ZM20.4516 20.7689H16.8937V15.2002C16.8937 13.8736 16.8703 12.1627 15.0422 12.1627C13.1906 12.1627 12.9094 13.6111 12.9094 15.1064V20.7689H9.35625V9.31269H12.7687V10.8783H12.8156C13.2891 9.97832 14.4516 9.02676 16.1813 9.02676C19.7859 9.02676 20.4516 11.3986 20.4516 14.483V20.7689Z" fill="#BBA5FE"/>
</svg>
