<svg width="24" height="18" viewBox="0 0 24 18" fill="none" xmlns="http://www.w3.org/2000/svg">
<path d="M23.7609 4.51719C23.7609 4.51719 23.5266 2.8625 22.8047 2.13594C21.8906 1.17969 20.8688 1.175 20.4 1.11875C17.0438 0.875 12.0047 0.875 12.0047 0.875H11.9953C11.9953 0.875 6.95625 0.875 3.6 1.11875C3.13125 1.175 2.10938 1.17969 1.19531 2.13594C0.473438 2.8625 0.24375 4.51719 0.24375 4.51719C0.24375 4.51719 0 6.4625 0 8.40313V10.2219C0 12.1625 0.239062 14.1078 0.239062 14.1078C0.239062 14.1078 0.473437 15.7625 1.19062 16.4891C2.10469 17.4453 3.30469 17.4125 3.83906 17.5156C5.76094 17.6984 12 17.7547 12 17.7547C12 17.7547 17.0438 17.7453 20.4 17.5063C20.8688 17.45 21.8906 17.4453 22.8047 16.4891C23.5266 15.7625 23.7609 14.1078 23.7609 14.1078C23.7609 14.1078 24 12.1672 24 10.2219V8.40313C24 6.4625 23.7609 4.51719 23.7609 4.51719ZM9.52031 12.4297V5.68437L16.0031 9.06875L9.52031 12.4297Z" fill="#BBA5FE"/>
</svg>
