<svg width="253" height="279" viewBox="0 0 253 279" fill="none" xmlns="http://www.w3.org/2000/svg">
<path d="M105.999 256.567C105.215 256.832 104.793 257.683 105.058 258.468C105.322 259.253 106.173 259.675 106.958 259.41L105.999 256.567ZM237.692 173.602L239.027 172.917L239.027 172.917L237.692 173.602ZM113.856 196.892L112.527 197.586L112.527 197.586L113.856 196.892ZM190.449 103.581L189.159 104.346L189.159 104.347L190.449 103.581ZM75.1238 120.758L73.8338 121.523L73.8338 121.524L75.1238 120.758ZM116.536 48.7528L115.265 49.5498L115.265 49.55L116.536 48.7528ZM50.8444 49.1312C50.1197 48.7299 49.2068 48.9922 48.8055 49.7169C48.4042 50.4417 48.6664 51.3545 49.3912 51.7558L50.8444 49.1312ZM128.604 272.094C129.422 272.222 130.19 271.663 130.318 270.845C130.447 270.026 129.887 269.259 129.069 269.13L128.604 272.094ZM105.112 260.514L105.768 259.165L105.764 259.163L105.112 260.514ZM104.031 256.672L105.295 257.48L105.296 257.477L104.031 256.672ZM119.215 235.587C119.659 234.888 119.453 233.961 118.754 233.516C118.055 233.072 117.128 233.278 116.683 233.977L119.215 235.587ZM106.479 257.989C106.958 259.41 106.959 259.41 106.96 259.409C106.962 259.409 106.963 259.408 106.966 259.408C106.971 259.406 106.978 259.404 106.987 259.4C107.005 259.394 107.033 259.385 107.069 259.373C107.141 259.348 107.249 259.312 107.39 259.263C107.673 259.167 108.091 259.023 108.636 258.834C109.725 258.457 111.319 257.9 113.34 257.179C117.383 255.737 123.136 253.639 129.985 251.015C143.678 245.768 161.765 238.411 179.314 229.977C196.839 221.554 213.924 212.011 225.548 202.375C231.353 197.563 235.902 192.643 238.425 187.736C240.974 182.777 241.494 177.729 239.027 172.917L236.357 174.286C238.276 178.027 237.984 182.031 235.757 186.364C233.502 190.749 229.307 195.362 223.634 200.065C212.3 209.46 195.486 218.875 178.014 227.273C160.567 235.659 142.562 242.983 128.911 248.214C122.088 250.828 116.357 252.918 112.333 254.353C110.321 255.071 108.735 255.625 107.654 256C107.114 256.187 106.699 256.329 106.42 256.424C106.281 256.472 106.175 256.508 106.105 256.532C106.069 256.544 106.043 256.553 106.025 256.559C106.016 256.562 106.01 256.564 106.006 256.565C106.003 256.566 106.002 256.567 106.001 256.567C106 256.567 105.999 256.567 106.479 257.989ZM239.027 172.917C236.624 168.233 232.889 165.529 228.249 164.391C223.683 163.272 218.308 163.681 212.521 165.015C200.955 167.681 187.147 174.196 173.646 180.865C160.053 187.579 146.773 194.448 136.02 198.039C130.639 199.836 126.059 200.75 122.484 200.492C118.997 200.24 116.596 198.896 115.186 196.197L112.527 197.586C114.529 201.419 118.008 203.176 122.268 203.484C126.44 203.786 131.474 202.72 136.97 200.884C147.974 197.21 161.509 190.206 174.975 183.555C188.533 176.857 202.028 170.512 213.195 167.938C218.774 166.652 223.621 166.345 227.535 167.305C231.373 168.246 234.372 170.415 236.357 174.286L239.027 172.917ZM115.186 196.197C114.17 194.251 114.445 192.035 116.217 189.279C118.009 186.492 121.176 183.428 125.373 180.094C133.773 173.42 145.701 166.106 157.482 158.088C169.163 150.138 180.656 141.521 187.776 132.393C191.347 127.816 193.888 123.026 194.753 118.047C195.624 113.028 194.772 107.925 191.738 102.815L189.159 104.347C191.841 108.864 192.542 113.245 191.797 117.534C191.045 121.863 188.801 126.203 185.411 130.548C178.611 139.265 167.483 147.653 155.794 155.608C144.207 163.494 132.018 170.982 123.507 177.745C119.248 181.129 115.761 184.441 113.694 187.656C111.607 190.901 110.818 194.313 112.527 197.586L115.186 196.197ZM191.739 102.815C189.442 98.9448 185.985 96.8938 181.803 96.2121C177.694 95.5426 172.898 96.1902 167.749 97.595C157.46 100.402 145.149 106.42 132.974 112.216C120.702 118.059 108.56 123.682 98.3543 125.934C93.2607 127.058 88.7871 127.308 85.0922 126.414C81.4578 125.535 78.5181 123.538 76.4137 119.992L73.8338 121.524C76.3713 125.799 80.006 128.271 84.3868 129.33C88.7072 130.375 93.6895 130.035 99.0008 128.863C109.605 126.523 122.069 120.731 134.264 114.925C146.555 109.073 158.573 103.208 168.538 100.489C173.517 99.1308 177.829 98.6042 181.32 99.173C184.736 99.7298 187.369 101.33 189.159 104.346L191.739 102.815ZM76.4138 119.993C73.3516 114.832 74.6895 109.453 78.8713 103.539C83.0711 97.5999 89.8536 91.5573 96.824 85.3997C103.71 79.3169 110.789 73.1139 115.229 66.9991C117.458 63.9287 119.103 60.7758 119.688 57.571C120.282 54.3162 119.767 51.0804 117.807 47.9555L115.265 49.55C116.815 52.0199 117.2 54.4911 116.736 57.0323C116.263 59.6236 114.893 62.3558 112.801 65.2365C108.599 71.0241 101.815 76.9876 94.8378 83.1513C87.9453 89.2402 80.8646 95.5241 76.4218 101.807C71.961 108.115 69.8768 114.855 73.8338 121.523L76.4138 119.993ZM117.807 47.9557C114.912 43.3407 109.782 41.945 104.063 42.0128C98.3391 42.0806 91.5881 43.6113 84.8561 45.326C78.0481 47.0599 71.2489 48.9844 65.1803 49.9754C59.0489 50.9766 54.1054 50.9369 50.8444 49.1312L49.3912 51.7558C53.622 54.0984 59.4869 53.9448 65.6638 52.9361C71.9036 51.9172 78.9127 49.9355 85.5965 48.2332C92.3563 46.5115 98.7806 45.0756 104.099 45.0126C109.422 44.9495 113.201 46.2585 115.265 49.5498L117.807 47.9557ZM129.069 269.13C129.076 269.131 129.056 269.128 128.999 269.114C128.945 269.1 128.873 269.08 128.781 269.052C128.597 268.996 128.36 268.917 128.069 268.814C127.488 268.608 126.733 268.32 125.842 267.968C124.064 267.264 121.783 266.315 119.347 265.273C114.471 263.186 109.016 260.743 105.768 259.165L104.456 261.863C107.767 263.472 113.272 265.936 118.167 268.031C120.616 269.079 122.924 270.04 124.738 270.758C125.644 271.116 126.437 271.418 127.067 271.641C127.647 271.847 128.217 272.033 128.604 272.094L129.069 269.13ZM105.764 259.163C105.137 258.86 104.912 258.079 105.295 257.48L102.766 255.865C101.425 257.965 102.199 260.773 104.46 261.865L105.764 259.163ZM105.296 257.477L119.215 235.587L116.683 233.977L102.765 255.868L105.296 257.477Z" fill="#5423E6"/>
</svg>
