<svg width="52" height="52" viewBox="0 0 52 52" fill="none" xmlns="http://www.w3.org/2000/svg">
<g filter="url(#filter0_dii_15515_8586)">
<path d="M2 25C2 11.7452 12.7452 1 26 1C39.2548 1 50 11.7452 50 25C50 38.2548 39.2548 49 26 49C12.7452 49 2 38.2548 2 25Z" fill="#5423E6"/>
<path d="M3 25C3 12.2975 13.2975 2 26 2C38.7025 2 49 12.2975 49 25C49 37.7025 38.7025 48 26 48C13.2975 48 3 37.7025 3 25Z" stroke="url(#paint0_linear_15515_8586)" stroke-width="2"/>
<path d="M31 33H30.8C29.1198 33 28.2798 33 27.638 32.673C27.0735 32.3854 26.6146 31.9265 26.327 31.362C26 30.7202 26 29.8802 26 28.2V21.8C26 20.1198 26 19.2798 26.327 18.638C26.6146 18.0735 27.0735 17.6146 27.638 17.327C28.2798 17 29.1198 17 30.8 17H31M31 33C31 34.1046 31.8954 35 33 35C34.1046 35 35 34.1046 35 33C35 31.8954 34.1046 31 33 31C31.8954 31 31 31.8954 31 33ZM31 17C31 18.1046 31.8954 19 33 19C34.1046 19 35 18.1046 35 17C35 15.8954 34.1046 15 33 15C31.8954 15 31 15.8954 31 17ZM21 25L31 25M21 25C21 26.1046 20.1046 27 19 27C17.8954 27 17 26.1046 17 25C17 23.8954 17.8954 23 19 23C20.1046 23 21 23.8954 21 25ZM31 25C31 26.1046 31.8954 27 33 27C34.1046 27 35 26.1046 35 25C35 23.8954 34.1046 23 33 23C31.8954 23 31 23.8954 31 25Z" stroke="#FDFDFE" stroke-width="2" stroke-linecap="round" stroke-linejoin="round"/>
</g>
<defs>
<filter id="filter0_dii_15515_8586" x="0" y="0" width="52" height="52" filterUnits="userSpaceOnUse" color-interpolation-filters="sRGB">
<feFlood flood-opacity="0" result="BackgroundImageFix"/>
<feColorMatrix in="SourceAlpha" type="matrix" values="0 0 0 0 0 0 0 0 0 0 0 0 0 0 0 0 0 0 127 0" result="hardAlpha"/>
<feOffset dy="1"/>
<feGaussianBlur stdDeviation="1"/>
<feComposite in2="hardAlpha" operator="out"/>
<feColorMatrix type="matrix" values="0 0 0 0 0.0627451 0 0 0 0 0.0941176 0 0 0 0 0.156863 0 0 0 0.05 0"/>
<feBlend mode="normal" in2="BackgroundImageFix" result="effect1_dropShadow_15515_8586"/>
<feBlend mode="normal" in="SourceGraphic" in2="effect1_dropShadow_15515_8586" result="shape"/>
<feColorMatrix in="SourceAlpha" type="matrix" values="0 0 0 0 0 0 0 0 0 0 0 0 0 0 0 0 0 0 127 0" result="hardAlpha"/>
<feOffset dy="-2"/>
<feComposite in2="hardAlpha" operator="arithmetic" k2="-1" k3="1"/>
<feColorMatrix type="matrix" values="0 0 0 0 0.0627451 0 0 0 0 0.0941176 0 0 0 0 0.156863 0 0 0 0.05 0"/>
<feBlend mode="normal" in2="shape" result="effect2_innerShadow_15515_8586"/>
<feColorMatrix in="SourceAlpha" type="matrix" values="0 0 0 0 0 0 0 0 0 0 0 0 0 0 0 0 0 0 127 0" result="hardAlpha"/>
<feMorphology radius="1" operator="erode" in="SourceAlpha" result="effect3_innerShadow_15515_8586"/>
<feOffset/>
<feComposite in2="hardAlpha" operator="arithmetic" k2="-1" k3="1"/>
<feColorMatrix type="matrix" values="0 0 0 0 0.0627451 0 0 0 0 0.0941176 0 0 0 0 0.156863 0 0 0 0.18 0"/>
<feBlend mode="normal" in2="effect2_innerShadow_15515_8586" result="effect3_innerShadow_15515_8586"/>
</filter>
<linearGradient id="paint0_linear_15515_8586" x1="26" y1="1" x2="26" y2="49" gradientUnits="userSpaceOnUse">
<stop stop-color="white" stop-opacity="0.12"/>
<stop offset="1" stop-color="white" stop-opacity="0"/>
</linearGradient>
</defs>
</svg>
