<svg width="52" height="52" viewBox="0 0 52 52" fill="none" xmlns="http://www.w3.org/2000/svg">
<g filter="url(#filter0_dii_15515_8602)">
<path d="M2 25C2 11.7452 12.7452 1 26 1C39.2548 1 50 11.7452 50 25C50 38.2548 39.2548 49 26 49C12.7452 49 2 38.2548 2 25Z" fill="#5423E6"/>
<path d="M3 25C3 12.2975 13.2975 2 26 2C38.7025 2 49 12.2975 49 25C49 37.7025 38.7025 48 26 48C13.2975 48 3 37.7025 3 25Z" stroke="url(#paint0_linear_15515_8602)" strokeWidth="2"/>
<path d="M27 32.0005H31.2942C33.1594 32.0005 34.092 32.0005 34.6215 31.6097C35.0832 31.2689 35.3763 30.7464 35.4263 30.1748C35.4836 29.5191 34.9973 28.7234 34.0247 27.1318L33.0278 25.5005M20.1301 23.6057L17.9753 27.1318C17.0027 28.7234 16.5164 29.5191 16.5737 30.1748C16.6237 30.7464 16.9168 31.2689 17.3785 31.6097C17.908 32.0005 18.8406 32.0005 20.7058 32.0005H22.5M30.8889 22.0005L28.7305 18.4686C27.8277 16.9913 27.3763 16.2526 26.7952 16.0008C26.2879 15.781 25.7121 15.781 25.2048 16.0008C24.6237 16.2526 24.1723 16.9913 23.2695 18.4686L22.2497 20.1374M32 18.0005L30.9019 22.0986L26.8038 21.0005M16 24.5986L20.0981 23.5005L21.1962 27.5986M29.5 35.0005L26.5 32.0005L29.5 29.0005" stroke="#FDFDFE" strokeWidth="2" strokeLinecap="round" strokeLinejoin="round"/>
</g>
<defs>
<filter id="filter0_dii_15515_8602" x="0" y="0" width="52" height="52" filterUnits="userSpaceOnUse" color-interpolation-filters="sRGB">
<feFlood flood-opacity="0" result="BackgroundImageFix"/>
<feColorMatrix in="SourceAlpha" type="matrix" values="0 0 0 0 0 0 0 0 0 0 0 0 0 0 0 0 0 0 127 0" result="hardAlpha"/>
<feOffset dy="1"/>
<feGaussianBlur stdDeviation="1"/>
<feComposite in2="hardAlpha" operator="out"/>
<feColorMatrix type="matrix" values="0 0 0 0 0.0627451 0 0 0 0 0.0941176 0 0 0 0 0.156863 0 0 0 0.05 0"/>
<feBlend mode="normal" in2="BackgroundImageFix" result="effect1_dropShadow_15515_8602"/>
<feBlend mode="normal" in="SourceGraphic" in2="effect1_dropShadow_15515_8602" result="shape"/>
<feColorMatrix in="SourceAlpha" type="matrix" values="0 0 0 0 0 0 0 0 0 0 0 0 0 0 0 0 0 0 127 0" result="hardAlpha"/>
<feOffset dy="-2"/>
<feComposite in2="hardAlpha" operator="arithmetic" k2="-1" k3="1"/>
<feColorMatrix type="matrix" values="0 0 0 0 0.0627451 0 0 0 0 0.0941176 0 0 0 0 0.156863 0 0 0 0.05 0"/>
<feBlend mode="normal" in2="shape" result="effect2_innerShadow_15515_8602"/>
<feColorMatrix in="SourceAlpha" type="matrix" values="0 0 0 0 0 0 0 0 0 0 0 0 0 0 0 0 0 0 127 0" result="hardAlpha"/>
<feMorphology radius="1" operator="erode" in="SourceAlpha" result="effect3_innerShadow_15515_8602"/>
<feOffset/>
<feComposite in2="hardAlpha" operator="arithmetic" k2="-1" k3="1"/>
<feColorMatrix type="matrix" values="0 0 0 0 0.0627451 0 0 0 0 0.0941176 0 0 0 0 0.156863 0 0 0 0.18 0"/>
<feBlend mode="normal" in2="effect2_innerShadow_15515_8602" result="effect3_innerShadow_15515_8602"/>
</filter>
<linearGradient id="paint0_linear_15515_8602" x1="26" y1="1" x2="26" y2="49" gradientUnits="userSpaceOnUse">
<stop stop-color="white" stop-opacity="0.12"/>
<stop offset="1" stop-color="white" stop-opacity="0"/>
</linearGradient>
</defs>
</svg>
