<svg width="52" height="52" viewBox="0 0 52 52" fill="none" xmlns="http://www.w3.org/2000/svg">
<g filter="url(#filter0_dii_15515_8594)">
<path d="M2 25C2 11.7452 12.7452 1 26 1C39.2548 1 50 11.7452 50 25C50 38.2548 39.2548 49 26 49C12.7452 49 2 38.2548 2 25Z" fill="#5423E6"/>
<path d="M3 25C3 12.2975 13.2975 2 26 2C38.7025 2 49 12.2975 49 25C49 37.7025 38.7025 48 26 48C13.2975 48 3 37.7025 3 25Z" stroke="url(#paint0_linear_15515_8594)" strokeWidth="2"/>
<path d="M17.076 20.4828L21.364 23.5457C21.5872 23.705 21.6987 23.7847 21.8155 23.8031C21.9182 23.8192 22.0234 23.8029 22.1165 23.7565C22.2222 23.7037 22.3045 23.594 22.469 23.3747L23.3751 22.1665C23.4216 22.1045 23.4449 22.0735 23.4722 22.0467C23.4965 22.023 23.5232 22.0017 23.5517 21.9834C23.5839 21.9627 23.6193 21.947 23.6902 21.9155L27.5588 20.1961C27.7192 20.1248 27.7993 20.0892 27.8598 20.0335C27.9133 19.9843 27.9554 19.924 27.9832 19.8568C28.0146 19.7809 28.0204 19.6934 28.0321 19.5183L28.3154 15.2694M27.5 26.5L30.116 27.6211C30.4195 27.7512 30.5713 27.8163 30.6517 27.9243C30.7222 28.0191 30.7569 28.1358 30.7496 28.2537C30.7413 28.3881 30.6497 28.5255 30.4665 28.8002L29.2375 30.6438C29.1507 30.774 29.1072 30.8391 29.0499 30.8863C28.9991 30.928 28.9406 30.9593 28.8777 30.9784C28.8067 31 28.7284 31 28.5719 31H26.5766C26.3693 31 26.2656 31 26.1774 30.9653C26.0995 30.9347 26.0305 30.885 25.9768 30.8208C25.916 30.7481 25.8832 30.6497 25.8177 30.453L25.1048 28.3144C25.0661 28.1983 25.0468 28.1403 25.0417 28.0814C25.0372 28.0291 25.0409 27.9764 25.0528 27.9253C25.0662 27.8677 25.0935 27.813 25.1482 27.7036L25.6897 26.6206C25.7997 26.4005 25.8547 26.2905 25.9395 26.2222C26.0141 26.162 26.1046 26.1246 26.1999 26.1143C26.3081 26.1027 26.4248 26.1416 26.6582 26.2194L27.5 26.5ZM36 25C36 30.5228 31.5228 35 26 35C20.4772 35 16 30.5228 16 25C16 19.4772 20.4772 15 26 15C31.5228 15 36 19.4772 36 25Z" stroke="#FDFDFE" strokeWidth="2" strokeLinecap="round" strokeLinejoin="round"/>
</g>
<defs>
<filter id="filter0_dii_15515_8594" x="0" y="0" width="52" height="52" filterUnits="userSpaceOnUse" color-interpolation-filters="sRGB">
<feFlood flood-opacity="0" result="BackgroundImageFix"/>
<feColorMatrix in="SourceAlpha" type="matrix" values="0 0 0 0 0 0 0 0 0 0 0 0 0 0 0 0 0 0 127 0" result="hardAlpha"/>
<feOffset dy="1"/>
<feGaussianBlur stdDeviation="1"/>
<feComposite in2="hardAlpha" operator="out"/>
<feColorMatrix type="matrix" values="0 0 0 0 0.0627451 0 0 0 0 0.0941176 0 0 0 0 0.156863 0 0 0 0.05 0"/>
<feBlend mode="normal" in2="BackgroundImageFix" result="effect1_dropShadow_15515_8594"/>
<feBlend mode="normal" in="SourceGraphic" in2="effect1_dropShadow_15515_8594" result="shape"/>
<feColorMatrix in="SourceAlpha" type="matrix" values="0 0 0 0 0 0 0 0 0 0 0 0 0 0 0 0 0 0 127 0" result="hardAlpha"/>
<feOffset dy="-2"/>
<feComposite in2="hardAlpha" operator="arithmetic" k2="-1" k3="1"/>
<feColorMatrix type="matrix" values="0 0 0 0 0.0627451 0 0 0 0 0.0941176 0 0 0 0 0.156863 0 0 0 0.05 0"/>
<feBlend mode="normal" in2="shape" result="effect2_innerShadow_15515_8594"/>
<feColorMatrix in="SourceAlpha" type="matrix" values="0 0 0 0 0 0 0 0 0 0 0 0 0 0 0 0 0 0 127 0" result="hardAlpha"/>
<feMorphology radius="1" operator="erode" in="SourceAlpha" result="effect3_innerShadow_15515_8594"/>
<feOffset/>
<feComposite in2="hardAlpha" operator="arithmetic" k2="-1" k3="1"/>
<feColorMatrix type="matrix" values="0 0 0 0 0.0627451 0 0 0 0 0.0941176 0 0 0 0 0.156863 0 0 0 0.18 0"/>
<feBlend mode="normal" in2="effect2_innerShadow_15515_8594" result="effect3_innerShadow_15515_8594"/>
</filter>
<linearGradient id="paint0_linear_15515_8594" x1="26" y1="1" x2="26" y2="49" gradientUnits="userSpaceOnUse">
<stop stop-color="white" stop-opacity="0.12"/>
<stop offset="1" stop-color="white" stop-opacity="0"/>
</linearGradient>
</defs>
</svg>
