<svg width="303" height="239" viewBox="0 0 303 239" fill="none" xmlns="http://www.w3.org/2000/svg">
<path d="M241.75 232.262C241.557 233.067 242.053 233.877 242.858 234.071C243.663 234.265 244.473 233.769 244.667 232.963L241.75 232.262ZM119.683 120.512L118.578 121.526L118.578 121.526L119.683 120.512ZM208.474 80.5407L206.975 80.5751L206.975 80.5753L208.474 80.5407ZM30.454 51.24C29.8251 51.7792 29.7524 52.7262 30.2916 53.3551C30.8308 53.984 31.7778 54.0568 32.4067 53.5176L30.454 51.24ZM262.356 222.792C263.033 222.314 263.193 221.378 262.715 220.701C262.236 220.025 261.3 219.865 260.624 220.343L262.356 222.792ZM242.852 234.753L241.748 235.768C242.259 236.324 243.103 236.413 243.719 235.978L242.852 234.753ZM227.974 217.056C227.353 216.508 226.405 216.567 225.857 217.188C225.308 217.809 225.367 218.756 225.988 219.305L227.974 217.056ZM243.209 232.612C244.667 232.963 244.667 232.962 244.668 232.961C244.668 232.96 244.668 232.958 244.669 232.956C244.67 232.953 244.671 232.947 244.673 232.94C244.676 232.927 244.681 232.906 244.687 232.88C244.699 232.827 244.717 232.749 244.741 232.647C244.788 232.443 244.856 232.142 244.942 231.749C245.114 230.963 245.357 229.81 245.645 228.33C246.221 225.372 246.976 221.109 247.694 215.874C249.13 205.411 250.423 191.044 249.845 175.453C248.691 144.364 240.069 107.929 209.692 88.2515L208.061 90.7694C237.159 109.618 245.703 144.734 246.847 175.564C247.417 190.933 246.142 205.118 244.722 215.467C244.012 220.638 243.267 224.846 242.701 227.757C242.417 229.212 242.178 230.343 242.011 231.108C241.928 231.49 241.862 231.781 241.817 231.975C241.795 232.072 241.778 232.145 241.767 232.193C241.761 232.217 241.757 232.235 241.754 232.246C241.753 232.252 241.752 232.256 241.751 232.259C241.751 232.26 241.75 232.261 241.75 232.261C241.75 232.262 241.75 232.262 243.209 232.612ZM209.692 88.2515C179.523 68.7092 151.545 70.8518 133.616 80.9398C124.684 85.9662 118.2 92.9984 115.284 100.34C112.35 107.729 113.037 115.482 118.578 121.526L120.789 119.498C116.163 114.453 115.482 107.971 118.072 101.447C120.681 94.8776 126.615 88.3219 135.087 83.5544C151.97 74.0547 178.754 71.7856 208.061 90.7694L209.692 88.2515ZM118.578 121.526C123.974 127.408 132.512 131.054 142.087 132.467C151.687 133.884 162.492 133.084 172.607 129.908C192.855 123.552 210.597 107.542 209.974 80.5061L206.975 80.5753C207.559 105.906 191.073 120.967 171.708 127.046C162.016 130.089 151.668 130.848 142.525 129.499C133.356 128.146 125.561 124.7 120.789 119.498L118.578 121.526ZM209.974 80.5063C209.66 66.8407 202.077 54.7661 190.138 45.2512C178.2 35.7374 161.804 28.6862 143.527 25.012C106.995 17.6679 62.5276 23.7416 30.454 51.24L32.4067 53.5176C63.6105 26.7648 107.065 20.7421 142.935 27.9531C160.86 31.5565 176.785 38.4457 188.268 47.5973C199.75 56.7477 206.688 68.0634 206.975 80.5751L209.974 80.5063ZM260.624 220.343L241.986 233.529L243.719 235.978L262.356 222.792L260.624 220.343ZM242.852 234.753C243.957 233.738 243.957 233.738 243.956 233.738C243.956 233.738 243.956 233.737 243.956 233.737C243.956 233.737 243.955 233.736 243.954 233.735C243.953 233.734 243.95 233.731 243.947 233.728C243.941 233.721 243.932 233.711 243.92 233.698C243.896 233.672 243.861 233.634 243.814 233.583C243.722 233.483 243.585 233.335 243.411 233.146C243.062 232.767 242.559 232.224 241.946 231.562C240.719 230.239 239.048 228.443 237.271 226.554C233.747 222.806 229.722 218.6 227.974 217.056L225.988 219.305C227.606 220.734 231.517 224.814 235.086 228.609C236.856 230.492 238.522 232.282 239.746 233.601C240.357 234.261 240.858 234.803 241.206 235.18C241.38 235.369 241.516 235.516 241.608 235.616C241.654 235.666 241.689 235.704 241.713 235.73C241.725 235.743 241.733 235.752 241.739 235.759C241.742 235.762 241.745 235.764 241.746 235.766C241.747 235.767 241.747 235.767 241.748 235.768C241.748 235.768 241.748 235.768 241.748 235.768C241.748 235.768 241.748 235.768 242.852 234.753Z" fill="#FDFDFE"/>
</svg>
