<svg width="303" height="239" viewBox="0 0 303 239" fill="none" xmlns="http://www.w3.org/2000/svg">
<path d="M241.75 232.262C241.557 233.068 242.053 233.878 242.858 234.071C243.663 234.265 244.473 233.769 244.667 232.964L241.75 232.262ZM119.683 120.512L118.578 121.526L118.578 121.526L119.683 120.512ZM208.474 80.5412L206.975 80.5756L206.975 80.5758L208.474 80.5412ZM30.454 51.2405C29.8251 51.7797 29.7524 52.7267 30.2916 53.3556C30.8308 53.9845 31.7778 54.0573 32.4067 53.5181L30.454 51.2405ZM262.356 222.793C263.033 222.314 263.193 221.378 262.715 220.702C262.236 220.026 261.3 219.865 260.624 220.344L262.356 222.793ZM242.852 234.754L241.748 235.769C242.259 236.324 243.103 236.414 243.719 235.978L242.852 234.754ZM227.974 217.057C227.353 216.508 226.405 216.567 225.857 217.188C225.308 217.809 225.367 218.757 225.988 219.305L227.974 217.057ZM243.209 232.613C244.667 232.964 244.667 232.963 244.668 232.961C244.668 232.961 244.668 232.959 244.669 232.957C244.67 232.953 244.671 232.948 244.673 232.941C244.676 232.927 244.681 232.907 244.687 232.88C244.699 232.828 244.717 232.75 244.741 232.648C244.788 232.444 244.856 232.143 244.942 231.75C245.114 230.964 245.357 229.81 245.645 228.331C246.221 225.372 246.976 221.109 247.694 215.875C249.13 205.411 250.423 191.045 249.845 175.454C248.691 144.364 240.069 107.929 209.692 88.252L208.061 90.7699C237.159 109.619 245.703 144.735 246.847 175.565C247.417 190.934 246.142 205.119 244.722 215.467C244.012 220.639 243.267 224.847 242.701 227.758C242.417 229.213 242.178 230.344 242.011 231.108C241.928 231.491 241.862 231.782 241.817 231.976C241.795 232.073 241.778 232.146 241.767 232.193C241.761 232.217 241.757 232.235 241.754 232.247C241.753 232.252 241.752 232.257 241.751 232.259C241.751 232.261 241.75 232.261 241.75 232.262C241.75 232.262 241.75 232.262 243.209 232.613ZM209.692 88.252C179.523 68.7097 151.545 70.8523 133.616 80.9403C124.684 85.9667 118.2 92.9989 115.284 100.341C112.35 107.729 113.037 115.482 118.578 121.526L120.789 119.499C116.163 114.453 115.482 107.971 118.072 101.448C120.681 94.8781 126.615 88.3223 135.087 83.5548C151.97 74.0552 178.754 71.7861 208.061 90.7699L209.692 88.252ZM118.578 121.526C123.974 127.409 132.512 131.054 142.087 132.467C151.687 133.884 162.492 133.084 172.607 129.909C192.855 123.552 210.597 107.543 209.974 80.5066L206.975 80.5758C207.559 105.907 191.073 120.967 171.708 127.046C162.016 130.089 151.668 130.849 142.525 129.499C133.356 128.146 125.561 124.701 120.789 119.498L118.578 121.526ZM209.974 80.5068C209.66 66.8412 202.077 54.7666 190.138 45.2517C178.2 35.7379 161.804 28.6867 143.527 25.0125C106.995 17.6684 62.5276 23.7421 30.454 51.2405L32.4067 53.5181C63.6105 26.7653 107.065 20.7426 142.935 27.9536C160.86 31.5569 176.785 38.4462 188.268 47.5978C199.75 56.7482 206.688 68.0639 206.975 80.5756L209.974 80.5068ZM260.624 220.344L241.986 233.529L243.719 235.978L262.356 222.793L260.624 220.344ZM242.852 234.754C243.957 233.738 243.957 233.738 243.956 233.738C243.956 233.738 243.956 233.738 243.956 233.738C243.956 233.737 243.955 233.737 243.954 233.736C243.953 233.734 243.95 233.732 243.947 233.728C243.941 233.722 243.932 233.712 243.92 233.699C243.896 233.673 243.861 233.634 243.814 233.584C243.722 233.483 243.585 233.335 243.411 233.146C243.062 232.768 242.559 232.224 241.946 231.562C240.719 230.239 239.048 228.444 237.271 226.554C233.747 222.806 229.722 218.6 227.974 217.057L225.988 219.305C227.606 220.734 231.517 224.814 235.086 228.61C236.856 230.492 238.522 232.282 239.746 233.602C240.357 234.262 240.858 234.804 241.206 235.181C241.38 235.369 241.516 235.516 241.608 235.616C241.654 235.666 241.689 235.705 241.713 235.73C241.725 235.743 241.733 235.753 241.739 235.759C241.742 235.763 241.745 235.765 241.746 235.767C241.747 235.767 241.747 235.768 241.748 235.768C241.748 235.769 241.748 235.769 241.748 235.769C241.748 235.769 241.748 235.769 242.852 234.754Z" fill="#602CF7"/>
</svg>
