<svg width="142" height="156" viewBox="0 0 142 156" fill="none" xmlns="http://www.w3.org/2000/svg">
<path d="M59.7996 142.767C59.0146 143.032 58.5929 143.883 58.8577 144.668C59.1225 145.453 59.9735 145.874 60.7585 145.609L59.7996 142.767ZM133.613 97.0246L134.948 96.3402L134.948 96.3402L133.613 97.0246ZM64.4023 110.041L63.0727 110.736L63.0728 110.736L64.4023 110.041ZM107.209 57.8905L105.919 58.6559L105.919 58.6563L107.209 57.8905ZM42.7548 67.4907L41.4648 68.2561L41.4649 68.2562L42.7548 67.4907ZM65.8999 27.2473L64.6292 28.0444L64.6293 28.0445L65.8999 27.2473ZM29.5058 26.88C28.781 26.4787 27.8682 26.7409 27.4669 27.4657C27.0656 28.1904 27.3278 29.1032 28.0525 29.5045L29.5058 26.88ZM72.5417 152.725C73.3601 152.854 74.1277 152.294 74.2563 151.476C74.3849 150.658 73.8256 149.89 73.0072 149.761L72.5417 152.725ZM59.5151 145.599L60.1709 144.25L60.1672 144.248L59.5151 145.599ZM58.9107 143.453L60.1749 144.26L60.1765 144.257L58.9107 143.453ZM67.9554 132.023C68.3999 131.324 68.1936 130.397 67.4945 129.952C66.7954 129.508 65.8683 129.714 65.4238 130.413L67.9554 132.023ZM60.279 144.188C60.7585 145.609 60.7589 145.609 60.7597 145.609C60.7604 145.609 60.7615 145.608 60.7629 145.608C60.7657 145.607 60.7697 145.606 60.7749 145.604C60.7855 145.6 60.801 145.595 60.8214 145.588C60.8623 145.574 60.9227 145.554 61.0022 145.527C61.1611 145.472 61.3959 145.392 61.7012 145.286C62.3118 145.074 63.2045 144.762 64.3363 144.359C66.5996 143.551 69.82 142.377 73.653 140.908C81.3153 137.973 91.4426 133.853 101.273 129.129C111.079 124.415 120.687 119.054 127.248 113.615C130.522 110.902 133.142 108.085 134.611 105.227C136.107 102.317 136.448 99.2653 134.948 96.3402L132.278 97.7091C133.23 99.5641 133.117 101.572 131.943 103.855C130.742 106.191 128.476 108.701 125.334 111.306C119.064 116.503 109.726 121.737 99.9731 126.425C90.2441 131.101 80.1995 135.187 72.5796 138.107C68.7716 139.566 65.5733 140.732 63.3283 141.533C62.2058 141.933 61.3219 142.242 60.7194 142.451C60.4182 142.555 60.1874 142.635 60.0323 142.688C59.9547 142.714 59.8961 142.734 59.8571 142.747C59.8376 142.754 59.823 142.759 59.8134 142.762C59.8086 142.764 59.8051 142.765 59.8028 142.766C59.8016 142.766 59.8008 142.766 59.8002 142.767C59.7998 142.767 59.7996 142.767 60.279 144.188ZM134.948 96.3402C133.513 93.5428 131.263 91.9134 128.493 91.2343C125.798 90.5735 122.677 90.8246 119.397 91.5807C112.845 93.0912 105.058 96.7698 97.5256 100.491C89.9006 104.257 82.5344 108.066 76.58 110.055C73.5976 111.051 71.1378 111.528 69.272 111.394C67.4935 111.265 66.389 110.605 65.7318 109.347L63.0728 110.736C64.3225 113.128 66.5045 114.201 69.0557 114.386C71.5197 114.564 74.4327 113.935 77.5302 112.9C83.7353 110.828 91.356 106.884 98.8542 103.181C106.445 99.4312 113.918 95.9225 120.071 94.5041C123.143 93.7957 125.736 93.6471 127.779 94.148C129.747 94.6307 131.261 95.7247 132.278 97.7091L134.948 96.3402ZM65.7319 109.347C65.3165 108.551 65.3569 107.577 66.2781 106.144C67.2189 104.681 68.9188 103.024 71.2505 101.171C75.9207 97.4606 82.5299 93.4112 89.1568 88.9011C95.6834 84.4592 102.187 79.5923 106.237 74.4005C108.273 71.7913 109.759 69.0144 110.267 66.0886C110.782 63.123 110.272 60.1115 108.499 57.1247L105.919 58.6563C107.341 61.05 107.699 63.3391 107.311 65.5754C106.916 67.8515 105.727 70.1781 103.872 72.5552C100.142 77.3363 94.003 81.974 87.4689 86.421C81.0352 90.7996 74.1658 95.0233 69.3843 98.8221C66.9901 100.724 64.9708 102.631 63.7547 104.522C62.519 106.443 61.9648 108.614 63.0727 110.736L65.7319 109.347ZM108.499 57.125C107.104 54.7733 104.99 53.5276 102.483 53.119C100.051 52.7226 97.2634 53.1113 94.3483 53.9066C88.5265 55.495 81.5814 58.8919 74.8025 62.1193C67.9267 65.3928 61.2118 68.4979 55.5957 69.7372C52.7969 70.3548 50.4088 70.475 48.4817 70.0088C46.6151 69.5573 45.1254 68.546 44.0448 66.7251L41.4649 68.2562C42.9786 70.8067 45.1633 72.2926 47.7763 72.9247C50.3289 73.5422 53.2257 73.3324 56.2422 72.6667C62.2565 71.3395 69.2936 68.0647 76.0921 64.828C82.9877 61.545 89.6394 58.3011 95.1379 56.8008C97.8829 56.0519 100.186 55.7843 102.001 56.08C103.741 56.3636 105.031 57.1583 105.919 58.6559L108.499 57.125ZM44.0448 66.7253C42.5308 64.1735 43.1139 61.4674 45.3895 58.2492C47.6832 55.0055 51.4081 51.6816 55.321 48.225C59.1492 44.8432 63.1708 41.3236 65.7046 37.8339C66.9809 36.076 67.9606 34.221 68.3123 32.2946C68.673 30.3181 68.3569 28.341 67.1705 26.4501L64.6293 28.0445C65.4047 29.2805 65.5915 30.4931 65.361 31.7559C65.1214 33.0689 64.4156 34.5031 63.277 36.0713C60.9808 39.2337 57.2546 42.5139 53.3348 45.9766C49.4998 49.3645 45.4767 52.9298 42.9401 56.5171C40.3854 60.1298 39.0559 64.1964 41.4648 68.2561L44.0448 66.7253ZM67.1706 26.4503C65.3696 23.579 62.2042 22.7799 58.921 22.8188C55.6324 22.8578 51.7873 23.7342 48.0309 24.6909C44.1986 25.667 40.4448 26.7299 37.0908 27.2776C33.6741 27.8356 31.1144 27.7707 29.5058 26.88L28.0525 29.5045C30.631 30.9322 34.112 30.8038 37.5743 30.2384C41.0995 29.6627 45.0631 28.5426 48.7713 27.5981C52.5554 26.6343 56.0738 25.8527 58.9566 25.8186C61.8447 25.7843 63.6585 26.4968 64.6292 28.0444L67.1706 26.4503ZM73.0072 149.761C73.0422 149.767 72.9299 149.743 72.5664 149.614C72.2524 149.503 71.8389 149.346 71.3446 149.15C70.3584 148.76 69.0899 148.232 67.7313 147.651C65.0101 146.486 61.9724 145.126 60.1709 144.25L58.8594 146.948C60.7235 147.854 63.8111 149.237 66.551 150.409C67.9229 150.996 69.219 151.535 70.2406 151.94C70.7504 152.142 71.2017 152.314 71.5645 152.442C71.8779 152.553 72.2545 152.68 72.5417 152.725L73.0072 149.761ZM60.1672 144.248C60.1649 144.247 60.165 144.247 60.1665 144.248C60.1679 144.249 60.1695 144.251 60.1709 144.253C60.1722 144.254 60.1729 144.255 60.1734 144.256C60.1738 144.257 60.1739 144.257 60.1739 144.258C60.1739 144.258 60.1739 144.258 60.174 144.258C60.174 144.258 60.174 144.259 60.1738 144.26C60.1737 144.261 60.1734 144.262 60.1732 144.263C60.1729 144.264 60.1731 144.263 60.1749 144.26L57.6464 142.645C56.6857 144.15 57.2389 146.166 58.863 146.95L60.1672 144.248ZM60.1765 144.257L67.9554 132.023L65.4238 130.413L57.6449 142.648L60.1765 144.257Z" fill="#23E694"/>
</svg>
